SplineFontDB: 3.0
FontName: Teleindicadores1
FullName: Teleindicadores 1
FamilyName: Teleindicadores 1
Weight: Regular
Copyright: Public domain. If You modify this font, please, keep the posistion of the dots matrix. Si modificas esta fuente, por favor, manten la posicion de la matriz de puntos.
UComments: "Based on destination indicators used on some Spanish trains like 440, 446, 447 or 450 EMUs."
Version: 0.6
ItalicAngle: 0
UnderlinePosition: 0
UnderlineWidth: 0
Ascent: 819
Descent: 205
InvalidEm: 0
LayerCount: 2
Layer: 0 0 "Back" 1
Layer: 1 0 "Fore" 0
XUID: [1021 104 3179 32473]
FSType: 8
OS2Version: 0
OS2_WeightWidthSlopeOnly: 0
OS2_UseTypoMetrics: 0
CreationTime: 1362940323
ModificationTime: 1561417528
PfmFamily: 17
TTFWeight: 400
TTFWidth: 5
LineGap: 92
VLineGap: 92
OS2TypoAscent: 0
OS2TypoAOffset: 1
OS2TypoDescent: 0
OS2TypoDOffset: 1
OS2TypoLinegap: 92
OS2WinAscent: 0
OS2WinAOffset: 1
OS2WinDescent: 0
OS2WinDOffset: 1
HheadAscent: 0
HheadAOffset: 1
HheadDescent: 0
HheadDOffset: 1
OS2Vendor: 'PfEd'
MarkAttachClasses: 1
DEI: 91125
LangName: 1033
Encoding: Custom
UnicodeInterp: none
NameList: Adobe Glyph List
DisplaySize: -36
AntiAlias: 1
FitToEm: 1
WinInfo: 0 51 17
BeginPrivate: 0
EndPrivate
TeXData: 1 0 0 491520 245760 163840 399360 1048576 163840 783286 444596 497025 792723 393216 433062 380633 303038 157286 324010 404750 52429 2506097 1059062 262144
BeginChars: 500 462

StartChar: .notdef
Encoding: 0 0 0
Width: 480
Flags: HW
LayerCount: 2
Fore
SplineSet
410 520 m 0
 410 536.56 423.44 550 440 550 c 0
 456.56 550 470 536.56 470 520 c 0
 470 503.44 456.56 490 440 490 c 0
 423.44 490 410 503.44 410 520 c 0
330 520 m 0
 330 536.56 343.44 550 360 550 c 0
 376.56 550 390 536.56 390 520 c 0
 390 503.44 376.56 490 360 490 c 0
 343.44 490 330 503.44 330 520 c 0
250 520 m 0
 250 536.56 263.44 550 280 550 c 0
 296.56 550 310 536.56 310 520 c 0
 310 503.44 296.56 490 280 490 c 0
 263.44 490 250 503.44 250 520 c 0
170 520 m 0
 170 536.56 183.44 550 200 550 c 0
 216.56 550 230 536.56 230 520 c 0
 230 503.44 216.56 490 200 490 c 0
 183.44 490 170 503.44 170 520 c 0
90 520 m 0
 90 536.56 103.44 550 120 550 c 0
 136.56 550 150 536.56 150 520 c 0
 150 503.44 136.56 490 120 490 c 0
 103.44 490 90 503.44 90 520 c 0
10 520 m 0
 10 536.56 23.4404 550 40 550 c 0
 56.5596 550 70 536.56 70 520 c 0
 70 503.44 56.5596 490 40 490 c 0
 23.4404 490 10 503.44 10 520 c 0
410 440 m 0
 410 456.56 423.44 470 440 470 c 0
 456.56 470 470 456.56 470 440 c 0
 470 423.44 456.56 410 440 410 c 0
 423.44 410 410 423.44 410 440 c 0
330 440 m 0
 330 456.56 343.44 470 360 470 c 0
 376.56 470 390 456.56 390 440 c 0
 390 423.44 376.56 410 360 410 c 0
 343.44 410 330 423.44 330 440 c 0
250 440 m 0
 250 456.56 263.44 470 280 470 c 0
 296.56 470 310 456.56 310 440 c 0
 310 423.44 296.56 410 280 410 c 0
 263.44 410 250 423.44 250 440 c 0
170 440 m 0
 170 456.56 183.44 470 200 470 c 0
 216.56 470 230 456.56 230 440 c 0
 230 423.44 216.56 410 200 410 c 0
 183.44 410 170 423.44 170 440 c 0
90 440 m 0
 90 456.56 103.44 470 120 470 c 0
 136.56 470 150 456.56 150 440 c 0
 150 423.44 136.56 410 120 410 c 0
 103.44 410 90 423.44 90 440 c 0
10 440 m 0
 10 456.56 23.4404 470 40 470 c 0
 56.5596 470 70 456.56 70 440 c 0
 70 423.44 56.5596 410 40 410 c 0
 23.4404 410 10 423.44 10 440 c 0
410 280 m 0
 410 296.56 423.44 310 440 310 c 0
 456.56 310 470 296.56 470 280 c 0
 470 263.44 456.56 250 440 250 c 0
 423.44 250 410 263.44 410 280 c 0
330 280 m 0
 330 296.56 343.44 310 360 310 c 0
 376.56 310 390 296.56 390 280 c 0
 390 263.44 376.56 250 360 250 c 0
 343.44 250 330 263.44 330 280 c 0
250 280 m 0
 250 296.56 263.44 310 280 310 c 0
 296.56 310 310 296.56 310 280 c 0
 310 263.44 296.56 250 280 250 c 0
 263.44 250 250 263.44 250 280 c 0
170 280 m 0
 170 296.56 183.44 310 200 310 c 0
 216.56 310 230 296.56 230 280 c 0
 230 263.44 216.56 250 200 250 c 0
 183.44 250 170 263.44 170 280 c 0
90 280 m 0
 90 296.56 103.44 310 120 310 c 0
 136.56 310 150 296.56 150 280 c 0
 150 263.44 136.56 250 120 250 c 0
 103.44 250 90 263.44 90 280 c 0
10 280 m 0
 10 296.56 23.4404 310 40 310 c 0
 56.5596 310 70 296.56 70 280 c 0
 70 263.44 56.5596 250 40 250 c 0
 23.4404 250 10 263.44 10 280 c 0
410 360 m 0
 410 376.56 423.44 390 440 390 c 0
 456.56 390 470 376.56 470 360 c 0
 470 343.44 456.56 330 440 330 c 0
 423.44 330 410 343.44 410 360 c 0
330 360 m 0
 330 376.56 343.44 390 360 390 c 0
 376.56 390 390 376.56 390 360 c 0
 390 343.44 376.56 330 360 330 c 0
 343.44 330 330 343.44 330 360 c 0
250 360 m 0
 250 376.56 263.44 390 280 390 c 0
 296.56 390 310 376.56 310 360 c 0
 310 343.44 296.56 330 280 330 c 0
 263.44 330 250 343.44 250 360 c 0
170 360 m 0
 170 376.56 183.44 390 200 390 c 0
 216.56 390 230 376.56 230 360 c 0
 230 343.44 216.56 330 200 330 c 0
 183.44 330 170 343.44 170 360 c 0
90 360 m 0
 90 376.56 103.44 390 120 390 c 0
 136.56 390 150 376.56 150 360 c 0
 150 343.44 136.56 330 120 330 c 0
 103.44 330 90 343.44 90 360 c 0
10 360 m 0
 10 376.56 23.4404 390 40 390 c 0
 56.5596 390 70 376.56 70 360 c 0
 70 343.44 56.5596 330 40 330 c 0
 23.4404 330 10 343.44 10 360 c 0
410 200 m 0
 410 216.56 423.44 230 440 230 c 0
 456.56 230 470 216.56 470 200 c 0
 470 183.44 456.56 170 440 170 c 0
 423.44 170 410 183.44 410 200 c 0
330 200 m 0
 330 216.56 343.44 230 360 230 c 0
 376.56 230 390 216.56 390 200 c 0
 390 183.44 376.56 170 360 170 c 0
 343.44 170 330 183.44 330 200 c 0
250 200 m 0
 250 216.56 263.44 230 280 230 c 0
 296.56 230 310 216.56 310 200 c 0
 310 183.44 296.56 170 280 170 c 0
 263.44 170 250 183.44 250 200 c 0
170 200 m 0
 170 216.56 183.44 230 200 230 c 0
 216.56 230 230 216.56 230 200 c 0
 230 183.44 216.56 170 200 170 c 0
 183.44 170 170 183.44 170 200 c 0
90 200 m 0
 90 216.56 103.44 230 120 230 c 0
 136.56 230 150 216.56 150 200 c 0
 150 183.44 136.56 170 120 170 c 0
 103.44 170 90 183.44 90 200 c 0
10 200 m 0
 10 216.56 23.4404 230 40 230 c 0
 56.5596 230 70 216.56 70 200 c 0
 70 183.44 56.5596 170 40 170 c 0
 23.4404 170 10 183.44 10 200 c 0
410 120 m 0
 410 136.56 423.44 150 440 150 c 0
 456.56 150 470 136.56 470 120 c 0
 470 103.44 456.56 90 440 90 c 0
 423.44 90 410 103.44 410 120 c 0
330 120 m 0
 330 136.56 343.44 150 360 150 c 0
 376.56 150 390 136.56 390 120 c 0
 390 103.44 376.56 90 360 90 c 0
 343.44 90 330 103.44 330 120 c 0
250 120 m 0
 250 136.56 263.44 150 280 150 c 0
 296.56 150 310 136.56 310 120 c 0
 310 103.44 296.56 90 280 90 c 0
 263.44 90 250 103.44 250 120 c 0
170 120 m 0
 170 136.56 183.44 150 200 150 c 0
 216.56 150 230 136.56 230 120 c 0
 230 103.44 216.56 90 200 90 c 0
 183.44 90 170 103.44 170 120 c 0
90 120 m 0
 90 136.56 103.44 150 120 150 c 0
 136.56 150 150 136.56 150 120 c 0
 150 103.44 136.56 90 120 90 c 0
 103.44 90 90 103.44 90 120 c 0
10 120 m 0
 10 136.56 23.4404 150 40 150 c 0
 56.5596 150 70 136.56 70 120 c 0
 70 103.44 56.5596 90 40 90 c 0
 23.4404 90 10 103.44 10 120 c 0
410 -40 m 0
 410 -23.4404 423.44 -10 440 -10 c 0
 456.56 -10 470 -23.4404 470 -40 c 0
 470 -56.5596 456.56 -70 440 -70 c 0
 423.44 -70 410 -56.5596 410 -40 c 0
330 -40 m 0
 330 -23.4404 343.44 -10 360 -10 c 0
 376.56 -10 390 -23.4404 390 -40 c 0
 390 -56.5596 376.56 -70 360 -70 c 0
 343.44 -70 330 -56.5596 330 -40 c 0
250 -40 m 0
 250 -23.4404 263.44 -10 280 -10 c 0
 296.56 -10 310 -23.4404 310 -40 c 0
 310 -56.5596 296.56 -70 280 -70 c 0
 263.44 -70 250 -56.5596 250 -40 c 0
170 -40 m 0
 170 -23.4404 183.44 -10 200 -10 c 0
 216.56 -10 230 -23.4404 230 -40 c 0
 230 -56.5596 216.56 -70 200 -70 c 0
 183.44 -70 170 -56.5596 170 -40 c 0
90 -40 m 0
 90 -23.4404 103.44 -10 120 -10 c 0
 136.56 -10 150 -23.4404 150 -40 c 0
 150 -56.5596 136.56 -70 120 -70 c 0
 103.44 -70 90 -56.5596 90 -40 c 0
10 -40 m 0
 10 -23.4404 23.4404 -10 40 -10 c 0
 56.5596 -10 70 -23.4404 70 -40 c 0
 70 -56.5596 56.5596 -70 40 -70 c 0
 23.4404 -70 10 -56.5596 10 -40 c 0
410 40 m 0
 410 56.5596 423.44 70 440 70 c 0
 456.56 70 470 56.5596 470 40 c 0
 470 23.4404 456.56 10 440 10 c 0
 423.44 10 410 23.4404 410 40 c 0
330 40 m 0
 330 56.5596 343.44 70 360 70 c 0
 376.56 70 390 56.5596 390 40 c 0
 390 23.4404 376.56 10 360 10 c 0
 343.44 10 330 23.4404 330 40 c 0
250 40 m 0
 250 56.5596 263.44 70 280 70 c 0
 296.56 70 310 56.5596 310 40 c 0
 310 23.4404 296.56 10 280 10 c 0
 263.44 10 250 23.4404 250 40 c 0
170 40 m 0
 170 56.5596 183.44 70 200 70 c 0
 216.56 70 230 56.5596 230 40 c 0
 230 23.4404 216.56 10 200 10 c 0
 183.44 10 170 23.4404 170 40 c 0
90 40 m 0
 90 56.5596 103.44 70 120 70 c 0
 136.56 70 150 56.5596 150 40 c 0
 150 23.4404 136.56 10 120 10 c 0
 103.44 10 90 23.4404 90 40 c 0
10 40 m 0
 10 56.5596 23.4404 70 40 70 c 0
 56.5596 70 70 56.5596 70 40 c 0
 70 23.4404 56.5596 10 40 10 c 0
 23.4404 10 10 23.4404 10 40 c 0
EndSplineSet
Validated: 1
EndChar

StartChar: A
Encoding: 65 65 1
Width: 480
Flags: HW
LayerCount: 2
Fore
SplineSet
250 520 m 0
 250 536.56 263.44 550 280 550 c 0
 296.56 550 310 536.56 310 520 c 0
 310 503.44 296.56 490 280 490 c 0
 263.44 490 250 503.44 250 520 c 0
170 520 m 0
 170 536.56 183.44 550 200 550 c 0
 216.56 550 230 536.56 230 520 c 0
 230 503.44 216.56 490 200 490 c 0
 183.44 490 170 503.44 170 520 c 0
90 520 m 0
 90 536.56 103.44 550 120 550 c 0
 136.56 550 150 536.56 150 520 c 0
 150 503.44 136.56 490 120 490 c 0
 103.44 490 90 503.44 90 520 c 0
330 440 m 0
 330 456.56 343.44 470 360 470 c 0
 376.56 470 390 456.56 390 440 c 0
 390 423.44 376.56 410 360 410 c 0
 343.44 410 330 423.44 330 440 c 0
10 440 m 0
 10 456.56 23.4404 470 40 470 c 0
 56.5596 470 70 456.56 70 440 c 0
 70 423.44 56.5596 410 40 410 c 0
 23.4404 410 10 423.44 10 440 c 0
330 280 m 0
 330 296.56 343.44 310 360 310 c 0
 376.56 310 390 296.56 390 280 c 0
 390 263.44 376.56 250 360 250 c 0
 343.44 250 330 263.44 330 280 c 0
10 280 m 0
 10 296.56 23.4404 310 40 310 c 0
 56.5596 310 70 296.56 70 280 c 0
 70 263.44 56.5596 250 40 250 c 0
 23.4404 250 10 263.44 10 280 c 0
330 360 m 0
 330 376.56 343.44 390 360 390 c 0
 376.56 390 390 376.56 390 360 c 0
 390 343.44 376.56 330 360 330 c 0
 343.44 330 330 343.44 330 360 c 0
10 360 m 0
 10 376.56 23.4404 390 40 390 c 0
 56.5596 390 70 376.56 70 360 c 0
 70 343.44 56.5596 330 40 330 c 0
 23.4404 330 10 343.44 10 360 c 0
330 200 m 0
 330 216.56 343.44 230 360 230 c 0
 376.56 230 390 216.56 390 200 c 0
 390 183.44 376.56 170 360 170 c 0
 343.44 170 330 183.44 330 200 c 0
250 200 m 0
 250 216.56 263.44 230 280 230 c 0
 296.56 230 310 216.56 310 200 c 0
 310 183.44 296.56 170 280 170 c 0
 263.44 170 250 183.44 250 200 c 0
170 200 m 0
 170 216.56 183.44 230 200 230 c 0
 216.56 230 230 216.56 230 200 c 0
 230 183.44 216.56 170 200 170 c 0
 183.44 170 170 183.44 170 200 c 0
90 200 m 0
 90 216.56 103.44 230 120 230 c 0
 136.56 230 150 216.56 150 200 c 0
 150 183.44 136.56 170 120 170 c 0
 103.44 170 90 183.44 90 200 c 0
10 200 m 0
 10 216.56 23.4404 230 40 230 c 0
 56.5596 230 70 216.56 70 200 c 0
 70 183.44 56.5596 170 40 170 c 0
 23.4404 170 10 183.44 10 200 c 0
330 120 m 0
 330 136.56 343.44 150 360 150 c 0
 376.56 150 390 136.56 390 120 c 0
 390 103.44 376.56 90 360 90 c 0
 343.44 90 330 103.44 330 120 c 0
10 120 m 0
 10 136.56 23.4404 150 40 150 c 0
 56.5596 150 70 136.56 70 120 c 0
 70 103.44 56.5596 90 40 90 c 0
 23.4404 90 10 103.44 10 120 c 0
330 40 m 0
 330 56.5596 343.44 70 360 70 c 0
 376.56 70 390 56.5596 390 40 c 0
 390 23.4404 376.56 10 360 10 c 0
 343.44 10 330 23.4404 330 40 c 0
10 40 m 0
 10 56.5596 23.4404 70 40 70 c 0
 56.5596 70 70 56.5596 70 40 c 0
 70 23.4404 56.5596 10 40 10 c 0
 23.4404 10 10 23.4404 10 40 c 0
EndSplineSet
Validated: 1
EndChar

StartChar: B
Encoding: 66 66 2
Width: 480
Flags: HW
LayerCount: 2
Fore
SplineSet
250 520 m 0
 250 536.56 263.44 550 280 550 c 0
 296.56 550 310 536.56 310 520 c 0
 310 503.44 296.56 490 280 490 c 0
 263.44 490 250 503.44 250 520 c 0
170 520 m 0
 170 536.56 183.44 550 200 550 c 0
 216.56 550 230 536.56 230 520 c 0
 230 503.44 216.56 490 200 490 c 0
 183.44 490 170 503.44 170 520 c 0
90 520 m 0
 90 536.56 103.44 550 120 550 c 0
 136.56 550 150 536.56 150 520 c 0
 150 503.44 136.56 490 120 490 c 0
 103.44 490 90 503.44 90 520 c 0
10 520 m 0
 10 536.56 23.4404 550 40 550 c 0
 56.5596 550 70 536.56 70 520 c 0
 70 503.44 56.5596 490 40 490 c 0
 23.4404 490 10 503.44 10 520 c 0
330 440 m 0
 330 456.56 343.44 470 360 470 c 0
 376.56 470 390 456.56 390 440 c 0
 390 423.44 376.56 410 360 410 c 0
 343.44 410 330 423.44 330 440 c 0
10 440 m 0
 10 456.56 23.4404 470 40 470 c 0
 56.5596 470 70 456.56 70 440 c 0
 70 423.44 56.5596 410 40 410 c 0
 23.4404 410 10 423.44 10 440 c 0
250 280 m 0
 250 296.56 263.44 310 280 310 c 0
 296.56 310 310 296.56 310 280 c 0
 310 263.44 296.56 250 280 250 c 0
 263.44 250 250 263.44 250 280 c 0
170 280 m 0
 170 296.56 183.44 310 200 310 c 0
 216.56 310 230 296.56 230 280 c 0
 230 263.44 216.56 250 200 250 c 0
 183.44 250 170 263.44 170 280 c 0
90 280 m 0
 90 296.56 103.44 310 120 310 c 0
 136.56 310 150 296.56 150 280 c 0
 150 263.44 136.56 250 120 250 c 0
 103.44 250 90 263.44 90 280 c 0
10 280 m 0
 10 296.56 23.4404 310 40 310 c 0
 56.5596 310 70 296.56 70 280 c 0
 70 263.44 56.5596 250 40 250 c 0
 23.4404 250 10 263.44 10 280 c 0
330 360 m 0
 330 376.56 343.44 390 360 390 c 0
 376.56 390 390 376.56 390 360 c 0
 390 343.44 376.56 330 360 330 c 0
 343.44 330 330 343.44 330 360 c 0
10 360 m 0
 10 376.56 23.4404 390 40 390 c 0
 56.5596 390 70 376.56 70 360 c 0
 70 343.44 56.5596 330 40 330 c 0
 23.4404 330 10 343.44 10 360 c 0
330 200 m 0
 330 216.56 343.44 230 360 230 c 0
 376.56 230 390 216.56 390 200 c 0
 390 183.44 376.56 170 360 170 c 0
 343.44 170 330 183.44 330 200 c 0
10 200 m 0
 10 216.56 23.4404 230 40 230 c 0
 56.5596 230 70 216.56 70 200 c 0
 70 183.44 56.5596 170 40 170 c 0
 23.4404 170 10 183.44 10 200 c 0
330 120 m 0
 330 136.56 343.44 150 360 150 c 0
 376.56 150 390 136.56 390 120 c 0
 390 103.44 376.56 90 360 90 c 0
 343.44 90 330 103.44 330 120 c 0
10 120 m 0
 10 136.56 23.4404 150 40 150 c 0
 56.5596 150 70 136.56 70 120 c 0
 70 103.44 56.5596 90 40 90 c 0
 23.4404 90 10 103.44 10 120 c 0
250 40 m 0
 250 56.5596 263.44 70 280 70 c 0
 296.56 70 310 56.5596 310 40 c 0
 310 23.4404 296.56 10 280 10 c 0
 263.44 10 250 23.4404 250 40 c 0
170 40 m 0
 170 56.5596 183.44 70 200 70 c 0
 216.56 70 230 56.5596 230 40 c 0
 230 23.4404 216.56 10 200 10 c 0
 183.44 10 170 23.4404 170 40 c 0
90 40 m 0
 90 56.5596 103.44 70 120 70 c 0
 136.56 70 150 56.5596 150 40 c 0
 150 23.4404 136.56 10 120 10 c 0
 103.44 10 90 23.4404 90 40 c 0
10 40 m 0
 10 56.5596 23.4404 70 40 70 c 0
 56.5596 70 70 56.5596 70 40 c 0
 70 23.4404 56.5596 10 40 10 c 0
 23.4404 10 10 23.4404 10 40 c 0
EndSplineSet
Validated: 1
EndChar

StartChar: C
Encoding: 67 67 3
Width: 480
Flags: HW
LayerCount: 2
Fore
SplineSet
250 520 m 0
 250 536.56 263.44 550 280 550 c 0
 296.56 550 310 536.56 310 520 c 0
 310 503.44 296.56 490 280 490 c 0
 263.44 490 250 503.44 250 520 c 0
170 520 m 0
 170 536.56 183.44 550 200 550 c 0
 216.56 550 230 536.56 230 520 c 0
 230 503.44 216.56 490 200 490 c 0
 183.44 490 170 503.44 170 520 c 0
90 520 m 0
 90 536.56 103.44 550 120 550 c 0
 136.56 550 150 536.56 150 520 c 0
 150 503.44 136.56 490 120 490 c 0
 103.44 490 90 503.44 90 520 c 0
330 440 m 4
 330 456.56 343.44 470 360 470 c 4
 376.56 470 390 456.56 390 440 c 4
 390 423.44 376.56 410 360 410 c 4
 343.44 410 330 423.44 330 440 c 4
10 440 m 0
 10 456.56 23.4404 470 40 470 c 0
 56.5596 470 70 456.56 70 440 c 0
 70 423.44 56.5596 410 40 410 c 0
 23.4404 410 10 423.44 10 440 c 0
10 280 m 0
 10 296.56 23.4404 310 40 310 c 0
 56.5596 310 70 296.56 70 280 c 0
 70 263.44 56.5596 250 40 250 c 0
 23.4404 250 10 263.44 10 280 c 0
10 360 m 0
 10 376.56 23.4404 390 40 390 c 0
 56.5596 390 70 376.56 70 360 c 0
 70 343.44 56.5596 330 40 330 c 0
 23.4404 330 10 343.44 10 360 c 0
10 200 m 0
 10 216.56 23.4404 230 40 230 c 0
 56.5596 230 70 216.56 70 200 c 0
 70 183.44 56.5596 170 40 170 c 0
 23.4404 170 10 183.44 10 200 c 0
330 120 m 4
 330 136.56 343.44 150 360 150 c 4
 376.56 150 390 136.56 390 120 c 4
 390 103.44 376.56 90 360 90 c 4
 343.44 90 330 103.44 330 120 c 4
10 120 m 0
 10 136.56 23.4404 150 40 150 c 0
 56.5596 150 70 136.56 70 120 c 0
 70 103.44 56.5596 90 40 90 c 0
 23.4404 90 10 103.44 10 120 c 0
250 40 m 0
 250 56.5596 263.44 70 280 70 c 0
 296.56 70 310 56.5596 310 40 c 0
 310 23.4404 296.56 10 280 10 c 0
 263.44 10 250 23.4404 250 40 c 0
170 40 m 0
 170 56.5596 183.44 70 200 70 c 0
 216.56 70 230 56.5596 230 40 c 0
 230 23.4404 216.56 10 200 10 c 0
 183.44 10 170 23.4404 170 40 c 0
90 40 m 0
 90 56.5596 103.44 70 120 70 c 0
 136.56 70 150 56.5596 150 40 c 0
 150 23.4404 136.56 10 120 10 c 0
 103.44 10 90 23.4404 90 40 c 0
EndSplineSet
Validated: 1
EndChar

StartChar: D
Encoding: 68 68 4
Width: 480
Flags: HW
LayerCount: 2
Fore
SplineSet
250 520 m 0
 250 536.56 263.44 550 280 550 c 0
 296.56 550 310 536.56 310 520 c 0
 310 503.44 296.56 490 280 490 c 0
 263.44 490 250 503.44 250 520 c 0
170 520 m 0
 170 536.56 183.44 550 200 550 c 0
 216.56 550 230 536.56 230 520 c 0
 230 503.44 216.56 490 200 490 c 0
 183.44 490 170 503.44 170 520 c 0
90 520 m 0
 90 536.56 103.44 550 120 550 c 0
 136.56 550 150 536.56 150 520 c 0
 150 503.44 136.56 490 120 490 c 0
 103.44 490 90 503.44 90 520 c 0
10 520 m 0
 10 536.56 23.4404 550 40 550 c 0
 56.5596 550 70 536.56 70 520 c 0
 70 503.44 56.5596 490 40 490 c 0
 23.4404 490 10 503.44 10 520 c 0
330 440 m 0
 330 456.56 343.44 470 360 470 c 0
 376.56 470 390 456.56 390 440 c 0
 390 423.44 376.56 410 360 410 c 0
 343.44 410 330 423.44 330 440 c 0
10 440 m 0
 10 456.56 23.4404 470 40 470 c 0
 56.5596 470 70 456.56 70 440 c 0
 70 423.44 56.5596 410 40 410 c 0
 23.4404 410 10 423.44 10 440 c 0
330 280 m 0
 330 296.56 343.44 310 360 310 c 0
 376.56 310 390 296.56 390 280 c 0
 390 263.44 376.56 250 360 250 c 0
 343.44 250 330 263.44 330 280 c 0
10 280 m 0
 10 296.56 23.4404 310 40 310 c 0
 56.5596 310 70 296.56 70 280 c 0
 70 263.44 56.5596 250 40 250 c 0
 23.4404 250 10 263.44 10 280 c 0
330 360 m 0
 330 376.56 343.44 390 360 390 c 0
 376.56 390 390 376.56 390 360 c 0
 390 343.44 376.56 330 360 330 c 0
 343.44 330 330 343.44 330 360 c 0
10 360 m 0
 10 376.56 23.4404 390 40 390 c 0
 56.5596 390 70 376.56 70 360 c 0
 70 343.44 56.5596 330 40 330 c 0
 23.4404 330 10 343.44 10 360 c 0
330 200 m 0
 330 216.56 343.44 230 360 230 c 0
 376.56 230 390 216.56 390 200 c 0
 390 183.44 376.56 170 360 170 c 0
 343.44 170 330 183.44 330 200 c 0
10 200 m 0
 10 216.56 23.4404 230 40 230 c 0
 56.5596 230 70 216.56 70 200 c 0
 70 183.44 56.5596 170 40 170 c 0
 23.4404 170 10 183.44 10 200 c 0
330 120 m 0
 330 136.56 343.44 150 360 150 c 0
 376.56 150 390 136.56 390 120 c 0
 390 103.44 376.56 90 360 90 c 0
 343.44 90 330 103.44 330 120 c 0
10 120 m 0
 10 136.56 23.4404 150 40 150 c 0
 56.5596 150 70 136.56 70 120 c 0
 70 103.44 56.5596 90 40 90 c 0
 23.4404 90 10 103.44 10 120 c 0
250 40 m 0
 250 56.5596 263.44 70 280 70 c 0
 296.56 70 310 56.5596 310 40 c 0
 310 23.4404 296.56 10 280 10 c 0
 263.44 10 250 23.4404 250 40 c 0
170 40 m 0
 170 56.5596 183.44 70 200 70 c 0
 216.56 70 230 56.5596 230 40 c 0
 230 23.4404 216.56 10 200 10 c 0
 183.44 10 170 23.4404 170 40 c 0
90 40 m 0
 90 56.5596 103.44 70 120 70 c 0
 136.56 70 150 56.5596 150 40 c 0
 150 23.4404 136.56 10 120 10 c 0
 103.44 10 90 23.4404 90 40 c 0
10 40 m 0
 10 56.5596 23.4404 70 40 70 c 0
 56.5596 70 70 56.5596 70 40 c 0
 70 23.4404 56.5596 10 40 10 c 0
 23.4404 10 10 23.4404 10 40 c 0
EndSplineSet
Validated: 1
EndChar

StartChar: E
Encoding: 69 69 5
Width: 480
Flags: HW
LayerCount: 2
Fore
SplineSet
330 520 m 0
 330 536.56 343.44 550 360 550 c 0
 376.56 550 390 536.56 390 520 c 0
 390 503.44 376.56 490 360 490 c 0
 343.44 490 330 503.44 330 520 c 0
250 520 m 0
 250 536.56 263.44 550 280 550 c 0
 296.56 550 310 536.56 310 520 c 0
 310 503.44 296.56 490 280 490 c 0
 263.44 490 250 503.44 250 520 c 0
170 520 m 0
 170 536.56 183.44 550 200 550 c 0
 216.56 550 230 536.56 230 520 c 0
 230 503.44 216.56 490 200 490 c 0
 183.44 490 170 503.44 170 520 c 0
90 520 m 0
 90 536.56 103.44 550 120 550 c 0
 136.56 550 150 536.56 150 520 c 0
 150 503.44 136.56 490 120 490 c 0
 103.44 490 90 503.44 90 520 c 0
10 520 m 0
 10 536.56 23.4404 550 40 550 c 0
 56.5596 550 70 536.56 70 520 c 0
 70 503.44 56.5596 490 40 490 c 0
 23.4404 490 10 503.44 10 520 c 0
10 440 m 0
 10 456.56 23.4404 470 40 470 c 0
 56.5596 470 70 456.56 70 440 c 0
 70 423.44 56.5596 410 40 410 c 0
 23.4404 410 10 423.44 10 440 c 0
250 280 m 0
 250 296.56 263.44 310 280 310 c 0
 296.56 310 310 296.56 310 280 c 0
 310 263.44 296.56 250 280 250 c 0
 263.44 250 250 263.44 250 280 c 0
170 280 m 0
 170 296.56 183.44 310 200 310 c 0
 216.56 310 230 296.56 230 280 c 0
 230 263.44 216.56 250 200 250 c 0
 183.44 250 170 263.44 170 280 c 0
90 280 m 0
 90 296.56 103.44 310 120 310 c 0
 136.56 310 150 296.56 150 280 c 0
 150 263.44 136.56 250 120 250 c 0
 103.44 250 90 263.44 90 280 c 0
10 280 m 0
 10 296.56 23.4404 310 40 310 c 0
 56.5596 310 70 296.56 70 280 c 0
 70 263.44 56.5596 250 40 250 c 0
 23.4404 250 10 263.44 10 280 c 0
10 360 m 0
 10 376.56 23.4404 390 40 390 c 0
 56.5596 390 70 376.56 70 360 c 0
 70 343.44 56.5596 330 40 330 c 0
 23.4404 330 10 343.44 10 360 c 0
10 200 m 0
 10 216.56 23.4404 230 40 230 c 0
 56.5596 230 70 216.56 70 200 c 0
 70 183.44 56.5596 170 40 170 c 0
 23.4404 170 10 183.44 10 200 c 0
10 120 m 0
 10 136.56 23.4404 150 40 150 c 0
 56.5596 150 70 136.56 70 120 c 0
 70 103.44 56.5596 90 40 90 c 0
 23.4404 90 10 103.44 10 120 c 0
330 40 m 0
 330 56.5596 343.44 70 360 70 c 0
 376.56 70 390 56.5596 390 40 c 0
 390 23.4404 376.56 10 360 10 c 0
 343.44 10 330 23.4404 330 40 c 0
250 40 m 0
 250 56.5596 263.44 70 280 70 c 0
 296.56 70 310 56.5596 310 40 c 0
 310 23.4404 296.56 10 280 10 c 0
 263.44 10 250 23.4404 250 40 c 0
170 40 m 0
 170 56.5596 183.44 70 200 70 c 0
 216.56 70 230 56.5596 230 40 c 0
 230 23.4404 216.56 10 200 10 c 0
 183.44 10 170 23.4404 170 40 c 0
90 40 m 0
 90 56.5596 103.44 70 120 70 c 0
 136.56 70 150 56.5596 150 40 c 0
 150 23.4404 136.56 10 120 10 c 0
 103.44 10 90 23.4404 90 40 c 0
10 40 m 0
 10 56.5596 23.4404 70 40 70 c 0
 56.5596 70 70 56.5596 70 40 c 0
 70 23.4404 56.5596 10 40 10 c 0
 23.4404 10 10 23.4404 10 40 c 0
EndSplineSet
Validated: 1
EndChar

StartChar: F
Encoding: 70 70 6
Width: 480
Flags: HW
LayerCount: 2
Fore
SplineSet
330 520 m 0
 330 536.56 343.44 550 360 550 c 0
 376.56 550 390 536.56 390 520 c 0
 390 503.44 376.56 490 360 490 c 0
 343.44 490 330 503.44 330 520 c 0
250 520 m 0
 250 536.56 263.44 550 280 550 c 0
 296.56 550 310 536.56 310 520 c 0
 310 503.44 296.56 490 280 490 c 0
 263.44 490 250 503.44 250 520 c 0
170 520 m 0
 170 536.56 183.44 550 200 550 c 0
 216.56 550 230 536.56 230 520 c 0
 230 503.44 216.56 490 200 490 c 0
 183.44 490 170 503.44 170 520 c 0
90 520 m 0
 90 536.56 103.44 550 120 550 c 0
 136.56 550 150 536.56 150 520 c 0
 150 503.44 136.56 490 120 490 c 0
 103.44 490 90 503.44 90 520 c 0
10 520 m 0
 10 536.56 23.4404 550 40 550 c 0
 56.5596 550 70 536.56 70 520 c 0
 70 503.44 56.5596 490 40 490 c 0
 23.4404 490 10 503.44 10 520 c 0
10 440 m 0
 10 456.56 23.4404 470 40 470 c 0
 56.5596 470 70 456.56 70 440 c 0
 70 423.44 56.5596 410 40 410 c 0
 23.4404 410 10 423.44 10 440 c 0
250 280 m 0
 250 296.56 263.44 310 280 310 c 0
 296.56 310 310 296.56 310 280 c 0
 310 263.44 296.56 250 280 250 c 0
 263.44 250 250 263.44 250 280 c 0
170 280 m 0
 170 296.56 183.44 310 200 310 c 0
 216.56 310 230 296.56 230 280 c 0
 230 263.44 216.56 250 200 250 c 0
 183.44 250 170 263.44 170 280 c 0
90 280 m 0
 90 296.56 103.44 310 120 310 c 0
 136.56 310 150 296.56 150 280 c 0
 150 263.44 136.56 250 120 250 c 0
 103.44 250 90 263.44 90 280 c 0
10 280 m 0
 10 296.56 23.4404 310 40 310 c 0
 56.5596 310 70 296.56 70 280 c 0
 70 263.44 56.5596 250 40 250 c 0
 23.4404 250 10 263.44 10 280 c 0
10 360 m 0
 10 376.56 23.4404 390 40 390 c 0
 56.5596 390 70 376.56 70 360 c 0
 70 343.44 56.5596 330 40 330 c 0
 23.4404 330 10 343.44 10 360 c 0
10 200 m 0
 10 216.56 23.4404 230 40 230 c 0
 56.5596 230 70 216.56 70 200 c 0
 70 183.44 56.5596 170 40 170 c 0
 23.4404 170 10 183.44 10 200 c 0
10 120 m 0
 10 136.56 23.4404 150 40 150 c 0
 56.5596 150 70 136.56 70 120 c 0
 70 103.44 56.5596 90 40 90 c 0
 23.4404 90 10 103.44 10 120 c 0
10 40 m 0
 10 56.5596 23.4404 70 40 70 c 0
 56.5596 70 70 56.5596 70 40 c 0
 70 23.4404 56.5596 10 40 10 c 0
 23.4404 10 10 23.4404 10 40 c 0
EndSplineSet
Validated: 1
EndChar

StartChar: G
Encoding: 71 71 7
Width: 480
Flags: HW
LayerCount: 2
Fore
SplineSet
250 520 m 0
 250 536.56 263.44 550 280 550 c 0
 296.56 550 310 536.56 310 520 c 0
 310 503.44 296.56 490 280 490 c 0
 263.44 490 250 503.44 250 520 c 0
170 520 m 0
 170 536.56 183.44 550 200 550 c 0
 216.56 550 230 536.56 230 520 c 0
 230 503.44 216.56 490 200 490 c 0
 183.44 490 170 503.44 170 520 c 0
90 520 m 0
 90 536.56 103.44 550 120 550 c 0
 136.56 550 150 536.56 150 520 c 0
 150 503.44 136.56 490 120 490 c 0
 103.44 490 90 503.44 90 520 c 0
330 440 m 0
 330 456.56 343.44 470 360 470 c 0
 376.56 470 390 456.56 390 440 c 0
 390 423.44 376.56 410 360 410 c 0
 343.44 410 330 423.44 330 440 c 0
10 440 m 0
 10 456.56 23.4404 470 40 470 c 0
 56.5596 470 70 456.56 70 440 c 0
 70 423.44 56.5596 410 40 410 c 0
 23.4404 410 10 423.44 10 440 c 0
10 280 m 0
 10 296.56 23.4404 310 40 310 c 0
 56.5596 310 70 296.56 70 280 c 0
 70 263.44 56.5596 250 40 250 c 0
 23.4404 250 10 263.44 10 280 c 0
10 360 m 0
 10 376.56 23.4404 390 40 390 c 0
 56.5596 390 70 376.56 70 360 c 0
 70 343.44 56.5596 330 40 330 c 0
 23.4404 330 10 343.44 10 360 c 0
330 200 m 0
 330 216.56 343.44 230 360 230 c 0
 376.56 230 390 216.56 390 200 c 0
 390 183.44 376.56 170 360 170 c 0
 343.44 170 330 183.44 330 200 c 0
250 200 m 0
 250 216.56 263.44 230 280 230 c 0
 296.56 230 310 216.56 310 200 c 0
 310 183.44 296.56 170 280 170 c 0
 263.44 170 250 183.44 250 200 c 0
10 200 m 0
 10 216.56 23.4404 230 40 230 c 0
 56.5596 230 70 216.56 70 200 c 0
 70 183.44 56.5596 170 40 170 c 0
 23.4404 170 10 183.44 10 200 c 0
330 120 m 0
 330 136.56 343.44 150 360 150 c 0
 376.56 150 390 136.56 390 120 c 0
 390 103.44 376.56 90 360 90 c 0
 343.44 90 330 103.44 330 120 c 0
10 120 m 0
 10 136.56 23.4404 150 40 150 c 0
 56.5596 150 70 136.56 70 120 c 0
 70 103.44 56.5596 90 40 90 c 0
 23.4404 90 10 103.44 10 120 c 0
330 40 m 0
 330 56.5596 343.44 70 360 70 c 0
 376.56 70 390 56.5596 390 40 c 0
 390 23.4404 376.56 10 360 10 c 0
 343.44 10 330 23.4404 330 40 c 0
250 40 m 0
 250 56.5596 263.44 70 280 70 c 0
 296.56 70 310 56.5596 310 40 c 0
 310 23.4404 296.56 10 280 10 c 0
 263.44 10 250 23.4404 250 40 c 0
170 40 m 0
 170 56.5596 183.44 70 200 70 c 0
 216.56 70 230 56.5596 230 40 c 0
 230 23.4404 216.56 10 200 10 c 0
 183.44 10 170 23.4404 170 40 c 0
90 40 m 0
 90 56.5596 103.44 70 120 70 c 0
 136.56 70 150 56.5596 150 40 c 0
 150 23.4404 136.56 10 120 10 c 0
 103.44 10 90 23.4404 90 40 c 0
EndSplineSet
Validated: 1
EndChar

StartChar: H
Encoding: 72 72 8
Width: 480
Flags: HW
LayerCount: 2
Fore
SplineSet
330 520 m 0
 330 536.56 343.44 550 360 550 c 0
 376.56 550 390 536.56 390 520 c 0
 390 503.44 376.56 490 360 490 c 0
 343.44 490 330 503.44 330 520 c 0
10 520 m 0
 10 536.56 23.4404 550 40 550 c 0
 56.5596 550 70 536.56 70 520 c 0
 70 503.44 56.5596 490 40 490 c 0
 23.4404 490 10 503.44 10 520 c 0
330 440 m 0
 330 456.56 343.44 470 360 470 c 0
 376.56 470 390 456.56 390 440 c 0
 390 423.44 376.56 410 360 410 c 0
 343.44 410 330 423.44 330 440 c 0
10 440 m 0
 10 456.56 23.4404 470 40 470 c 0
 56.5596 470 70 456.56 70 440 c 0
 70 423.44 56.5596 410 40 410 c 0
 23.4404 410 10 423.44 10 440 c 0
330 280 m 0
 330 296.56 343.44 310 360 310 c 0
 376.56 310 390 296.56 390 280 c 0
 390 263.44 376.56 250 360 250 c 0
 343.44 250 330 263.44 330 280 c 0
250 280 m 0
 250 296.56 263.44 310 280 310 c 0
 296.56 310 310 296.56 310 280 c 0
 310 263.44 296.56 250 280 250 c 0
 263.44 250 250 263.44 250 280 c 0
170 280 m 0
 170 296.56 183.44 310 200 310 c 0
 216.56 310 230 296.56 230 280 c 0
 230 263.44 216.56 250 200 250 c 0
 183.44 250 170 263.44 170 280 c 0
90 280 m 0
 90 296.56 103.44 310 120 310 c 0
 136.56 310 150 296.56 150 280 c 0
 150 263.44 136.56 250 120 250 c 0
 103.44 250 90 263.44 90 280 c 0
10 280 m 0
 10 296.56 23.4404 310 40 310 c 0
 56.5596 310 70 296.56 70 280 c 0
 70 263.44 56.5596 250 40 250 c 0
 23.4404 250 10 263.44 10 280 c 0
330 360 m 0
 330 376.56 343.44 390 360 390 c 0
 376.56 390 390 376.56 390 360 c 0
 390 343.44 376.56 330 360 330 c 0
 343.44 330 330 343.44 330 360 c 0
10 360 m 0
 10 376.56 23.4404 390 40 390 c 0
 56.5596 390 70 376.56 70 360 c 0
 70 343.44 56.5596 330 40 330 c 0
 23.4404 330 10 343.44 10 360 c 0
330 200 m 0
 330 216.56 343.44 230 360 230 c 0
 376.56 230 390 216.56 390 200 c 0
 390 183.44 376.56 170 360 170 c 0
 343.44 170 330 183.44 330 200 c 0
10 200 m 0
 10 216.56 23.4404 230 40 230 c 0
 56.5596 230 70 216.56 70 200 c 0
 70 183.44 56.5596 170 40 170 c 0
 23.4404 170 10 183.44 10 200 c 0
330 120 m 0
 330 136.56 343.44 150 360 150 c 0
 376.56 150 390 136.56 390 120 c 0
 390 103.44 376.56 90 360 90 c 0
 343.44 90 330 103.44 330 120 c 0
10 120 m 0
 10 136.56 23.4404 150 40 150 c 0
 56.5596 150 70 136.56 70 120 c 0
 70 103.44 56.5596 90 40 90 c 0
 23.4404 90 10 103.44 10 120 c 0
330 40 m 0
 330 56.5596 343.44 70 360 70 c 0
 376.56 70 390 56.5596 390 40 c 0
 390 23.4404 376.56 10 360 10 c 0
 343.44 10 330 23.4404 330 40 c 0
10 40 m 0
 10 56.5596 23.4404 70 40 70 c 0
 56.5596 70 70 56.5596 70 40 c 0
 70 23.4404 56.5596 10 40 10 c 0
 23.4404 10 10 23.4404 10 40 c 0
EndSplineSet
Validated: 1
EndChar

StartChar: I
Encoding: 73 73 9
Width: 480
Flags: HW
LayerCount: 2
Fore
SplineSet
250 520 m 0
 250 536.56 263.44 550 280 550 c 0
 296.56 550 310 536.56 310 520 c 0
 310 503.44 296.56 490 280 490 c 0
 263.44 490 250 503.44 250 520 c 0
170 520 m 0
 170 536.56 183.44 550 200 550 c 0
 216.56 550 230 536.56 230 520 c 0
 230 503.44 216.56 490 200 490 c 0
 183.44 490 170 503.44 170 520 c 0
90 520 m 0
 90 536.56 103.44 550 120 550 c 0
 136.56 550 150 536.56 150 520 c 0
 150 503.44 136.56 490 120 490 c 0
 103.44 490 90 503.44 90 520 c 0
170 440 m 0
 170 456.56 183.44 470 200 470 c 0
 216.56 470 230 456.56 230 440 c 0
 230 423.44 216.56 410 200 410 c 0
 183.44 410 170 423.44 170 440 c 0
170 280 m 0
 170 296.56 183.44 310 200 310 c 0
 216.56 310 230 296.56 230 280 c 0
 230 263.44 216.56 250 200 250 c 0
 183.44 250 170 263.44 170 280 c 0
170 360 m 0
 170 376.56 183.44 390 200 390 c 0
 216.56 390 230 376.56 230 360 c 0
 230 343.44 216.56 330 200 330 c 0
 183.44 330 170 343.44 170 360 c 0
170 200 m 0
 170 216.56 183.44 230 200 230 c 0
 216.56 230 230 216.56 230 200 c 0
 230 183.44 216.56 170 200 170 c 0
 183.44 170 170 183.44 170 200 c 0
170 120 m 0
 170 136.56 183.44 150 200 150 c 0
 216.56 150 230 136.56 230 120 c 0
 230 103.44 216.56 90 200 90 c 0
 183.44 90 170 103.44 170 120 c 0
250 40 m 0
 250 56.5596 263.44 70 280 70 c 0
 296.56 70 310 56.5596 310 40 c 0
 310 23.4404 296.56 10 280 10 c 0
 263.44 10 250 23.4404 250 40 c 0
170 40 m 0
 170 56.5596 183.44 70 200 70 c 0
 216.56 70 230 56.5596 230 40 c 0
 230 23.4404 216.56 10 200 10 c 0
 183.44 10 170 23.4404 170 40 c 0
90 40 m 0
 90 56.5596 103.44 70 120 70 c 0
 136.56 70 150 56.5596 150 40 c 0
 150 23.4404 136.56 10 120 10 c 0
 103.44 10 90 23.4404 90 40 c 0
EndSplineSet
Validated: 1
EndChar

StartChar: J
Encoding: 74 74 10
Width: 480
Flags: HW
LayerCount: 2
Fore
SplineSet
330 520 m 0
 330 536.56 343.44 550 360 550 c 0
 376.56 550 390 536.56 390 520 c 0
 390 503.44 376.56 490 360 490 c 0
 343.44 490 330 503.44 330 520 c 0
330 440 m 0
 330 456.56 343.44 470 360 470 c 0
 376.56 470 390 456.56 390 440 c 0
 390 423.44 376.56 410 360 410 c 0
 343.44 410 330 423.44 330 440 c 0
330 280 m 0
 330 296.56 343.44 310 360 310 c 0
 376.56 310 390 296.56 390 280 c 0
 390 263.44 376.56 250 360 250 c 0
 343.44 250 330 263.44 330 280 c 0
330 360 m 0
 330 376.56 343.44 390 360 390 c 0
 376.56 390 390 376.56 390 360 c 0
 390 343.44 376.56 330 360 330 c 0
 343.44 330 330 343.44 330 360 c 0
330 200 m 0
 330 216.56 343.44 230 360 230 c 0
 376.56 230 390 216.56 390 200 c 0
 390 183.44 376.56 170 360 170 c 0
 343.44 170 330 183.44 330 200 c 0
330 120 m 0
 330 136.56 343.44 150 360 150 c 0
 376.56 150 390 136.56 390 120 c 0
 390 103.44 376.56 90 360 90 c 0
 343.44 90 330 103.44 330 120 c 0
10 120 m 0
 10 136.56 23.4404 150 40 150 c 0
 56.5596 150 70 136.56 70 120 c 0
 70 103.44 56.5596 90 40 90 c 0
 23.4404 90 10 103.44 10 120 c 0
250 40 m 0
 250 56.5596 263.44 70 280 70 c 0
 296.56 70 310 56.5596 310 40 c 0
 310 23.4404 296.56 10 280 10 c 0
 263.44 10 250 23.4404 250 40 c 0
170 40 m 0
 170 56.5596 183.44 70 200 70 c 0
 216.56 70 230 56.5596 230 40 c 0
 230 23.4404 216.56 10 200 10 c 0
 183.44 10 170 23.4404 170 40 c 0
90 40 m 0
 90 56.5596 103.44 70 120 70 c 0
 136.56 70 150 56.5596 150 40 c 0
 150 23.4404 136.56 10 120 10 c 0
 103.44 10 90 23.4404 90 40 c 0
EndSplineSet
Validated: 1
EndChar

StartChar: K
Encoding: 75 75 11
Width: 480
Flags: HW
LayerCount: 2
Fore
SplineSet
330 520 m 0
 330 536.56 343.44 550 360 550 c 0
 376.56 550 390 536.56 390 520 c 0
 390 503.44 376.56 490 360 490 c 0
 343.44 490 330 503.44 330 520 c 0
10 520 m 0
 10 536.56 23.4404 550 40 550 c 0
 56.5596 550 70 536.56 70 520 c 0
 70 503.44 56.5596 490 40 490 c 0
 23.4404 490 10 503.44 10 520 c 0
250 440 m 0
 250 456.56 263.44 470 280 470 c 0
 296.56 470 310 456.56 310 440 c 0
 310 423.44 296.56 410 280 410 c 0
 263.44 410 250 423.44 250 440 c 0
10 440 m 0
 10 456.56 23.4404 470 40 470 c 0
 56.5596 470 70 456.56 70 440 c 0
 70 423.44 56.5596 410 40 410 c 0
 23.4404 410 10 423.44 10 440 c 0
90 280 m 0
 90 296.56 103.44 310 120 310 c 0
 136.56 310 150 296.56 150 280 c 0
 150 263.44 136.56 250 120 250 c 0
 103.44 250 90 263.44 90 280 c 0
10 280 m 0
 10 296.56 23.4404 310 40 310 c 0
 56.5596 310 70 296.56 70 280 c 0
 70 263.44 56.5596 250 40 250 c 0
 23.4404 250 10 263.44 10 280 c 0
170 360 m 0
 170 376.56 183.44 390 200 390 c 0
 216.56 390 230 376.56 230 360 c 0
 230 343.44 216.56 330 200 330 c 0
 183.44 330 170 343.44 170 360 c 0
10 360 m 0
 10 376.56 23.4404 390 40 390 c 0
 56.5596 390 70 376.56 70 360 c 0
 70 343.44 56.5596 330 40 330 c 0
 23.4404 330 10 343.44 10 360 c 0
170 200 m 0
 170 216.56 183.44 230 200 230 c 0
 216.56 230 230 216.56 230 200 c 0
 230 183.44 216.56 170 200 170 c 0
 183.44 170 170 183.44 170 200 c 0
10 200 m 0
 10 216.56 23.4404 230 40 230 c 0
 56.5596 230 70 216.56 70 200 c 0
 70 183.44 56.5596 170 40 170 c 0
 23.4404 170 10 183.44 10 200 c 0
250 120 m 0
 250 136.56 263.44 150 280 150 c 0
 296.56 150 310 136.56 310 120 c 0
 310 103.44 296.56 90 280 90 c 0
 263.44 90 250 103.44 250 120 c 0
10 120 m 0
 10 136.56 23.4404 150 40 150 c 0
 56.5596 150 70 136.56 70 120 c 0
 70 103.44 56.5596 90 40 90 c 0
 23.4404 90 10 103.44 10 120 c 0
330 40 m 0
 330 56.5596 343.44 70 360 70 c 0
 376.56 70 390 56.5596 390 40 c 0
 390 23.4404 376.56 10 360 10 c 0
 343.44 10 330 23.4404 330 40 c 0
10 40 m 0
 10 56.5596 23.4404 70 40 70 c 0
 56.5596 70 70 56.5596 70 40 c 0
 70 23.4404 56.5596 10 40 10 c 0
 23.4404 10 10 23.4404 10 40 c 0
EndSplineSet
Validated: 1
EndChar

StartChar: L
Encoding: 76 76 12
Width: 480
Flags: HW
LayerCount: 2
Fore
SplineSet
10 520 m 0
 10 536.56 23.4404 550 40 550 c 0
 56.5596 550 70 536.56 70 520 c 0
 70 503.44 56.5596 490 40 490 c 0
 23.4404 490 10 503.44 10 520 c 0
10 440 m 0
 10 456.56 23.4404 470 40 470 c 0
 56.5596 470 70 456.56 70 440 c 0
 70 423.44 56.5596 410 40 410 c 0
 23.4404 410 10 423.44 10 440 c 0
10 280 m 0
 10 296.56 23.4404 310 40 310 c 0
 56.5596 310 70 296.56 70 280 c 0
 70 263.44 56.5596 250 40 250 c 0
 23.4404 250 10 263.44 10 280 c 0
10 360 m 0
 10 376.56 23.4404 390 40 390 c 0
 56.5596 390 70 376.56 70 360 c 0
 70 343.44 56.5596 330 40 330 c 0
 23.4404 330 10 343.44 10 360 c 0
10 200 m 0
 10 216.56 23.4404 230 40 230 c 0
 56.5596 230 70 216.56 70 200 c 0
 70 183.44 56.5596 170 40 170 c 0
 23.4404 170 10 183.44 10 200 c 0
10 120 m 0
 10 136.56 23.4404 150 40 150 c 0
 56.5596 150 70 136.56 70 120 c 0
 70 103.44 56.5596 90 40 90 c 0
 23.4404 90 10 103.44 10 120 c 0
330 40 m 0
 330 56.5596 343.44 70 360 70 c 0
 376.56 70 390 56.5596 390 40 c 0
 390 23.4404 376.56 10 360 10 c 0
 343.44 10 330 23.4404 330 40 c 0
250 40 m 0
 250 56.5596 263.44 70 280 70 c 0
 296.56 70 310 56.5596 310 40 c 0
 310 23.4404 296.56 10 280 10 c 0
 263.44 10 250 23.4404 250 40 c 0
170 40 m 0
 170 56.5596 183.44 70 200 70 c 0
 216.56 70 230 56.5596 230 40 c 0
 230 23.4404 216.56 10 200 10 c 0
 183.44 10 170 23.4404 170 40 c 0
90 40 m 0
 90 56.5596 103.44 70 120 70 c 0
 136.56 70 150 56.5596 150 40 c 0
 150 23.4404 136.56 10 120 10 c 0
 103.44 10 90 23.4404 90 40 c 0
10 40 m 0
 10 56.5596 23.4404 70 40 70 c 0
 56.5596 70 70 56.5596 70 40 c 0
 70 23.4404 56.5596 10 40 10 c 0
 23.4404 10 10 23.4404 10 40 c 0
EndSplineSet
Validated: 1
EndChar

StartChar: M
Encoding: 77 77 13
Width: 480
Flags: HW
LayerCount: 2
Fore
SplineSet
330 520 m 0
 330 536.56 343.44 550 360 550 c 0
 376.56 550 390 536.56 390 520 c 0
 390 503.44 376.56 490 360 490 c 0
 343.44 490 330 503.44 330 520 c 0
10 520 m 0
 10 536.56 23.4404 550 40 550 c 0
 56.5596 550 70 536.56 70 520 c 0
 70 503.44 56.5596 490 40 490 c 0
 23.4404 490 10 503.44 10 520 c 0
330 440 m 0
 330 456.56 343.44 470 360 470 c 0
 376.56 470 390 456.56 390 440 c 0
 390 423.44 376.56 410 360 410 c 0
 343.44 410 330 423.44 330 440 c 0
250 440 m 0
 250 456.56 263.44 470 280 470 c 0
 296.56 470 310 456.56 310 440 c 0
 310 423.44 296.56 410 280 410 c 0
 263.44 410 250 423.44 250 440 c 0
90 440 m 0
 90 456.56 103.44 470 120 470 c 0
 136.56 470 150 456.56 150 440 c 0
 150 423.44 136.56 410 120 410 c 0
 103.44 410 90 423.44 90 440 c 0
10 440 m 0
 10 456.56 23.4404 470 40 470 c 0
 56.5596 470 70 456.56 70 440 c 0
 70 423.44 56.5596 410 40 410 c 0
 23.4404 410 10 423.44 10 440 c 0
330 280 m 0
 330 296.56 343.44 310 360 310 c 0
 376.56 310 390 296.56 390 280 c 0
 390 263.44 376.56 250 360 250 c 0
 343.44 250 330 263.44 330 280 c 0
170 280 m 0
 170 296.56 183.44 310 200 310 c 0
 216.56 310 230 296.56 230 280 c 0
 230 263.44 216.56 250 200 250 c 0
 183.44 250 170 263.44 170 280 c 0
10 280 m 0
 10 296.56 23.4404 310 40 310 c 0
 56.5596 310 70 296.56 70 280 c 0
 70 263.44 56.5596 250 40 250 c 0
 23.4404 250 10 263.44 10 280 c 0
330 360 m 0
 330 376.56 343.44 390 360 390 c 0
 376.56 390 390 376.56 390 360 c 0
 390 343.44 376.56 330 360 330 c 0
 343.44 330 330 343.44 330 360 c 0
170 360 m 0
 170 376.56 183.44 390 200 390 c 0
 216.56 390 230 376.56 230 360 c 0
 230 343.44 216.56 330 200 330 c 0
 183.44 330 170 343.44 170 360 c 0
10 360 m 0
 10 376.56 23.4404 390 40 390 c 0
 56.5596 390 70 376.56 70 360 c 0
 70 343.44 56.5596 330 40 330 c 0
 23.4404 330 10 343.44 10 360 c 0
330 200 m 0
 330 216.56 343.44 230 360 230 c 0
 376.56 230 390 216.56 390 200 c 0
 390 183.44 376.56 170 360 170 c 0
 343.44 170 330 183.44 330 200 c 0
10 200 m 0
 10 216.56 23.4404 230 40 230 c 0
 56.5596 230 70 216.56 70 200 c 0
 70 183.44 56.5596 170 40 170 c 0
 23.4404 170 10 183.44 10 200 c 0
330 120 m 0
 330 136.56 343.44 150 360 150 c 0
 376.56 150 390 136.56 390 120 c 0
 390 103.44 376.56 90 360 90 c 0
 343.44 90 330 103.44 330 120 c 0
10 120 m 0
 10 136.56 23.4404 150 40 150 c 0
 56.5596 150 70 136.56 70 120 c 0
 70 103.44 56.5596 90 40 90 c 0
 23.4404 90 10 103.44 10 120 c 0
330 40 m 0
 330 56.5596 343.44 70 360 70 c 0
 376.56 70 390 56.5596 390 40 c 0
 390 23.4404 376.56 10 360 10 c 0
 343.44 10 330 23.4404 330 40 c 0
10 40 m 0
 10 56.5596 23.4404 70 40 70 c 0
 56.5596 70 70 56.5596 70 40 c 0
 70 23.4404 56.5596 10 40 10 c 0
 23.4404 10 10 23.4404 10 40 c 0
EndSplineSet
Validated: 1
EndChar

StartChar: N
Encoding: 78 78 14
Width: 480
Flags: HW
LayerCount: 2
Fore
SplineSet
330 520 m 0
 330 536.56 343.44 550 360 550 c 0
 376.56 550 390 536.56 390 520 c 0
 390 503.44 376.56 490 360 490 c 0
 343.44 490 330 503.44 330 520 c 0
10 520 m 0
 10 536.56 23.4404 550 40 550 c 0
 56.5596 550 70 536.56 70 520 c 0
 70 503.44 56.5596 490 40 490 c 0
 23.4404 490 10 503.44 10 520 c 0
330 440 m 0
 330 456.56 343.44 470 360 470 c 0
 376.56 470 390 456.56 390 440 c 0
 390 423.44 376.56 410 360 410 c 0
 343.44 410 330 423.44 330 440 c 0
10 440 m 0
 10 456.56 23.4404 470 40 470 c 0
 56.5596 470 70 456.56 70 440 c 0
 70 423.44 56.5596 410 40 410 c 0
 23.4404 410 10 423.44 10 440 c 0
330 280 m 0
 330 296.56 343.44 310 360 310 c 0
 376.56 310 390 296.56 390 280 c 0
 390 263.44 376.56 250 360 250 c 0
 343.44 250 330 263.44 330 280 c 0
170 280 m 0
 170 296.56 183.44 310 200 310 c 0
 216.56 310 230 296.56 230 280 c 0
 230 263.44 216.56 250 200 250 c 0
 183.44 250 170 263.44 170 280 c 0
10 280 m 0
 10 296.56 23.4404 310 40 310 c 0
 56.5596 310 70 296.56 70 280 c 0
 70 263.44 56.5596 250 40 250 c 0
 23.4404 250 10 263.44 10 280 c 0
330 360 m 0
 330 376.56 343.44 390 360 390 c 0
 376.56 390 390 376.56 390 360 c 0
 390 343.44 376.56 330 360 330 c 0
 343.44 330 330 343.44 330 360 c 0
90 360 m 0
 90 376.56 103.44 390 120 390 c 0
 136.56 390 150 376.56 150 360 c 0
 150 343.44 136.56 330 120 330 c 0
 103.44 330 90 343.44 90 360 c 0
10 360 m 0
 10 376.56 23.4404 390 40 390 c 0
 56.5596 390 70 376.56 70 360 c 0
 70 343.44 56.5596 330 40 330 c 0
 23.4404 330 10 343.44 10 360 c 0
330 200 m 0
 330 216.56 343.44 230 360 230 c 0
 376.56 230 390 216.56 390 200 c 0
 390 183.44 376.56 170 360 170 c 0
 343.44 170 330 183.44 330 200 c 0
250 200 m 0
 250 216.56 263.44 230 280 230 c 0
 296.56 230 310 216.56 310 200 c 0
 310 183.44 296.56 170 280 170 c 0
 263.44 170 250 183.44 250 200 c 0
10 200 m 0
 10 216.56 23.4404 230 40 230 c 0
 56.5596 230 70 216.56 70 200 c 0
 70 183.44 56.5596 170 40 170 c 0
 23.4404 170 10 183.44 10 200 c 0
330 120 m 0
 330 136.56 343.44 150 360 150 c 0
 376.56 150 390 136.56 390 120 c 0
 390 103.44 376.56 90 360 90 c 0
 343.44 90 330 103.44 330 120 c 0
10 120 m 0
 10 136.56 23.4404 150 40 150 c 0
 56.5596 150 70 136.56 70 120 c 0
 70 103.44 56.5596 90 40 90 c 0
 23.4404 90 10 103.44 10 120 c 0
330 40 m 0
 330 56.5596 343.44 70 360 70 c 0
 376.56 70 390 56.5596 390 40 c 0
 390 23.4404 376.56 10 360 10 c 0
 343.44 10 330 23.4404 330 40 c 0
10 40 m 0
 10 56.5596 23.4404 70 40 70 c 0
 56.5596 70 70 56.5596 70 40 c 0
 70 23.4404 56.5596 10 40 10 c 0
 23.4404 10 10 23.4404 10 40 c 0
EndSplineSet
Validated: 1
EndChar

StartChar: O
Encoding: 79 79 15
Width: 480
Flags: HW
LayerCount: 2
Fore
SplineSet
250 520 m 0
 250 536.56 263.44 550 280 550 c 0
 296.56 550 310 536.56 310 520 c 0
 310 503.44 296.56 490 280 490 c 0
 263.44 490 250 503.44 250 520 c 0
170 520 m 0
 170 536.56 183.44 550 200 550 c 0
 216.56 550 230 536.56 230 520 c 0
 230 503.44 216.56 490 200 490 c 0
 183.44 490 170 503.44 170 520 c 0
90 520 m 0
 90 536.56 103.44 550 120 550 c 0
 136.56 550 150 536.56 150 520 c 0
 150 503.44 136.56 490 120 490 c 0
 103.44 490 90 503.44 90 520 c 0
330 440 m 0
 330 456.56 343.44 470 360 470 c 0
 376.56 470 390 456.56 390 440 c 0
 390 423.44 376.56 410 360 410 c 0
 343.44 410 330 423.44 330 440 c 0
10 440 m 0
 10 456.56 23.4404 470 40 470 c 0
 56.5596 470 70 456.56 70 440 c 0
 70 423.44 56.5596 410 40 410 c 0
 23.4404 410 10 423.44 10 440 c 0
330 280 m 0
 330 296.56 343.44 310 360 310 c 0
 376.56 310 390 296.56 390 280 c 0
 390 263.44 376.56 250 360 250 c 0
 343.44 250 330 263.44 330 280 c 0
10 280 m 0
 10 296.56 23.4404 310 40 310 c 0
 56.5596 310 70 296.56 70 280 c 0
 70 263.44 56.5596 250 40 250 c 0
 23.4404 250 10 263.44 10 280 c 0
330 360 m 0
 330 376.56 343.44 390 360 390 c 0
 376.56 390 390 376.56 390 360 c 0
 390 343.44 376.56 330 360 330 c 0
 343.44 330 330 343.44 330 360 c 0
10 360 m 0
 10 376.56 23.4404 390 40 390 c 0
 56.5596 390 70 376.56 70 360 c 0
 70 343.44 56.5596 330 40 330 c 0
 23.4404 330 10 343.44 10 360 c 0
330 200 m 0
 330 216.56 343.44 230 360 230 c 0
 376.56 230 390 216.56 390 200 c 0
 390 183.44 376.56 170 360 170 c 0
 343.44 170 330 183.44 330 200 c 0
10 200 m 0
 10 216.56 23.4404 230 40 230 c 0
 56.5596 230 70 216.56 70 200 c 0
 70 183.44 56.5596 170 40 170 c 0
 23.4404 170 10 183.44 10 200 c 0
330 120 m 0
 330 136.56 343.44 150 360 150 c 0
 376.56 150 390 136.56 390 120 c 0
 390 103.44 376.56 90 360 90 c 0
 343.44 90 330 103.44 330 120 c 0
10 120 m 0
 10 136.56 23.4404 150 40 150 c 0
 56.5596 150 70 136.56 70 120 c 0
 70 103.44 56.5596 90 40 90 c 0
 23.4404 90 10 103.44 10 120 c 0
250 40 m 0
 250 56.5596 263.44 70 280 70 c 0
 296.56 70 310 56.5596 310 40 c 0
 310 23.4404 296.56 10 280 10 c 0
 263.44 10 250 23.4404 250 40 c 0
170 40 m 0
 170 56.5596 183.44 70 200 70 c 0
 216.56 70 230 56.5596 230 40 c 0
 230 23.4404 216.56 10 200 10 c 0
 183.44 10 170 23.4404 170 40 c 0
90 40 m 0
 90 56.5596 103.44 70 120 70 c 0
 136.56 70 150 56.5596 150 40 c 0
 150 23.4404 136.56 10 120 10 c 0
 103.44 10 90 23.4404 90 40 c 0
EndSplineSet
Validated: 1
EndChar

StartChar: P
Encoding: 80 80 16
Width: 480
Flags: HW
LayerCount: 2
Fore
SplineSet
250 520 m 0
 250 536.56 263.44 550 280 550 c 0
 296.56 550 310 536.56 310 520 c 0
 310 503.44 296.56 490 280 490 c 0
 263.44 490 250 503.44 250 520 c 0
170 520 m 0
 170 536.56 183.44 550 200 550 c 0
 216.56 550 230 536.56 230 520 c 0
 230 503.44 216.56 490 200 490 c 0
 183.44 490 170 503.44 170 520 c 0
90 520 m 0
 90 536.56 103.44 550 120 550 c 0
 136.56 550 150 536.56 150 520 c 0
 150 503.44 136.56 490 120 490 c 0
 103.44 490 90 503.44 90 520 c 0
10 520 m 0
 10 536.56 23.4404 550 40 550 c 0
 56.5596 550 70 536.56 70 520 c 0
 70 503.44 56.5596 490 40 490 c 0
 23.4404 490 10 503.44 10 520 c 0
330 440 m 0
 330 456.56 343.44 470 360 470 c 0
 376.56 470 390 456.56 390 440 c 0
 390 423.44 376.56 410 360 410 c 0
 343.44 410 330 423.44 330 440 c 0
10 440 m 0
 10 456.56 23.4404 470 40 470 c 0
 56.5596 470 70 456.56 70 440 c 0
 70 423.44 56.5596 410 40 410 c 0
 23.4404 410 10 423.44 10 440 c 0
250 280 m 0
 250 296.56 263.44 310 280 310 c 0
 296.56 310 310 296.56 310 280 c 0
 310 263.44 296.56 250 280 250 c 0
 263.44 250 250 263.44 250 280 c 0
170 280 m 0
 170 296.56 183.44 310 200 310 c 0
 216.56 310 230 296.56 230 280 c 0
 230 263.44 216.56 250 200 250 c 0
 183.44 250 170 263.44 170 280 c 0
90 280 m 0
 90 296.56 103.44 310 120 310 c 0
 136.56 310 150 296.56 150 280 c 0
 150 263.44 136.56 250 120 250 c 0
 103.44 250 90 263.44 90 280 c 0
10 280 m 0
 10 296.56 23.4404 310 40 310 c 0
 56.5596 310 70 296.56 70 280 c 0
 70 263.44 56.5596 250 40 250 c 0
 23.4404 250 10 263.44 10 280 c 0
330 360 m 0
 330 376.56 343.44 390 360 390 c 0
 376.56 390 390 376.56 390 360 c 0
 390 343.44 376.56 330 360 330 c 0
 343.44 330 330 343.44 330 360 c 0
10 360 m 0
 10 376.56 23.4404 390 40 390 c 0
 56.5596 390 70 376.56 70 360 c 0
 70 343.44 56.5596 330 40 330 c 0
 23.4404 330 10 343.44 10 360 c 0
10 200 m 0
 10 216.56 23.4404 230 40 230 c 0
 56.5596 230 70 216.56 70 200 c 0
 70 183.44 56.5596 170 40 170 c 0
 23.4404 170 10 183.44 10 200 c 0
10 120 m 0
 10 136.56 23.4404 150 40 150 c 0
 56.5596 150 70 136.56 70 120 c 0
 70 103.44 56.5596 90 40 90 c 0
 23.4404 90 10 103.44 10 120 c 0
10 40 m 0
 10 56.5596 23.4404 70 40 70 c 0
 56.5596 70 70 56.5596 70 40 c 0
 70 23.4404 56.5596 10 40 10 c 0
 23.4404 10 10 23.4404 10 40 c 0
EndSplineSet
Validated: 1
EndChar

StartChar: Q
Encoding: 81 81 17
Width: 480
Flags: HW
LayerCount: 2
Fore
SplineSet
250 520 m 0
 250 536.56 263.44 550 280 550 c 0
 296.56 550 310 536.56 310 520 c 0
 310 503.44 296.56 490 280 490 c 0
 263.44 490 250 503.44 250 520 c 0
170 520 m 0
 170 536.56 183.44 550 200 550 c 0
 216.56 550 230 536.56 230 520 c 0
 230 503.44 216.56 490 200 490 c 0
 183.44 490 170 503.44 170 520 c 0
90 520 m 0
 90 536.56 103.44 550 120 550 c 0
 136.56 550 150 536.56 150 520 c 0
 150 503.44 136.56 490 120 490 c 0
 103.44 490 90 503.44 90 520 c 0
330 440 m 0
 330 456.56 343.44 470 360 470 c 0
 376.56 470 390 456.56 390 440 c 0
 390 423.44 376.56 410 360 410 c 0
 343.44 410 330 423.44 330 440 c 0
10 440 m 0
 10 456.56 23.4404 470 40 470 c 0
 56.5596 470 70 456.56 70 440 c 0
 70 423.44 56.5596 410 40 410 c 0
 23.4404 410 10 423.44 10 440 c 0
330 280 m 0
 330 296.56 343.44 310 360 310 c 0
 376.56 310 390 296.56 390 280 c 0
 390 263.44 376.56 250 360 250 c 0
 343.44 250 330 263.44 330 280 c 0
10 280 m 0
 10 296.56 23.4404 310 40 310 c 0
 56.5596 310 70 296.56 70 280 c 0
 70 263.44 56.5596 250 40 250 c 0
 23.4404 250 10 263.44 10 280 c 0
330 360 m 0
 330 376.56 343.44 390 360 390 c 0
 376.56 390 390 376.56 390 360 c 0
 390 343.44 376.56 330 360 330 c 0
 343.44 330 330 343.44 330 360 c 0
10 360 m 0
 10 376.56 23.4404 390 40 390 c 0
 56.5596 390 70 376.56 70 360 c 0
 70 343.44 56.5596 330 40 330 c 0
 23.4404 330 10 343.44 10 360 c 0
330 200 m 0
 330 216.56 343.44 230 360 230 c 0
 376.56 230 390 216.56 390 200 c 0
 390 183.44 376.56 170 360 170 c 0
 343.44 170 330 183.44 330 200 c 0
170 200 m 0
 170 216.56 183.44 230 200 230 c 0
 216.56 230 230 216.56 230 200 c 0
 230 183.44 216.56 170 200 170 c 0
 183.44 170 170 183.44 170 200 c 0
10 200 m 0
 10 216.56 23.4404 230 40 230 c 0
 56.5596 230 70 216.56 70 200 c 0
 70 183.44 56.5596 170 40 170 c 0
 23.4404 170 10 183.44 10 200 c 0
250 120 m 0
 250 136.56 263.44 150 280 150 c 0
 296.56 150 310 136.56 310 120 c 0
 310 103.44 296.56 90 280 90 c 0
 263.44 90 250 103.44 250 120 c 0
10 120 m 0
 10 136.56 23.4404 150 40 150 c 0
 56.5596 150 70 136.56 70 120 c 0
 70 103.44 56.5596 90 40 90 c 0
 23.4404 90 10 103.44 10 120 c 0
330 40 m 0
 330 56.5596 343.44 70 360 70 c 0
 376.56 70 390 56.5596 390 40 c 0
 390 23.4404 376.56 10 360 10 c 0
 343.44 10 330 23.4404 330 40 c 0
170 40 m 0
 170 56.5596 183.44 70 200 70 c 0
 216.56 70 230 56.5596 230 40 c 0
 230 23.4404 216.56 10 200 10 c 0
 183.44 10 170 23.4404 170 40 c 0
90 40 m 0
 90 56.5596 103.44 70 120 70 c 0
 136.56 70 150 56.5596 150 40 c 0
 150 23.4404 136.56 10 120 10 c 0
 103.44 10 90 23.4404 90 40 c 0
EndSplineSet
Validated: 1
EndChar

StartChar: R
Encoding: 82 82 18
Width: 480
Flags: HW
LayerCount: 2
Fore
SplineSet
250 520 m 0
 250 536.56 263.44 550 280 550 c 0
 296.56 550 310 536.56 310 520 c 0
 310 503.44 296.56 490 280 490 c 0
 263.44 490 250 503.44 250 520 c 0
170 520 m 0
 170 536.56 183.44 550 200 550 c 0
 216.56 550 230 536.56 230 520 c 0
 230 503.44 216.56 490 200 490 c 0
 183.44 490 170 503.44 170 520 c 0
90 520 m 0
 90 536.56 103.44 550 120 550 c 0
 136.56 550 150 536.56 150 520 c 0
 150 503.44 136.56 490 120 490 c 0
 103.44 490 90 503.44 90 520 c 0
10 520 m 0
 10 536.56 23.4404 550 40 550 c 0
 56.5596 550 70 536.56 70 520 c 0
 70 503.44 56.5596 490 40 490 c 0
 23.4404 490 10 503.44 10 520 c 0
330 440 m 0
 330 456.56 343.44 470 360 470 c 0
 376.56 470 390 456.56 390 440 c 0
 390 423.44 376.56 410 360 410 c 0
 343.44 410 330 423.44 330 440 c 0
10 440 m 0
 10 456.56 23.4404 470 40 470 c 0
 56.5596 470 70 456.56 70 440 c 0
 70 423.44 56.5596 410 40 410 c 0
 23.4404 410 10 423.44 10 440 c 0
250 280 m 0
 250 296.56 263.44 310 280 310 c 0
 296.56 310 310 296.56 310 280 c 0
 310 263.44 296.56 250 280 250 c 0
 263.44 250 250 263.44 250 280 c 0
170 280 m 0
 170 296.56 183.44 310 200 310 c 0
 216.56 310 230 296.56 230 280 c 0
 230 263.44 216.56 250 200 250 c 0
 183.44 250 170 263.44 170 280 c 0
90 280 m 0
 90 296.56 103.44 310 120 310 c 0
 136.56 310 150 296.56 150 280 c 0
 150 263.44 136.56 250 120 250 c 0
 103.44 250 90 263.44 90 280 c 0
10 280 m 0
 10 296.56 23.4404 310 40 310 c 0
 56.5596 310 70 296.56 70 280 c 0
 70 263.44 56.5596 250 40 250 c 0
 23.4404 250 10 263.44 10 280 c 0
330 360 m 0
 330 376.56 343.44 390 360 390 c 0
 376.56 390 390 376.56 390 360 c 0
 390 343.44 376.56 330 360 330 c 0
 343.44 330 330 343.44 330 360 c 0
10 360 m 0
 10 376.56 23.4404 390 40 390 c 0
 56.5596 390 70 376.56 70 360 c 0
 70 343.44 56.5596 330 40 330 c 0
 23.4404 330 10 343.44 10 360 c 0
170 200 m 0
 170 216.56 183.44 230 200 230 c 0
 216.56 230 230 216.56 230 200 c 0
 230 183.44 216.56 170 200 170 c 0
 183.44 170 170 183.44 170 200 c 0
10 200 m 0
 10 216.56 23.4404 230 40 230 c 0
 56.5596 230 70 216.56 70 200 c 0
 70 183.44 56.5596 170 40 170 c 0
 23.4404 170 10 183.44 10 200 c 0
250 120 m 0
 250 136.56 263.44 150 280 150 c 0
 296.56 150 310 136.56 310 120 c 0
 310 103.44 296.56 90 280 90 c 0
 263.44 90 250 103.44 250 120 c 0
10 120 m 0
 10 136.56 23.4404 150 40 150 c 0
 56.5596 150 70 136.56 70 120 c 0
 70 103.44 56.5596 90 40 90 c 0
 23.4404 90 10 103.44 10 120 c 0
330 40 m 0
 330 56.5596 343.44 70 360 70 c 0
 376.56 70 390 56.5596 390 40 c 0
 390 23.4404 376.56 10 360 10 c 0
 343.44 10 330 23.4404 330 40 c 0
10 40 m 0
 10 56.5596 23.4404 70 40 70 c 0
 56.5596 70 70 56.5596 70 40 c 0
 70 23.4404 56.5596 10 40 10 c 0
 23.4404 10 10 23.4404 10 40 c 0
EndSplineSet
Validated: 1
EndChar

StartChar: S
Encoding: 83 83 19
Width: 480
Flags: HW
LayerCount: 2
Fore
SplineSet
330 520 m 0
 330 536.56 343.44 550 360 550 c 0
 376.56 550 390 536.56 390 520 c 0
 390 503.44 376.56 490 360 490 c 0
 343.44 490 330 503.44 330 520 c 0
250 520 m 0
 250 536.56 263.44 550 280 550 c 0
 296.56 550 310 536.56 310 520 c 0
 310 503.44 296.56 490 280 490 c 0
 263.44 490 250 503.44 250 520 c 0
170 520 m 0
 170 536.56 183.44 550 200 550 c 0
 216.56 550 230 536.56 230 520 c 0
 230 503.44 216.56 490 200 490 c 0
 183.44 490 170 503.44 170 520 c 0
90 520 m 0
 90 536.56 103.44 550 120 550 c 0
 136.56 550 150 536.56 150 520 c 0
 150 503.44 136.56 490 120 490 c 0
 103.44 490 90 503.44 90 520 c 0
10 440 m 0
 10 456.56 23.4404 470 40 470 c 0
 56.5596 470 70 456.56 70 440 c 0
 70 423.44 56.5596 410 40 410 c 0
 23.4404 410 10 423.44 10 440 c 0
250 280 m 0
 250 296.56 263.44 310 280 310 c 0
 296.56 310 310 296.56 310 280 c 0
 310 263.44 296.56 250 280 250 c 0
 263.44 250 250 263.44 250 280 c 0
170 280 m 0
 170 296.56 183.44 310 200 310 c 0
 216.56 310 230 296.56 230 280 c 0
 230 263.44 216.56 250 200 250 c 0
 183.44 250 170 263.44 170 280 c 0
90 280 m 0
 90 296.56 103.44 310 120 310 c 0
 136.56 310 150 296.56 150 280 c 0
 150 263.44 136.56 250 120 250 c 0
 103.44 250 90 263.44 90 280 c 0
10 360 m 0
 10 376.56 23.4404 390 40 390 c 0
 56.5596 390 70 376.56 70 360 c 0
 70 343.44 56.5596 330 40 330 c 0
 23.4404 330 10 343.44 10 360 c 0
330 200 m 0
 330 216.56 343.44 230 360 230 c 0
 376.56 230 390 216.56 390 200 c 0
 390 183.44 376.56 170 360 170 c 0
 343.44 170 330 183.44 330 200 c 0
330 120 m 0
 330 136.56 343.44 150 360 150 c 0
 376.56 150 390 136.56 390 120 c 0
 390 103.44 376.56 90 360 90 c 0
 343.44 90 330 103.44 330 120 c 0
250 40 m 0
 250 56.5596 263.44 70 280 70 c 0
 296.56 70 310 56.5596 310 40 c 0
 310 23.4404 296.56 10 280 10 c 0
 263.44 10 250 23.4404 250 40 c 0
170 40 m 0
 170 56.5596 183.44 70 200 70 c 0
 216.56 70 230 56.5596 230 40 c 0
 230 23.4404 216.56 10 200 10 c 0
 183.44 10 170 23.4404 170 40 c 0
90 40 m 0
 90 56.5596 103.44 70 120 70 c 0
 136.56 70 150 56.5596 150 40 c 0
 150 23.4404 136.56 10 120 10 c 0
 103.44 10 90 23.4404 90 40 c 0
10 40 m 0
 10 56.5596 23.4404 70 40 70 c 0
 56.5596 70 70 56.5596 70 40 c 0
 70 23.4404 56.5596 10 40 10 c 0
 23.4404 10 10 23.4404 10 40 c 0
EndSplineSet
Validated: 1
EndChar

StartChar: T
Encoding: 84 84 20
Width: 480
Flags: HW
LayerCount: 2
Fore
SplineSet
330 520 m 0
 330 536.56 343.44 550 360 550 c 0
 376.56 550 390 536.56 390 520 c 0
 390 503.44 376.56 490 360 490 c 0
 343.44 490 330 503.44 330 520 c 0
250 520 m 0
 250 536.56 263.44 550 280 550 c 0
 296.56 550 310 536.56 310 520 c 0
 310 503.44 296.56 490 280 490 c 0
 263.44 490 250 503.44 250 520 c 0
170 520 m 0
 170 536.56 183.44 550 200 550 c 0
 216.56 550 230 536.56 230 520 c 0
 230 503.44 216.56 490 200 490 c 0
 183.44 490 170 503.44 170 520 c 0
90 520 m 0
 90 536.56 103.44 550 120 550 c 0
 136.56 550 150 536.56 150 520 c 0
 150 503.44 136.56 490 120 490 c 0
 103.44 490 90 503.44 90 520 c 0
10 520 m 0
 10 536.56 23.4404 550 40 550 c 0
 56.5596 550 70 536.56 70 520 c 0
 70 503.44 56.5596 490 40 490 c 0
 23.4404 490 10 503.44 10 520 c 0
170 440 m 0
 170 456.56 183.44 470 200 470 c 0
 216.56 470 230 456.56 230 440 c 0
 230 423.44 216.56 410 200 410 c 0
 183.44 410 170 423.44 170 440 c 0
170 280 m 0
 170 296.56 183.44 310 200 310 c 0
 216.56 310 230 296.56 230 280 c 0
 230 263.44 216.56 250 200 250 c 0
 183.44 250 170 263.44 170 280 c 0
170 360 m 0
 170 376.56 183.44 390 200 390 c 0
 216.56 390 230 376.56 230 360 c 0
 230 343.44 216.56 330 200 330 c 0
 183.44 330 170 343.44 170 360 c 0
170 200 m 0
 170 216.56 183.44 230 200 230 c 0
 216.56 230 230 216.56 230 200 c 0
 230 183.44 216.56 170 200 170 c 0
 183.44 170 170 183.44 170 200 c 0
170 120 m 0
 170 136.56 183.44 150 200 150 c 0
 216.56 150 230 136.56 230 120 c 0
 230 103.44 216.56 90 200 90 c 0
 183.44 90 170 103.44 170 120 c 0
170 40 m 0
 170 56.5596 183.44 70 200 70 c 0
 216.56 70 230 56.5596 230 40 c 0
 230 23.4404 216.56 10 200 10 c 0
 183.44 10 170 23.4404 170 40 c 0
EndSplineSet
Validated: 1
EndChar

StartChar: U
Encoding: 85 85 21
Width: 480
Flags: HW
LayerCount: 2
Fore
SplineSet
330 520 m 0
 330 536.56 343.44 550 360 550 c 0
 376.56 550 390 536.56 390 520 c 0
 390 503.44 376.56 490 360 490 c 0
 343.44 490 330 503.44 330 520 c 0
10 520 m 0
 10 536.56 23.4404 550 40 550 c 0
 56.5596 550 70 536.56 70 520 c 0
 70 503.44 56.5596 490 40 490 c 0
 23.4404 490 10 503.44 10 520 c 0
330 440 m 0
 330 456.56 343.44 470 360 470 c 0
 376.56 470 390 456.56 390 440 c 0
 390 423.44 376.56 410 360 410 c 0
 343.44 410 330 423.44 330 440 c 0
10 440 m 0
 10 456.56 23.4404 470 40 470 c 0
 56.5596 470 70 456.56 70 440 c 0
 70 423.44 56.5596 410 40 410 c 0
 23.4404 410 10 423.44 10 440 c 0
330 280 m 0
 330 296.56 343.44 310 360 310 c 0
 376.56 310 390 296.56 390 280 c 0
 390 263.44 376.56 250 360 250 c 0
 343.44 250 330 263.44 330 280 c 0
10 280 m 0
 10 296.56 23.4404 310 40 310 c 0
 56.5596 310 70 296.56 70 280 c 0
 70 263.44 56.5596 250 40 250 c 0
 23.4404 250 10 263.44 10 280 c 0
330 360 m 0
 330 376.56 343.44 390 360 390 c 0
 376.56 390 390 376.56 390 360 c 0
 390 343.44 376.56 330 360 330 c 0
 343.44 330 330 343.44 330 360 c 0
10 360 m 0
 10 376.56 23.4404 390 40 390 c 0
 56.5596 390 70 376.56 70 360 c 0
 70 343.44 56.5596 330 40 330 c 0
 23.4404 330 10 343.44 10 360 c 0
330 200 m 0
 330 216.56 343.44 230 360 230 c 0
 376.56 230 390 216.56 390 200 c 0
 390 183.44 376.56 170 360 170 c 0
 343.44 170 330 183.44 330 200 c 0
10 200 m 0
 10 216.56 23.4404 230 40 230 c 0
 56.5596 230 70 216.56 70 200 c 0
 70 183.44 56.5596 170 40 170 c 0
 23.4404 170 10 183.44 10 200 c 0
330 120 m 0
 330 136.56 343.44 150 360 150 c 0
 376.56 150 390 136.56 390 120 c 0
 390 103.44 376.56 90 360 90 c 0
 343.44 90 330 103.44 330 120 c 0
10 120 m 0
 10 136.56 23.4404 150 40 150 c 0
 56.5596 150 70 136.56 70 120 c 0
 70 103.44 56.5596 90 40 90 c 0
 23.4404 90 10 103.44 10 120 c 0
250 40 m 0
 250 56.5596 263.44 70 280 70 c 0
 296.56 70 310 56.5596 310 40 c 0
 310 23.4404 296.56 10 280 10 c 0
 263.44 10 250 23.4404 250 40 c 0
170 40 m 0
 170 56.5596 183.44 70 200 70 c 0
 216.56 70 230 56.5596 230 40 c 0
 230 23.4404 216.56 10 200 10 c 0
 183.44 10 170 23.4404 170 40 c 0
90 40 m 0
 90 56.5596 103.44 70 120 70 c 0
 136.56 70 150 56.5596 150 40 c 0
 150 23.4404 136.56 10 120 10 c 0
 103.44 10 90 23.4404 90 40 c 0
EndSplineSet
Validated: 1
EndChar

StartChar: V
Encoding: 86 86 22
Width: 480
Flags: HW
LayerCount: 2
Fore
SplineSet
330 520 m 0
 330 536.56 343.44 550 360 550 c 0
 376.56 550 390 536.56 390 520 c 0
 390 503.44 376.56 490 360 490 c 0
 343.44 490 330 503.44 330 520 c 0
10 520 m 0
 10 536.56 23.4404 550 40 550 c 0
 56.5596 550 70 536.56 70 520 c 0
 70 503.44 56.5596 490 40 490 c 0
 23.4404 490 10 503.44 10 520 c 0
330 440 m 0
 330 456.56 343.44 470 360 470 c 0
 376.56 470 390 456.56 390 440 c 0
 390 423.44 376.56 410 360 410 c 0
 343.44 410 330 423.44 330 440 c 0
10 440 m 0
 10 456.56 23.4404 470 40 470 c 0
 56.5596 470 70 456.56 70 440 c 0
 70 423.44 56.5596 410 40 410 c 0
 23.4404 410 10 423.44 10 440 c 0
330 280 m 0
 330 296.56 343.44 310 360 310 c 0
 376.56 310 390 296.56 390 280 c 0
 390 263.44 376.56 250 360 250 c 0
 343.44 250 330 263.44 330 280 c 0
10 280 m 0
 10 296.56 23.4404 310 40 310 c 0
 56.5596 310 70 296.56 70 280 c 0
 70 263.44 56.5596 250 40 250 c 0
 23.4404 250 10 263.44 10 280 c 0
330 360 m 0
 330 376.56 343.44 390 360 390 c 0
 376.56 390 390 376.56 390 360 c 0
 390 343.44 376.56 330 360 330 c 0
 343.44 330 330 343.44 330 360 c 0
10 360 m 0
 10 376.56 23.4404 390 40 390 c 0
 56.5596 390 70 376.56 70 360 c 0
 70 343.44 56.5596 330 40 330 c 0
 23.4404 330 10 343.44 10 360 c 0
330 200 m 0
 330 216.56 343.44 230 360 230 c 0
 376.56 230 390 216.56 390 200 c 0
 390 183.44 376.56 170 360 170 c 0
 343.44 170 330 183.44 330 200 c 0
10 200 m 0
 10 216.56 23.4404 230 40 230 c 0
 56.5596 230 70 216.56 70 200 c 0
 70 183.44 56.5596 170 40 170 c 0
 23.4404 170 10 183.44 10 200 c 0
250 120 m 0
 250 136.56 263.44 150 280 150 c 0
 296.56 150 310 136.56 310 120 c 0
 310 103.44 296.56 90 280 90 c 0
 263.44 90 250 103.44 250 120 c 0
90 120 m 0
 90 136.56 103.44 150 120 150 c 0
 136.56 150 150 136.56 150 120 c 0
 150 103.44 136.56 90 120 90 c 0
 103.44 90 90 103.44 90 120 c 0
170 40 m 0
 170 56.5596 183.44 70 200 70 c 0
 216.56 70 230 56.5596 230 40 c 0
 230 23.4404 216.56 10 200 10 c 0
 183.44 10 170 23.4404 170 40 c 0
EndSplineSet
Validated: 1
EndChar

StartChar: W
Encoding: 87 87 23
Width: 480
Flags: HW
LayerCount: 2
Fore
SplineSet
330 520 m 0
 330 536.56 343.44 550 360 550 c 0
 376.56 550 390 536.56 390 520 c 0
 390 503.44 376.56 490 360 490 c 0
 343.44 490 330 503.44 330 520 c 0
170 520 m 0
 170 536.56 183.44 550 200 550 c 0
 216.56 550 230 536.56 230 520 c 0
 230 503.44 216.56 490 200 490 c 0
 183.44 490 170 503.44 170 520 c 0
10 520 m 0
 10 536.56 23.4404 550 40 550 c 0
 56.5596 550 70 536.56 70 520 c 0
 70 503.44 56.5596 490 40 490 c 0
 23.4404 490 10 503.44 10 520 c 0
330 440 m 0
 330 456.56 343.44 470 360 470 c 0
 376.56 470 390 456.56 390 440 c 0
 390 423.44 376.56 410 360 410 c 0
 343.44 410 330 423.44 330 440 c 0
170 440 m 0
 170 456.56 183.44 470 200 470 c 0
 216.56 470 230 456.56 230 440 c 0
 230 423.44 216.56 410 200 410 c 0
 183.44 410 170 423.44 170 440 c 0
10 440 m 0
 10 456.56 23.4404 470 40 470 c 0
 56.5596 470 70 456.56 70 440 c 0
 70 423.44 56.5596 410 40 410 c 0
 23.4404 410 10 423.44 10 440 c 0
330 280 m 0
 330 296.56 343.44 310 360 310 c 0
 376.56 310 390 296.56 390 280 c 0
 390 263.44 376.56 250 360 250 c 0
 343.44 250 330 263.44 330 280 c 0
170 280 m 0
 170 296.56 183.44 310 200 310 c 0
 216.56 310 230 296.56 230 280 c 0
 230 263.44 216.56 250 200 250 c 0
 183.44 250 170 263.44 170 280 c 0
10 280 m 0
 10 296.56 23.4404 310 40 310 c 0
 56.5596 310 70 296.56 70 280 c 0
 70 263.44 56.5596 250 40 250 c 0
 23.4404 250 10 263.44 10 280 c 0
330 360 m 0
 330 376.56 343.44 390 360 390 c 0
 376.56 390 390 376.56 390 360 c 0
 390 343.44 376.56 330 360 330 c 0
 343.44 330 330 343.44 330 360 c 0
170 360 m 0
 170 376.56 183.44 390 200 390 c 0
 216.56 390 230 376.56 230 360 c 0
 230 343.44 216.56 330 200 330 c 0
 183.44 330 170 343.44 170 360 c 0
10 360 m 0
 10 376.56 23.4404 390 40 390 c 0
 56.5596 390 70 376.56 70 360 c 0
 70 343.44 56.5596 330 40 330 c 0
 23.4404 330 10 343.44 10 360 c 0
330 200 m 0
 330 216.56 343.44 230 360 230 c 0
 376.56 230 390 216.56 390 200 c 0
 390 183.44 376.56 170 360 170 c 0
 343.44 170 330 183.44 330 200 c 0
170 200 m 0
 170 216.56 183.44 230 200 230 c 0
 216.56 230 230 216.56 230 200 c 0
 230 183.44 216.56 170 200 170 c 0
 183.44 170 170 183.44 170 200 c 0
10 200 m 0
 10 216.56 23.4404 230 40 230 c 0
 56.5596 230 70 216.56 70 200 c 0
 70 183.44 56.5596 170 40 170 c 0
 23.4404 170 10 183.44 10 200 c 0
330 120 m 0
 330 136.56 343.44 150 360 150 c 0
 376.56 150 390 136.56 390 120 c 0
 390 103.44 376.56 90 360 90 c 0
 343.44 90 330 103.44 330 120 c 0
170 120 m 0
 170 136.56 183.44 150 200 150 c 0
 216.56 150 230 136.56 230 120 c 0
 230 103.44 216.56 90 200 90 c 0
 183.44 90 170 103.44 170 120 c 0
10 120 m 0
 10 136.56 23.4404 150 40 150 c 0
 56.5596 150 70 136.56 70 120 c 0
 70 103.44 56.5596 90 40 90 c 0
 23.4404 90 10 103.44 10 120 c 0
250 40 m 0
 250 56.5596 263.44 70 280 70 c 0
 296.56 70 310 56.5596 310 40 c 0
 310 23.4404 296.56 10 280 10 c 0
 263.44 10 250 23.4404 250 40 c 0
90 40 m 0
 90 56.5596 103.44 70 120 70 c 0
 136.56 70 150 56.5596 150 40 c 0
 150 23.4404 136.56 10 120 10 c 0
 103.44 10 90 23.4404 90 40 c 0
EndSplineSet
Validated: 1
EndChar

StartChar: X
Encoding: 88 88 24
Width: 480
Flags: HW
LayerCount: 2
Fore
SplineSet
330 520 m 0
 330 536.56 343.44 550 360 550 c 0
 376.56 550 390 536.56 390 520 c 0
 390 503.44 376.56 490 360 490 c 0
 343.44 490 330 503.44 330 520 c 0
10 520 m 0
 10 536.56 23.4404 550 40 550 c 0
 56.5596 550 70 536.56 70 520 c 0
 70 503.44 56.5596 490 40 490 c 0
 23.4404 490 10 503.44 10 520 c 0
330 440 m 0
 330 456.56 343.44 470 360 470 c 0
 376.56 470 390 456.56 390 440 c 0
 390 423.44 376.56 410 360 410 c 0
 343.44 410 330 423.44 330 440 c 0
10 440 m 0
 10 456.56 23.4404 470 40 470 c 0
 56.5596 470 70 456.56 70 440 c 0
 70 423.44 56.5596 410 40 410 c 0
 23.4404 410 10 423.44 10 440 c 0
170 280 m 0
 170 296.56 183.44 310 200 310 c 0
 216.56 310 230 296.56 230 280 c 0
 230 263.44 216.56 250 200 250 c 0
 183.44 250 170 263.44 170 280 c 0
250 360 m 0
 250 376.56 263.44 390 280 390 c 0
 296.56 390 310 376.56 310 360 c 0
 310 343.44 296.56 330 280 330 c 0
 263.44 330 250 343.44 250 360 c 0
90 360 m 0
 90 376.56 103.44 390 120 390 c 0
 136.56 390 150 376.56 150 360 c 0
 150 343.44 136.56 330 120 330 c 0
 103.44 330 90 343.44 90 360 c 0
250 200 m 0
 250 216.56 263.44 230 280 230 c 0
 296.56 230 310 216.56 310 200 c 0
 310 183.44 296.56 170 280 170 c 0
 263.44 170 250 183.44 250 200 c 0
90 200 m 0
 90 216.56 103.44 230 120 230 c 0
 136.56 230 150 216.56 150 200 c 0
 150 183.44 136.56 170 120 170 c 0
 103.44 170 90 183.44 90 200 c 0
330 120 m 0
 330 136.56 343.44 150 360 150 c 0
 376.56 150 390 136.56 390 120 c 0
 390 103.44 376.56 90 360 90 c 0
 343.44 90 330 103.44 330 120 c 0
10 120 m 0
 10 136.56 23.4404 150 40 150 c 0
 56.5596 150 70 136.56 70 120 c 0
 70 103.44 56.5596 90 40 90 c 0
 23.4404 90 10 103.44 10 120 c 0
330 40 m 0
 330 56.5596 343.44 70 360 70 c 0
 376.56 70 390 56.5596 390 40 c 0
 390 23.4404 376.56 10 360 10 c 0
 343.44 10 330 23.4404 330 40 c 0
10 40 m 0
 10 56.5596 23.4404 70 40 70 c 0
 56.5596 70 70 56.5596 70 40 c 0
 70 23.4404 56.5596 10 40 10 c 0
 23.4404 10 10 23.4404 10 40 c 0
EndSplineSet
Validated: 1
EndChar

StartChar: Y
Encoding: 89 89 25
Width: 480
Flags: HW
LayerCount: 2
Fore
SplineSet
330 520 m 0
 330 536.56 343.44 550 360 550 c 0
 376.56 550 390 536.56 390 520 c 0
 390 503.44 376.56 490 360 490 c 0
 343.44 490 330 503.44 330 520 c 0
10 520 m 0
 10 536.56 23.4404 550 40 550 c 0
 56.5596 550 70 536.56 70 520 c 0
 70 503.44 56.5596 490 40 490 c 0
 23.4404 490 10 503.44 10 520 c 0
330 440 m 0
 330 456.56 343.44 470 360 470 c 0
 376.56 470 390 456.56 390 440 c 0
 390 423.44 376.56 410 360 410 c 0
 343.44 410 330 423.44 330 440 c 0
10 440 m 0
 10 456.56 23.4404 470 40 470 c 0
 56.5596 470 70 456.56 70 440 c 0
 70 423.44 56.5596 410 40 410 c 0
 23.4404 410 10 423.44 10 440 c 0
170 280 m 0
 170 296.56 183.44 310 200 310 c 0
 216.56 310 230 296.56 230 280 c 0
 230 263.44 216.56 250 200 250 c 0
 183.44 250 170 263.44 170 280 c 0
250 360 m 0
 250 376.56 263.44 390 280 390 c 0
 296.56 390 310 376.56 310 360 c 0
 310 343.44 296.56 330 280 330 c 0
 263.44 330 250 343.44 250 360 c 0
90 360 m 0
 90 376.56 103.44 390 120 390 c 0
 136.56 390 150 376.56 150 360 c 0
 150 343.44 136.56 330 120 330 c 0
 103.44 330 90 343.44 90 360 c 0
170 200 m 0
 170 216.56 183.44 230 200 230 c 0
 216.56 230 230 216.56 230 200 c 0
 230 183.44 216.56 170 200 170 c 0
 183.44 170 170 183.44 170 200 c 0
170 120 m 0
 170 136.56 183.44 150 200 150 c 0
 216.56 150 230 136.56 230 120 c 0
 230 103.44 216.56 90 200 90 c 0
 183.44 90 170 103.44 170 120 c 0
170 40 m 0
 170 56.5596 183.44 70 200 70 c 0
 216.56 70 230 56.5596 230 40 c 0
 230 23.4404 216.56 10 200 10 c 0
 183.44 10 170 23.4404 170 40 c 0
EndSplineSet
Validated: 1
EndChar

StartChar: Z
Encoding: 90 90 26
Width: 480
Flags: HW
LayerCount: 2
Fore
SplineSet
330 520 m 0
 330 536.56 343.44 550 360 550 c 0
 376.56 550 390 536.56 390 520 c 0
 390 503.44 376.56 490 360 490 c 0
 343.44 490 330 503.44 330 520 c 0
250 520 m 0
 250 536.56 263.44 550 280 550 c 0
 296.56 550 310 536.56 310 520 c 0
 310 503.44 296.56 490 280 490 c 0
 263.44 490 250 503.44 250 520 c 0
170 520 m 0
 170 536.56 183.44 550 200 550 c 0
 216.56 550 230 536.56 230 520 c 0
 230 503.44 216.56 490 200 490 c 0
 183.44 490 170 503.44 170 520 c 0
90 520 m 0
 90 536.56 103.44 550 120 550 c 0
 136.56 550 150 536.56 150 520 c 0
 150 503.44 136.56 490 120 490 c 0
 103.44 490 90 503.44 90 520 c 0
10 520 m 0
 10 536.56 23.4404 550 40 550 c 0
 56.5596 550 70 536.56 70 520 c 0
 70 503.44 56.5596 490 40 490 c 0
 23.4404 490 10 503.44 10 520 c 0
330 440 m 0
 330 456.56 343.44 470 360 470 c 0
 376.56 470 390 456.56 390 440 c 0
 390 423.44 376.56 410 360 410 c 0
 343.44 410 330 423.44 330 440 c 0
170 280 m 0
 170 296.56 183.44 310 200 310 c 0
 216.56 310 230 296.56 230 280 c 0
 230 263.44 216.56 250 200 250 c 0
 183.44 250 170 263.44 170 280 c 0
250 360 m 0
 250 376.56 263.44 390 280 390 c 0
 296.56 390 310 376.56 310 360 c 0
 310 343.44 296.56 330 280 330 c 0
 263.44 330 250 343.44 250 360 c 0
90 200 m 0
 90 216.56 103.44 230 120 230 c 0
 136.56 230 150 216.56 150 200 c 0
 150 183.44 136.56 170 120 170 c 0
 103.44 170 90 183.44 90 200 c 0
10 120 m 0
 10 136.56 23.4404 150 40 150 c 0
 56.5596 150 70 136.56 70 120 c 0
 70 103.44 56.5596 90 40 90 c 0
 23.4404 90 10 103.44 10 120 c 0
330 40 m 0
 330 56.5596 343.44 70 360 70 c 0
 376.56 70 390 56.5596 390 40 c 0
 390 23.4404 376.56 10 360 10 c 0
 343.44 10 330 23.4404 330 40 c 0
250 40 m 0
 250 56.5596 263.44 70 280 70 c 0
 296.56 70 310 56.5596 310 40 c 0
 310 23.4404 296.56 10 280 10 c 0
 263.44 10 250 23.4404 250 40 c 0
170 40 m 0
 170 56.5596 183.44 70 200 70 c 0
 216.56 70 230 56.5596 230 40 c 0
 230 23.4404 216.56 10 200 10 c 0
 183.44 10 170 23.4404 170 40 c 0
90 40 m 0
 90 56.5596 103.44 70 120 70 c 0
 136.56 70 150 56.5596 150 40 c 0
 150 23.4404 136.56 10 120 10 c 0
 103.44 10 90 23.4404 90 40 c 0
10 40 m 0
 10 56.5596 23.4404 70 40 70 c 0
 56.5596 70 70 56.5596 70 40 c 0
 70 23.4404 56.5596 10 40 10 c 0
 23.4404 10 10 23.4404 10 40 c 0
EndSplineSet
Validated: 1
EndChar

StartChar: zero
Encoding: 48 48 27
Width: 480
Flags: HW
LayerCount: 2
Fore
SplineSet
250 520 m 0
 250 536.56 263.44 550 280 550 c 0
 296.56 550 310 536.56 310 520 c 0
 310 503.44 296.56 490 280 490 c 0
 263.44 490 250 503.44 250 520 c 0
170 520 m 0
 170 536.56 183.44 550 200 550 c 0
 216.56 550 230 536.56 230 520 c 0
 230 503.44 216.56 490 200 490 c 0
 183.44 490 170 503.44 170 520 c 0
90 520 m 0
 90 536.56 103.44 550 120 550 c 0
 136.56 550 150 536.56 150 520 c 0
 150 503.44 136.56 490 120 490 c 0
 103.44 490 90 503.44 90 520 c 0
330 440 m 0
 330 456.56 343.44 470 360 470 c 0
 376.56 470 390 456.56 390 440 c 0
 390 423.44 376.56 410 360 410 c 0
 343.44 410 330 423.44 330 440 c 0
10 440 m 0
 10 456.56 23.4404 470 40 470 c 0
 56.5596 470 70 456.56 70 440 c 0
 70 423.44 56.5596 410 40 410 c 0
 23.4404 410 10 423.44 10 440 c 0
330 280 m 0
 330 296.56 343.44 310 360 310 c 0
 376.56 310 390 296.56 390 280 c 0
 390 263.44 376.56 250 360 250 c 0
 343.44 250 330 263.44 330 280 c 0
10 280 m 0
 10 296.56 23.4404 310 40 310 c 0
 56.5596 310 70 296.56 70 280 c 0
 70 263.44 56.5596 250 40 250 c 0
 23.4404 250 10 263.44 10 280 c 0
330 360 m 0
 330 376.56 343.44 390 360 390 c 0
 376.56 390 390 376.56 390 360 c 0
 390 343.44 376.56 330 360 330 c 0
 343.44 330 330 343.44 330 360 c 0
10 360 m 0
 10 376.56 23.4404 390 40 390 c 0
 56.5596 390 70 376.56 70 360 c 0
 70 343.44 56.5596 330 40 330 c 0
 23.4404 330 10 343.44 10 360 c 0
330 200 m 0
 330 216.56 343.44 230 360 230 c 0
 376.56 230 390 216.56 390 200 c 0
 390 183.44 376.56 170 360 170 c 0
 343.44 170 330 183.44 330 200 c 0
10 200 m 0
 10 216.56 23.4404 230 40 230 c 0
 56.5596 230 70 216.56 70 200 c 0
 70 183.44 56.5596 170 40 170 c 0
 23.4404 170 10 183.44 10 200 c 0
330 120 m 0
 330 136.56 343.44 150 360 150 c 0
 376.56 150 390 136.56 390 120 c 0
 390 103.44 376.56 90 360 90 c 0
 343.44 90 330 103.44 330 120 c 0
10 120 m 0
 10 136.56 23.4404 150 40 150 c 0
 56.5596 150 70 136.56 70 120 c 0
 70 103.44 56.5596 90 40 90 c 0
 23.4404 90 10 103.44 10 120 c 0
250 40 m 0
 250 56.5596 263.44 70 280 70 c 0
 296.56 70 310 56.5596 310 40 c 0
 310 23.4404 296.56 10 280 10 c 0
 263.44 10 250 23.4404 250 40 c 0
170 40 m 0
 170 56.5596 183.44 70 200 70 c 0
 216.56 70 230 56.5596 230 40 c 0
 230 23.4404 216.56 10 200 10 c 0
 183.44 10 170 23.4404 170 40 c 0
90 40 m 0
 90 56.5596 103.44 70 120 70 c 0
 136.56 70 150 56.5596 150 40 c 0
 150 23.4404 136.56 10 120 10 c 0
 103.44 10 90 23.4404 90 40 c 0
EndSplineSet
Validated: 1
EndChar

StartChar: one
Encoding: 49 49 28
Width: 480
Flags: HW
LayerCount: 2
Fore
SplineSet
170 520 m 0
 170 536.56 183.44 550 200 550 c 0
 216.56 550 230 536.56 230 520 c 0
 230 503.44 216.56 490 200 490 c 0
 183.44 490 170 503.44 170 520 c 0
170 440 m 0
 170 456.56 183.44 470 200 470 c 0
 216.56 470 230 456.56 230 440 c 0
 230 423.44 216.56 410 200 410 c 0
 183.44 410 170 423.44 170 440 c 0
90 440 m 0
 90 456.56 103.44 470 120 470 c 0
 136.56 470 150 456.56 150 440 c 0
 150 423.44 136.56 410 120 410 c 0
 103.44 410 90 423.44 90 440 c 0
170 280 m 0
 170 296.56 183.44 310 200 310 c 0
 216.56 310 230 296.56 230 280 c 0
 230 263.44 216.56 250 200 250 c 0
 183.44 250 170 263.44 170 280 c 0
170 360 m 0
 170 376.56 183.44 390 200 390 c 0
 216.56 390 230 376.56 230 360 c 0
 230 343.44 216.56 330 200 330 c 0
 183.44 330 170 343.44 170 360 c 0
170 200 m 0
 170 216.56 183.44 230 200 230 c 0
 216.56 230 230 216.56 230 200 c 0
 230 183.44 216.56 170 200 170 c 0
 183.44 170 170 183.44 170 200 c 0
170 120 m 0
 170 136.56 183.44 150 200 150 c 0
 216.56 150 230 136.56 230 120 c 0
 230 103.44 216.56 90 200 90 c 0
 183.44 90 170 103.44 170 120 c 0
250 40 m 0
 250 56.5596 263.44 70 280 70 c 0
 296.56 70 310 56.5596 310 40 c 0
 310 23.4404 296.56 10 280 10 c 0
 263.44 10 250 23.4404 250 40 c 0
170 40 m 0
 170 56.5596 183.44 70 200 70 c 0
 216.56 70 230 56.5596 230 40 c 0
 230 23.4404 216.56 10 200 10 c 0
 183.44 10 170 23.4404 170 40 c 0
90 40 m 0
 90 56.5596 103.44 70 120 70 c 0
 136.56 70 150 56.5596 150 40 c 0
 150 23.4404 136.56 10 120 10 c 0
 103.44 10 90 23.4404 90 40 c 0
EndSplineSet
Validated: 1
EndChar

StartChar: two
Encoding: 50 50 29
Width: 480
Flags: HW
LayerCount: 2
Fore
SplineSet
250 520 m 0
 250 536.56 263.44 550 280 550 c 0
 296.56 550 310 536.56 310 520 c 0
 310 503.44 296.56 490 280 490 c 0
 263.44 490 250 503.44 250 520 c 0
170 520 m 0
 170 536.56 183.44 550 200 550 c 0
 216.56 550 230 536.56 230 520 c 0
 230 503.44 216.56 490 200 490 c 0
 183.44 490 170 503.44 170 520 c 0
90 520 m 0
 90 536.56 103.44 550 120 550 c 0
 136.56 550 150 536.56 150 520 c 0
 150 503.44 136.56 490 120 490 c 0
 103.44 490 90 503.44 90 520 c 0
330 440 m 0
 330 456.56 343.44 470 360 470 c 0
 376.56 470 390 456.56 390 440 c 0
 390 423.44 376.56 410 360 410 c 0
 343.44 410 330 423.44 330 440 c 0
10 440 m 0
 10 456.56 23.4404 470 40 470 c 0
 56.5596 470 70 456.56 70 440 c 0
 70 423.44 56.5596 410 40 410 c 0
 23.4404 410 10 423.44 10 440 c 0
250 280 m 0
 250 296.56 263.44 310 280 310 c 0
 296.56 310 310 296.56 310 280 c 0
 310 263.44 296.56 250 280 250 c 0
 263.44 250 250 263.44 250 280 c 0
170 280 m 0
 170 296.56 183.44 310 200 310 c 0
 216.56 310 230 296.56 230 280 c 0
 230 263.44 216.56 250 200 250 c 0
 183.44 250 170 263.44 170 280 c 0
90 280 m 0
 90 296.56 103.44 310 120 310 c 0
 136.56 310 150 296.56 150 280 c 0
 150 263.44 136.56 250 120 250 c 0
 103.44 250 90 263.44 90 280 c 0
330 360 m 0
 330 376.56 343.44 390 360 390 c 0
 376.56 390 390 376.56 390 360 c 0
 390 343.44 376.56 330 360 330 c 0
 343.44 330 330 343.44 330 360 c 0
10 200 m 0
 10 216.56 23.4404 230 40 230 c 0
 56.5596 230 70 216.56 70 200 c 0
 70 183.44 56.5596 170 40 170 c 0
 23.4404 170 10 183.44 10 200 c 0
10 120 m 0
 10 136.56 23.4404 150 40 150 c 0
 56.5596 150 70 136.56 70 120 c 0
 70 103.44 56.5596 90 40 90 c 0
 23.4404 90 10 103.44 10 120 c 0
330 40 m 0
 330 56.5596 343.44 70 360 70 c 0
 376.56 70 390 56.5596 390 40 c 0
 390 23.4404 376.56 10 360 10 c 0
 343.44 10 330 23.4404 330 40 c 0
250 40 m 0
 250 56.5596 263.44 70 280 70 c 0
 296.56 70 310 56.5596 310 40 c 0
 310 23.4404 296.56 10 280 10 c 0
 263.44 10 250 23.4404 250 40 c 0
170 40 m 0
 170 56.5596 183.44 70 200 70 c 0
 216.56 70 230 56.5596 230 40 c 0
 230 23.4404 216.56 10 200 10 c 0
 183.44 10 170 23.4404 170 40 c 0
90 40 m 0
 90 56.5596 103.44 70 120 70 c 0
 136.56 70 150 56.5596 150 40 c 0
 150 23.4404 136.56 10 120 10 c 0
 103.44 10 90 23.4404 90 40 c 0
10 40 m 0
 10 56.5596 23.4404 70 40 70 c 0
 56.5596 70 70 56.5596 70 40 c 0
 70 23.4404 56.5596 10 40 10 c 0
 23.4404 10 10 23.4404 10 40 c 0
EndSplineSet
Validated: 1
EndChar

StartChar: three
Encoding: 51 51 30
Width: 480
Flags: HW
LayerCount: 2
Fore
SplineSet
330 520 m 0
 330 536.56 343.44 550 360 550 c 0
 376.56 550 390 536.56 390 520 c 0
 390 503.44 376.56 490 360 490 c 0
 343.44 490 330 503.44 330 520 c 0
250 520 m 0
 250 536.56 263.44 550 280 550 c 0
 296.56 550 310 536.56 310 520 c 0
 310 503.44 296.56 490 280 490 c 0
 263.44 490 250 503.44 250 520 c 0
170 520 m 0
 170 536.56 183.44 550 200 550 c 0
 216.56 550 230 536.56 230 520 c 0
 230 503.44 216.56 490 200 490 c 0
 183.44 490 170 503.44 170 520 c 0
90 520 m 0
 90 536.56 103.44 550 120 550 c 0
 136.56 550 150 536.56 150 520 c 0
 150 503.44 136.56 490 120 490 c 0
 103.44 490 90 503.44 90 520 c 0
10 520 m 0
 10 536.56 23.4404 550 40 550 c 0
 56.5596 550 70 536.56 70 520 c 0
 70 503.44 56.5596 490 40 490 c 0
 23.4404 490 10 503.44 10 520 c 0
330 440 m 0
 330 456.56 343.44 470 360 470 c 0
 376.56 470 390 456.56 390 440 c 0
 390 423.44 376.56 410 360 410 c 0
 343.44 410 330 423.44 330 440 c 0
250 280 m 0
 250 296.56 263.44 310 280 310 c 0
 296.56 310 310 296.56 310 280 c 0
 310 263.44 296.56 250 280 250 c 0
 263.44 250 250 263.44 250 280 c 0
170 280 m 0
 170 296.56 183.44 310 200 310 c 0
 216.56 310 230 296.56 230 280 c 0
 230 263.44 216.56 250 200 250 c 0
 183.44 250 170 263.44 170 280 c 0
330 360 m 0
 330 376.56 343.44 390 360 390 c 0
 376.56 390 390 376.56 390 360 c 0
 390 343.44 376.56 330 360 330 c 0
 343.44 330 330 343.44 330 360 c 0
330 200 m 0
 330 216.56 343.44 230 360 230 c 0
 376.56 230 390 216.56 390 200 c 0
 390 183.44 376.56 170 360 170 c 0
 343.44 170 330 183.44 330 200 c 0
330 120 m 0
 330 136.56 343.44 150 360 150 c 0
 376.56 150 390 136.56 390 120 c 0
 390 103.44 376.56 90 360 90 c 0
 343.44 90 330 103.44 330 120 c 0
10 120 m 0
 10 136.56 23.4404 150 40 150 c 0
 56.5596 150 70 136.56 70 120 c 0
 70 103.44 56.5596 90 40 90 c 0
 23.4404 90 10 103.44 10 120 c 0
250 40 m 0
 250 56.5596 263.44 70 280 70 c 0
 296.56 70 310 56.5596 310 40 c 0
 310 23.4404 296.56 10 280 10 c 0
 263.44 10 250 23.4404 250 40 c 0
170 40 m 0
 170 56.5596 183.44 70 200 70 c 0
 216.56 70 230 56.5596 230 40 c 0
 230 23.4404 216.56 10 200 10 c 0
 183.44 10 170 23.4404 170 40 c 0
90 40 m 0
 90 56.5596 103.44 70 120 70 c 0
 136.56 70 150 56.5596 150 40 c 0
 150 23.4404 136.56 10 120 10 c 0
 103.44 10 90 23.4404 90 40 c 0
EndSplineSet
Validated: 1
EndChar

StartChar: four
Encoding: 52 52 31
Width: 480
Flags: HW
LayerCount: 2
Fore
SplineSet
250 520 m 0
 250 536.56 263.44 550 280 550 c 0
 296.56 550 310 536.56 310 520 c 0
 310 503.44 296.56 490 280 490 c 0
 263.44 490 250 503.44 250 520 c 0
250 440 m 0
 250 456.56 263.44 470 280 470 c 0
 296.56 470 310 456.56 310 440 c 0
 310 423.44 296.56 410 280 410 c 0
 263.44 410 250 423.44 250 440 c 0
170 440 m 0
 170 456.56 183.44 470 200 470 c 0
 216.56 470 230 456.56 230 440 c 0
 230 423.44 216.56 410 200 410 c 0
 183.44 410 170 423.44 170 440 c 0
250 280 m 0
 250 296.56 263.44 310 280 310 c 0
 296.56 310 310 296.56 310 280 c 0
 310 263.44 296.56 250 280 250 c 0
 263.44 250 250 263.44 250 280 c 0
10 280 m 0
 10 296.56 23.4404 310 40 310 c 0
 56.5596 310 70 296.56 70 280 c 0
 70 263.44 56.5596 250 40 250 c 0
 23.4404 250 10 263.44 10 280 c 0
250 360 m 0
 250 376.56 263.44 390 280 390 c 0
 296.56 390 310 376.56 310 360 c 0
 310 343.44 296.56 330 280 330 c 0
 263.44 330 250 343.44 250 360 c 0
90 360 m 0
 90 376.56 103.44 390 120 390 c 0
 136.56 390 150 376.56 150 360 c 0
 150 343.44 136.56 330 120 330 c 0
 103.44 330 90 343.44 90 360 c 0
330 200 m 0
 330 216.56 343.44 230 360 230 c 0
 376.56 230 390 216.56 390 200 c 0
 390 183.44 376.56 170 360 170 c 0
 343.44 170 330 183.44 330 200 c 0
250 200 m 0
 250 216.56 263.44 230 280 230 c 0
 296.56 230 310 216.56 310 200 c 0
 310 183.44 296.56 170 280 170 c 0
 263.44 170 250 183.44 250 200 c 0
170 200 m 0
 170 216.56 183.44 230 200 230 c 0
 216.56 230 230 216.56 230 200 c 0
 230 183.44 216.56 170 200 170 c 0
 183.44 170 170 183.44 170 200 c 0
90 200 m 0
 90 216.56 103.44 230 120 230 c 0
 136.56 230 150 216.56 150 200 c 0
 150 183.44 136.56 170 120 170 c 0
 103.44 170 90 183.44 90 200 c 0
10 200 m 0
 10 216.56 23.4404 230 40 230 c 0
 56.5596 230 70 216.56 70 200 c 0
 70 183.44 56.5596 170 40 170 c 0
 23.4404 170 10 183.44 10 200 c 0
250 120 m 0
 250 136.56 263.44 150 280 150 c 0
 296.56 150 310 136.56 310 120 c 0
 310 103.44 296.56 90 280 90 c 0
 263.44 90 250 103.44 250 120 c 0
250 40 m 0
 250 56.5596 263.44 70 280 70 c 0
 296.56 70 310 56.5596 310 40 c 0
 310 23.4404 296.56 10 280 10 c 0
 263.44 10 250 23.4404 250 40 c 0
EndSplineSet
Validated: 1
EndChar

StartChar: five
Encoding: 53 53 32
Width: 480
Flags: HW
LayerCount: 2
Fore
SplineSet
330 520 m 0
 330 536.56 343.44 550 360 550 c 0
 376.56 550 390 536.56 390 520 c 0
 390 503.44 376.56 490 360 490 c 0
 343.44 490 330 503.44 330 520 c 0
250 520 m 0
 250 536.56 263.44 550 280 550 c 0
 296.56 550 310 536.56 310 520 c 0
 310 503.44 296.56 490 280 490 c 0
 263.44 490 250 503.44 250 520 c 0
170 520 m 0
 170 536.56 183.44 550 200 550 c 0
 216.56 550 230 536.56 230 520 c 0
 230 503.44 216.56 490 200 490 c 0
 183.44 490 170 503.44 170 520 c 0
90 520 m 0
 90 536.56 103.44 550 120 550 c 0
 136.56 550 150 536.56 150 520 c 0
 150 503.44 136.56 490 120 490 c 0
 103.44 490 90 503.44 90 520 c 0
10 520 m 0
 10 536.56 23.4404 550 40 550 c 0
 56.5596 550 70 536.56 70 520 c 0
 70 503.44 56.5596 490 40 490 c 0
 23.4404 490 10 503.44 10 520 c 0
10 440 m 0
 10 456.56 23.4404 470 40 470 c 0
 56.5596 470 70 456.56 70 440 c 0
 70 423.44 56.5596 410 40 410 c 0
 23.4404 410 10 423.44 10 440 c 0
330 280 m 0
 330 296.56 343.44 310 360 310 c 0
 376.56 310 390 296.56 390 280 c 0
 390 263.44 376.56 250 360 250 c 0
 343.44 250 330 263.44 330 280 c 0
250 360 m 0
 250 376.56 263.44 390 280 390 c 0
 296.56 390 310 376.56 310 360 c 0
 310 343.44 296.56 330 280 330 c 0
 263.44 330 250 343.44 250 360 c 0
170 360 m 0
 170 376.56 183.44 390 200 390 c 0
 216.56 390 230 376.56 230 360 c 0
 230 343.44 216.56 330 200 330 c 0
 183.44 330 170 343.44 170 360 c 0
90 360 m 0
 90 376.56 103.44 390 120 390 c 0
 136.56 390 150 376.56 150 360 c 0
 150 343.44 136.56 330 120 330 c 0
 103.44 330 90 343.44 90 360 c 0
10 360 m 0
 10 376.56 23.4404 390 40 390 c 0
 56.5596 390 70 376.56 70 360 c 0
 70 343.44 56.5596 330 40 330 c 0
 23.4404 330 10 343.44 10 360 c 0
330 200 m 0
 330 216.56 343.44 230 360 230 c 0
 376.56 230 390 216.56 390 200 c 0
 390 183.44 376.56 170 360 170 c 0
 343.44 170 330 183.44 330 200 c 0
330 120 m 0
 330 136.56 343.44 150 360 150 c 0
 376.56 150 390 136.56 390 120 c 0
 390 103.44 376.56 90 360 90 c 0
 343.44 90 330 103.44 330 120 c 0
10 120 m 0
 10 136.56 23.4404 150 40 150 c 0
 56.5596 150 70 136.56 70 120 c 0
 70 103.44 56.5596 90 40 90 c 0
 23.4404 90 10 103.44 10 120 c 0
250 40 m 0
 250 56.5596 263.44 70 280 70 c 0
 296.56 70 310 56.5596 310 40 c 0
 310 23.4404 296.56 10 280 10 c 0
 263.44 10 250 23.4404 250 40 c 0
170 40 m 0
 170 56.5596 183.44 70 200 70 c 0
 216.56 70 230 56.5596 230 40 c 0
 230 23.4404 216.56 10 200 10 c 0
 183.44 10 170 23.4404 170 40 c 0
90 40 m 0
 90 56.5596 103.44 70 120 70 c 0
 136.56 70 150 56.5596 150 40 c 0
 150 23.4404 136.56 10 120 10 c 0
 103.44 10 90 23.4404 90 40 c 0
EndSplineSet
Validated: 1
EndChar

StartChar: six
Encoding: 54 54 33
Width: 480
Flags: HW
LayerCount: 2
Fore
SplineSet
330 520 m 0
 330 536.56 343.44 550 360 550 c 0
 376.56 550 390 536.56 390 520 c 0
 390 503.44 376.56 490 360 490 c 0
 343.44 490 330 503.44 330 520 c 0
250 520 m 0
 250 536.56 263.44 550 280 550 c 0
 296.56 550 310 536.56 310 520 c 0
 310 503.44 296.56 490 280 490 c 0
 263.44 490 250 503.44 250 520 c 0
170 520 m 0
 170 536.56 183.44 550 200 550 c 0
 216.56 550 230 536.56 230 520 c 0
 230 503.44 216.56 490 200 490 c 0
 183.44 490 170 503.44 170 520 c 0
90 440 m 0
 90 456.56 103.44 470 120 470 c 0
 136.56 470 150 456.56 150 440 c 0
 150 423.44 136.56 410 120 410 c 0
 103.44 410 90 423.44 90 440 c 0
250 280 m 0
 250 296.56 263.44 310 280 310 c 0
 296.56 310 310 296.56 310 280 c 0
 310 263.44 296.56 250 280 250 c 0
 263.44 250 250 263.44 250 280 c 0
170 280 m 0
 170 296.56 183.44 310 200 310 c 0
 216.56 310 230 296.56 230 280 c 0
 230 263.44 216.56 250 200 250 c 0
 183.44 250 170 263.44 170 280 c 0
90 280 m 0
 90 296.56 103.44 310 120 310 c 0
 136.56 310 150 296.56 150 280 c 0
 150 263.44 136.56 250 120 250 c 0
 103.44 250 90 263.44 90 280 c 0
10 280 m 0
 10 296.56 23.4404 310 40 310 c 0
 56.5596 310 70 296.56 70 280 c 0
 70 263.44 56.5596 250 40 250 c 0
 23.4404 250 10 263.44 10 280 c 0
10 360 m 0
 10 376.56 23.4404 390 40 390 c 0
 56.5596 390 70 376.56 70 360 c 0
 70 343.44 56.5596 330 40 330 c 0
 23.4404 330 10 343.44 10 360 c 0
330 200 m 0
 330 216.56 343.44 230 360 230 c 0
 376.56 230 390 216.56 390 200 c 0
 390 183.44 376.56 170 360 170 c 0
 343.44 170 330 183.44 330 200 c 0
10 200 m 0
 10 216.56 23.4404 230 40 230 c 0
 56.5596 230 70 216.56 70 200 c 0
 70 183.44 56.5596 170 40 170 c 0
 23.4404 170 10 183.44 10 200 c 0
330 120 m 0
 330 136.56 343.44 150 360 150 c 0
 376.56 150 390 136.56 390 120 c 0
 390 103.44 376.56 90 360 90 c 0
 343.44 90 330 103.44 330 120 c 0
10 120 m 0
 10 136.56 23.4404 150 40 150 c 0
 56.5596 150 70 136.56 70 120 c 0
 70 103.44 56.5596 90 40 90 c 0
 23.4404 90 10 103.44 10 120 c 0
250 40 m 0
 250 56.5596 263.44 70 280 70 c 0
 296.56 70 310 56.5596 310 40 c 0
 310 23.4404 296.56 10 280 10 c 0
 263.44 10 250 23.4404 250 40 c 0
170 40 m 0
 170 56.5596 183.44 70 200 70 c 0
 216.56 70 230 56.5596 230 40 c 0
 230 23.4404 216.56 10 200 10 c 0
 183.44 10 170 23.4404 170 40 c 0
90 40 m 0
 90 56.5596 103.44 70 120 70 c 0
 136.56 70 150 56.5596 150 40 c 0
 150 23.4404 136.56 10 120 10 c 0
 103.44 10 90 23.4404 90 40 c 0
EndSplineSet
Validated: 1
EndChar

StartChar: seven
Encoding: 55 55 34
Width: 480
Flags: HW
LayerCount: 2
Fore
SplineSet
330 520 m 0
 330 536.56 343.44 550 360 550 c 0
 376.56 550 390 536.56 390 520 c 0
 390 503.44 376.56 490 360 490 c 0
 343.44 490 330 503.44 330 520 c 0
250 520 m 0
 250 536.56 263.44 550 280 550 c 0
 296.56 550 310 536.56 310 520 c 0
 310 503.44 296.56 490 280 490 c 0
 263.44 490 250 503.44 250 520 c 0
170 520 m 0
 170 536.56 183.44 550 200 550 c 0
 216.56 550 230 536.56 230 520 c 0
 230 503.44 216.56 490 200 490 c 0
 183.44 490 170 503.44 170 520 c 0
90 520 m 0
 90 536.56 103.44 550 120 550 c 0
 136.56 550 150 536.56 150 520 c 0
 150 503.44 136.56 490 120 490 c 0
 103.44 490 90 503.44 90 520 c 0
10 520 m 0
 10 536.56 23.4404 550 40 550 c 0
 56.5596 550 70 536.56 70 520 c 0
 70 503.44 56.5596 490 40 490 c 0
 23.4404 490 10 503.44 10 520 c 0
330 440 m 0
 330 456.56 343.44 470 360 470 c 0
 376.56 470 390 456.56 390 440 c 0
 390 423.44 376.56 410 360 410 c 0
 343.44 410 330 423.44 330 440 c 0
250 280 m 0
 250 296.56 263.44 310 280 310 c 0
 296.56 310 310 296.56 310 280 c 0
 310 263.44 296.56 250 280 250 c 0
 263.44 250 250 263.44 250 280 c 0
330 360 m 0
 330 376.56 343.44 390 360 390 c 0
 376.56 390 390 376.56 390 360 c 0
 390 343.44 376.56 330 360 330 c 0
 343.44 330 330 343.44 330 360 c 0
170 200 m 0
 170 216.56 183.44 230 200 230 c 0
 216.56 230 230 216.56 230 200 c 0
 230 183.44 216.56 170 200 170 c 0
 183.44 170 170 183.44 170 200 c 0
90 120 m 0
 90 136.56 103.44 150 120 150 c 0
 136.56 150 150 136.56 150 120 c 0
 150 103.44 136.56 90 120 90 c 0
 103.44 90 90 103.44 90 120 c 0
10 40 m 0
 10 56.5596 23.4404 70 40 70 c 0
 56.5596 70 70 56.5596 70 40 c 0
 70 23.4404 56.5596 10 40 10 c 0
 23.4404 10 10 23.4404 10 40 c 0
EndSplineSet
Validated: 1
EndChar

StartChar: eight
Encoding: 56 56 35
Width: 480
Flags: HW
LayerCount: 2
Fore
SplineSet
250 520 m 0
 250 536.56 263.44 550 280 550 c 0
 296.56 550 310 536.56 310 520 c 0
 310 503.44 296.56 490 280 490 c 0
 263.44 490 250 503.44 250 520 c 0
170 520 m 0
 170 536.56 183.44 550 200 550 c 0
 216.56 550 230 536.56 230 520 c 0
 230 503.44 216.56 490 200 490 c 0
 183.44 490 170 503.44 170 520 c 0
90 520 m 0
 90 536.56 103.44 550 120 550 c 0
 136.56 550 150 536.56 150 520 c 0
 150 503.44 136.56 490 120 490 c 0
 103.44 490 90 503.44 90 520 c 0
330 440 m 0
 330 456.56 343.44 470 360 470 c 0
 376.56 470 390 456.56 390 440 c 0
 390 423.44 376.56 410 360 410 c 0
 343.44 410 330 423.44 330 440 c 0
10 440 m 0
 10 456.56 23.4404 470 40 470 c 0
 56.5596 470 70 456.56 70 440 c 0
 70 423.44 56.5596 410 40 410 c 0
 23.4404 410 10 423.44 10 440 c 0
250 280 m 0
 250 296.56 263.44 310 280 310 c 0
 296.56 310 310 296.56 310 280 c 0
 310 263.44 296.56 250 280 250 c 0
 263.44 250 250 263.44 250 280 c 0
170 280 m 0
 170 296.56 183.44 310 200 310 c 0
 216.56 310 230 296.56 230 280 c 0
 230 263.44 216.56 250 200 250 c 0
 183.44 250 170 263.44 170 280 c 0
90 280 m 0
 90 296.56 103.44 310 120 310 c 0
 136.56 310 150 296.56 150 280 c 0
 150 263.44 136.56 250 120 250 c 0
 103.44 250 90 263.44 90 280 c 0
330 360 m 0
 330 376.56 343.44 390 360 390 c 0
 376.56 390 390 376.56 390 360 c 0
 390 343.44 376.56 330 360 330 c 0
 343.44 330 330 343.44 330 360 c 0
10 360 m 0
 10 376.56 23.4404 390 40 390 c 0
 56.5596 390 70 376.56 70 360 c 0
 70 343.44 56.5596 330 40 330 c 0
 23.4404 330 10 343.44 10 360 c 0
330 200 m 0
 330 216.56 343.44 230 360 230 c 0
 376.56 230 390 216.56 390 200 c 0
 390 183.44 376.56 170 360 170 c 0
 343.44 170 330 183.44 330 200 c 0
10 200 m 0
 10 216.56 23.4404 230 40 230 c 0
 56.5596 230 70 216.56 70 200 c 0
 70 183.44 56.5596 170 40 170 c 0
 23.4404 170 10 183.44 10 200 c 0
330 120 m 0
 330 136.56 343.44 150 360 150 c 0
 376.56 150 390 136.56 390 120 c 0
 390 103.44 376.56 90 360 90 c 0
 343.44 90 330 103.44 330 120 c 0
10 120 m 0
 10 136.56 23.4404 150 40 150 c 0
 56.5596 150 70 136.56 70 120 c 0
 70 103.44 56.5596 90 40 90 c 0
 23.4404 90 10 103.44 10 120 c 0
250 40 m 0
 250 56.5596 263.44 70 280 70 c 0
 296.56 70 310 56.5596 310 40 c 0
 310 23.4404 296.56 10 280 10 c 0
 263.44 10 250 23.4404 250 40 c 0
170 40 m 0
 170 56.5596 183.44 70 200 70 c 0
 216.56 70 230 56.5596 230 40 c 0
 230 23.4404 216.56 10 200 10 c 0
 183.44 10 170 23.4404 170 40 c 0
90 40 m 0
 90 56.5596 103.44 70 120 70 c 0
 136.56 70 150 56.5596 150 40 c 0
 150 23.4404 136.56 10 120 10 c 0
 103.44 10 90 23.4404 90 40 c 0
EndSplineSet
Validated: 1
EndChar

StartChar: nine
Encoding: 57 57 36
Width: 480
Flags: HW
LayerCount: 2
Fore
SplineSet
250 520 m 0
 250 536.56 263.44 550 280 550 c 0
 296.56 550 310 536.56 310 520 c 0
 310 503.44 296.56 490 280 490 c 0
 263.44 490 250 503.44 250 520 c 0
170 520 m 0
 170 536.56 183.44 550 200 550 c 0
 216.56 550 230 536.56 230 520 c 0
 230 503.44 216.56 490 200 490 c 0
 183.44 490 170 503.44 170 520 c 0
90 520 m 0
 90 536.56 103.44 550 120 550 c 0
 136.56 550 150 536.56 150 520 c 0
 150 503.44 136.56 490 120 490 c 0
 103.44 490 90 503.44 90 520 c 0
330 440 m 0
 330 456.56 343.44 470 360 470 c 0
 376.56 470 390 456.56 390 440 c 0
 390 423.44 376.56 410 360 410 c 0
 343.44 410 330 423.44 330 440 c 0
10 440 m 0
 10 456.56 23.4404 470 40 470 c 0
 56.5596 470 70 456.56 70 440 c 0
 70 423.44 56.5596 410 40 410 c 0
 23.4404 410 10 423.44 10 440 c 0
330 280 m 0
 330 296.56 343.44 310 360 310 c 0
 376.56 310 390 296.56 390 280 c 0
 390 263.44 376.56 250 360 250 c 0
 343.44 250 330 263.44 330 280 c 0
250 280 m 0
 250 296.56 263.44 310 280 310 c 0
 296.56 310 310 296.56 310 280 c 0
 310 263.44 296.56 250 280 250 c 0
 263.44 250 250 263.44 250 280 c 0
170 280 m 0
 170 296.56 183.44 310 200 310 c 0
 216.56 310 230 296.56 230 280 c 0
 230 263.44 216.56 250 200 250 c 0
 183.44 250 170 263.44 170 280 c 0
90 280 m 0
 90 296.56 103.44 310 120 310 c 0
 136.56 310 150 296.56 150 280 c 0
 150 263.44 136.56 250 120 250 c 0
 103.44 250 90 263.44 90 280 c 0
330 360 m 0
 330 376.56 343.44 390 360 390 c 0
 376.56 390 390 376.56 390 360 c 0
 390 343.44 376.56 330 360 330 c 0
 343.44 330 330 343.44 330 360 c 0
10 360 m 0
 10 376.56 23.4404 390 40 390 c 0
 56.5596 390 70 376.56 70 360 c 0
 70 343.44 56.5596 330 40 330 c 0
 23.4404 330 10 343.44 10 360 c 0
330 200 m 0
 330 216.56 343.44 230 360 230 c 0
 376.56 230 390 216.56 390 200 c 0
 390 183.44 376.56 170 360 170 c 0
 343.44 170 330 183.44 330 200 c 0
250 120 m 0
 250 136.56 263.44 150 280 150 c 0
 296.56 150 310 136.56 310 120 c 0
 310 103.44 296.56 90 280 90 c 0
 263.44 90 250 103.44 250 120 c 0
170 40 m 0
 170 56.5596 183.44 70 200 70 c 0
 216.56 70 230 56.5596 230 40 c 0
 230 23.4404 216.56 10 200 10 c 0
 183.44 10 170 23.4404 170 40 c 0
90 40 m 0
 90 56.5596 103.44 70 120 70 c 0
 136.56 70 150 56.5596 150 40 c 0
 150 23.4404 136.56 10 120 10 c 0
 103.44 10 90 23.4404 90 40 c 0
10 40 m 0
 10 56.5596 23.4404 70 40 70 c 0
 56.5596 70 70 56.5596 70 40 c 0
 70 23.4404 56.5596 10 40 10 c 0
 23.4404 10 10 23.4404 10 40 c 0
EndSplineSet
Validated: 1
EndChar

StartChar: colon
Encoding: 58 58 37
Width: 480
Flags: HW
LayerCount: 2
Fore
SplineSet
170 440 m 0
 170 456.56 183.44 470 200 470 c 0
 216.56 470 230 456.56 230 440 c 0
 230 423.44 216.56 410 200 410 c 0
 183.44 410 170 423.44 170 440 c 0
90 440 m 0
 90 456.56 103.44 470 120 470 c 0
 136.56 470 150 456.56 150 440 c 0
 150 423.44 136.56 410 120 410 c 0
 103.44 410 90 423.44 90 440 c 0
170 360 m 0
 170 376.56 183.44 390 200 390 c 0
 216.56 390 230 376.56 230 360 c 0
 230 343.44 216.56 330 200 330 c 0
 183.44 330 170 343.44 170 360 c 0
90 360 m 0
 90 376.56 103.44 390 120 390 c 0
 136.56 390 150 376.56 150 360 c 0
 150 343.44 136.56 330 120 330 c 0
 103.44 330 90 343.44 90 360 c 0
170 200 m 0
 170 216.56 183.44 230 200 230 c 0
 216.56 230 230 216.56 230 200 c 0
 230 183.44 216.56 170 200 170 c 0
 183.44 170 170 183.44 170 200 c 0
90 200 m 0
 90 216.56 103.44 230 120 230 c 0
 136.56 230 150 216.56 150 200 c 0
 150 183.44 136.56 170 120 170 c 0
 103.44 170 90 183.44 90 200 c 0
170 120 m 0
 170 136.56 183.44 150 200 150 c 0
 216.56 150 230 136.56 230 120 c 0
 230 103.44 216.56 90 200 90 c 0
 183.44 90 170 103.44 170 120 c 0
90 120 m 0
 90 136.56 103.44 150 120 150 c 0
 136.56 150 150 136.56 150 120 c 0
 150 103.44 136.56 90 120 90 c 0
 103.44 90 90 103.44 90 120 c 0
EndSplineSet
Validated: 1
EndChar

StartChar: Ntilde
Encoding: 209 209 38
Width: 480
Flags: HW
LayerCount: 2
Fore
SplineSet
330 520 m 0
 330 536.56 343.44 550 360 550 c 0
 376.56 550 390 536.56 390 520 c 0
 390 503.44 376.56 490 360 490 c 0
 343.44 490 330 503.44 330 520 c 0
250 520 m 0
 250 536.56 263.44 550 280 550 c 0
 296.56 550 310 536.56 310 520 c 0
 310 503.44 296.56 490 280 490 c 0
 263.44 490 250 503.44 250 520 c 0
170 520 m 0
 170 536.56 183.44 550 200 550 c 0
 216.56 550 230 536.56 230 520 c 0
 230 503.44 216.56 490 200 490 c 0
 183.44 490 170 503.44 170 520 c 0
90 520 m 0
 90 536.56 103.44 550 120 550 c 0
 136.56 550 150 536.56 150 520 c 0
 150 503.44 136.56 490 120 490 c 0
 103.44 490 90 503.44 90 520 c 0
10 520 m 0
 10 536.56 23.4404 550 40 550 c 0
 56.5596 550 70 536.56 70 520 c 0
 70 503.44 56.5596 490 40 490 c 0
 23.4404 490 10 503.44 10 520 c 0
330 280 m 0
 330 296.56 343.44 310 360 310 c 0
 376.56 310 390 296.56 390 280 c 0
 390 263.44 376.56 250 360 250 c 0
 343.44 250 330 263.44 330 280 c 0
90 280 m 0
 90 296.56 103.44 310 120 310 c 0
 136.56 310 150 296.56 150 280 c 0
 150 263.44 136.56 250 120 250 c 0
 103.44 250 90 263.44 90 280 c 0
10 280 m 0
 10 296.56 23.4404 310 40 310 c 0
 56.5596 310 70 296.56 70 280 c 0
 70 263.44 56.5596 250 40 250 c 0
 23.4404 250 10 263.44 10 280 c 0
330 360 m 0
 330 376.56 343.44 390 360 390 c 0
 376.56 390 390 376.56 390 360 c 0
 390 343.44 376.56 330 360 330 c 0
 343.44 330 330 343.44 330 360 c 0
10 360 m 0
 10 376.56 23.4404 390 40 390 c 0
 56.5596 390 70 376.56 70 360 c 0
 70 343.44 56.5596 330 40 330 c 0
 23.4404 330 10 343.44 10 360 c 0
330 200 m 0
 330 216.56 343.44 230 360 230 c 0
 376.56 230 390 216.56 390 200 c 0
 390 183.44 376.56 170 360 170 c 0
 343.44 170 330 183.44 330 200 c 0
170 200 m 0
 170 216.56 183.44 230 200 230 c 0
 216.56 230 230 216.56 230 200 c 0
 230 183.44 216.56 170 200 170 c 0
 183.44 170 170 183.44 170 200 c 0
10 200 m 0
 10 216.56 23.4404 230 40 230 c 0
 56.5596 230 70 216.56 70 200 c 0
 70 183.44 56.5596 170 40 170 c 0
 23.4404 170 10 183.44 10 200 c 0
330 120 m 0
 330 136.56 343.44 150 360 150 c 0
 376.56 150 390 136.56 390 120 c 0
 390 103.44 376.56 90 360 90 c 0
 343.44 90 330 103.44 330 120 c 0
250 120 m 0
 250 136.56 263.44 150 280 150 c 0
 296.56 150 310 136.56 310 120 c 0
 310 103.44 296.56 90 280 90 c 0
 263.44 90 250 103.44 250 120 c 0
10 120 m 0
 10 136.56 23.4404 150 40 150 c 0
 56.5596 150 70 136.56 70 120 c 0
 70 103.44 56.5596 90 40 90 c 0
 23.4404 90 10 103.44 10 120 c 0
330 40 m 0
 330 56.5596 343.44 70 360 70 c 0
 376.56 70 390 56.5596 390 40 c 0
 390 23.4404 376.56 10 360 10 c 0
 343.44 10 330 23.4404 330 40 c 0
10 40 m 0
 10 56.5596 23.4404 70 40 70 c 0
 56.5596 70 70 56.5596 70 40 c 0
 70 23.4404 56.5596 10 40 10 c 0
 23.4404 10 10 23.4404 10 40 c 0
EndSplineSet
Validated: 1
EndChar

StartChar: uni0002
Encoding: 2 2 39
Width: 480
Flags: HW
LayerCount: 2
Fore
SplineSet
330 520 m 0
 330 536.56 343.44 550 360 550 c 0
 376.56 550 390 536.56 390 520 c 0
 390 503.44 376.56 490 360 490 c 0
 343.44 490 330 503.44 330 520 c 0
250 520 m 0
 250 536.56 263.44 550 280 550 c 0
 296.56 550 310 536.56 310 520 c 0
 310 503.44 296.56 490 280 490 c 0
 263.44 490 250 503.44 250 520 c 0
170 520 m 0
 170 536.56 183.44 550 200 550 c 0
 216.56 550 230 536.56 230 520 c 0
 230 503.44 216.56 490 200 490 c 0
 183.44 490 170 503.44 170 520 c 0
90 520 m 0
 90 536.56 103.44 550 120 550 c 0
 136.56 550 150 536.56 150 520 c 0
 150 503.44 136.56 490 120 490 c 0
 103.44 490 90 503.44 90 520 c 0
10 520 m 0
 10 536.56 23.4404 550 40 550 c 0
 56.5596 550 70 536.56 70 520 c 0
 70 503.44 56.5596 490 40 490 c 0
 23.4404 490 10 503.44 10 520 c 0
330 440 m 0
 330 456.56 343.44 470 360 470 c 0
 376.56 470 390 456.56 390 440 c 0
 390 423.44 376.56 410 360 410 c 0
 343.44 410 330 423.44 330 440 c 0
250 440 m 0
 250 456.56 263.44 470 280 470 c 0
 296.56 470 310 456.56 310 440 c 0
 310 423.44 296.56 410 280 410 c 0
 263.44 410 250 423.44 250 440 c 0
170 440 m 0
 170 456.56 183.44 470 200 470 c 0
 216.56 470 230 456.56 230 440 c 0
 230 423.44 216.56 410 200 410 c 0
 183.44 410 170 423.44 170 440 c 0
90 440 m 0
 90 456.56 103.44 470 120 470 c 0
 136.56 470 150 456.56 150 440 c 0
 150 423.44 136.56 410 120 410 c 0
 103.44 410 90 423.44 90 440 c 0
10 440 m 0
 10 456.56 23.4404 470 40 470 c 0
 56.5596 470 70 456.56 70 440 c 0
 70 423.44 56.5596 410 40 410 c 0
 23.4404 410 10 423.44 10 440 c 0
330 280 m 0
 330 296.56 343.44 310 360 310 c 0
 376.56 310 390 296.56 390 280 c 0
 390 263.44 376.56 250 360 250 c 0
 343.44 250 330 263.44 330 280 c 0
250 280 m 0
 250 296.56 263.44 310 280 310 c 0
 296.56 310 310 296.56 310 280 c 0
 310 263.44 296.56 250 280 250 c 0
 263.44 250 250 263.44 250 280 c 0
170 280 m 0
 170 296.56 183.44 310 200 310 c 0
 216.56 310 230 296.56 230 280 c 0
 230 263.44 216.56 250 200 250 c 0
 183.44 250 170 263.44 170 280 c 0
90 280 m 0
 90 296.56 103.44 310 120 310 c 0
 136.56 310 150 296.56 150 280 c 0
 150 263.44 136.56 250 120 250 c 0
 103.44 250 90 263.44 90 280 c 0
10 280 m 0
 10 296.56 23.4404 310 40 310 c 0
 56.5596 310 70 296.56 70 280 c 0
 70 263.44 56.5596 250 40 250 c 0
 23.4404 250 10 263.44 10 280 c 0
330 360 m 0
 330 376.56 343.44 390 360 390 c 0
 376.56 390 390 376.56 390 360 c 0
 390 343.44 376.56 330 360 330 c 0
 343.44 330 330 343.44 330 360 c 0
250 360 m 0
 250 376.56 263.44 390 280 390 c 0
 296.56 390 310 376.56 310 360 c 0
 310 343.44 296.56 330 280 330 c 0
 263.44 330 250 343.44 250 360 c 0
170 360 m 0
 170 376.56 183.44 390 200 390 c 0
 216.56 390 230 376.56 230 360 c 0
 230 343.44 216.56 330 200 330 c 0
 183.44 330 170 343.44 170 360 c 0
90 360 m 0
 90 376.56 103.44 390 120 390 c 0
 136.56 390 150 376.56 150 360 c 0
 150 343.44 136.56 330 120 330 c 0
 103.44 330 90 343.44 90 360 c 0
10 360 m 0
 10 376.56 23.4404 390 40 390 c 0
 56.5596 390 70 376.56 70 360 c 0
 70 343.44 56.5596 330 40 330 c 0
 23.4404 330 10 343.44 10 360 c 0
330 200 m 0
 330 216.56 343.44 230 360 230 c 0
 376.56 230 390 216.56 390 200 c 0
 390 183.44 376.56 170 360 170 c 0
 343.44 170 330 183.44 330 200 c 0
250 200 m 0
 250 216.56 263.44 230 280 230 c 0
 296.56 230 310 216.56 310 200 c 0
 310 183.44 296.56 170 280 170 c 0
 263.44 170 250 183.44 250 200 c 0
170 200 m 0
 170 216.56 183.44 230 200 230 c 0
 216.56 230 230 216.56 230 200 c 0
 230 183.44 216.56 170 200 170 c 0
 183.44 170 170 183.44 170 200 c 0
90 200 m 0
 90 216.56 103.44 230 120 230 c 0
 136.56 230 150 216.56 150 200 c 0
 150 183.44 136.56 170 120 170 c 0
 103.44 170 90 183.44 90 200 c 0
10 200 m 0
 10 216.56 23.4404 230 40 230 c 0
 56.5596 230 70 216.56 70 200 c 0
 70 183.44 56.5596 170 40 170 c 0
 23.4404 170 10 183.44 10 200 c 0
330 120 m 0
 330 136.56 343.44 150 360 150 c 0
 376.56 150 390 136.56 390 120 c 0
 390 103.44 376.56 90 360 90 c 0
 343.44 90 330 103.44 330 120 c 0
250 120 m 0
 250 136.56 263.44 150 280 150 c 0
 296.56 150 310 136.56 310 120 c 0
 310 103.44 296.56 90 280 90 c 0
 263.44 90 250 103.44 250 120 c 0
170 120 m 0
 170 136.56 183.44 150 200 150 c 0
 216.56 150 230 136.56 230 120 c 0
 230 103.44 216.56 90 200 90 c 0
 183.44 90 170 103.44 170 120 c 0
90 120 m 0
 90 136.56 103.44 150 120 150 c 0
 136.56 150 150 136.56 150 120 c 0
 150 103.44 136.56 90 120 90 c 0
 103.44 90 90 103.44 90 120 c 0
10 120 m 0
 10 136.56 23.4404 150 40 150 c 0
 56.5596 150 70 136.56 70 120 c 0
 70 103.44 56.5596 90 40 90 c 0
 23.4404 90 10 103.44 10 120 c 0
330 40 m 0
 330 56.5596 343.44 70 360 70 c 0
 376.56 70 390 56.5596 390 40 c 0
 390 23.4404 376.56 10 360 10 c 0
 343.44 10 330 23.4404 330 40 c 0
250 40 m 0
 250 56.5596 263.44 70 280 70 c 0
 296.56 70 310 56.5596 310 40 c 0
 310 23.4404 296.56 10 280 10 c 0
 263.44 10 250 23.4404 250 40 c 0
170 40 m 0
 170 56.5596 183.44 70 200 70 c 0
 216.56 70 230 56.5596 230 40 c 0
 230 23.4404 216.56 10 200 10 c 0
 183.44 10 170 23.4404 170 40 c 0
90 40 m 0
 90 56.5596 103.44 70 120 70 c 0
 136.56 70 150 56.5596 150 40 c 0
 150 23.4404 136.56 10 120 10 c 0
 103.44 10 90 23.4404 90 40 c 0
10 40 m 0
 10 56.5596 23.4404 70 40 70 c 0
 56.5596 70 70 56.5596 70 40 c 0
 70 23.4404 56.5596 10 40 10 c 0
 23.4404 10 10 23.4404 10 40 c 0
EndSplineSet
Validated: 1
EndChar

StartChar: a
Encoding: 97 97 40
Width: 480
Flags: HW
LayerCount: 2
Fore
SplineSet
330 280 m 0
 330 296.56 343.44 310 360 310 c 0
 376.56 310 390 296.56 390 280 c 0
 390 263.44 376.56 250 360 250 c 0
 343.44 250 330 263.44 330 280 c 0
10 280 m 0
 10 296.56 23.4404 310 40 310 c 0
 56.5596 310 70 296.56 70 280 c 0
 70 263.44 56.5596 250 40 250 c 0
 23.4404 250 10 263.44 10 280 c 0
330 360 m 0
 330 376.56 343.44 390 360 390 c 0
 376.56 390 390 376.56 390 360 c 0
 390 343.44 376.56 330 360 330 c 0
 343.44 330 330 343.44 330 360 c 0
250 360 m 0
 250 376.56 263.44 390 280 390 c 0
 296.56 390 310 376.56 310 360 c 0
 310 343.44 296.56 330 280 330 c 0
 263.44 330 250 343.44 250 360 c 0
170 360 m 0
 170 376.56 183.44 390 200 390 c 0
 216.56 390 230 376.56 230 360 c 0
 230 343.44 216.56 330 200 330 c 0
 183.44 330 170 343.44 170 360 c 0
90 360 m 0
 90 376.56 103.44 390 120 390 c 0
 136.56 390 150 376.56 150 360 c 0
 150 343.44 136.56 330 120 330 c 0
 103.44 330 90 343.44 90 360 c 0
330 200 m 0
 330 216.56 343.44 230 360 230 c 0
 376.56 230 390 216.56 390 200 c 0
 390 183.44 376.56 170 360 170 c 0
 343.44 170 330 183.44 330 200 c 0
10 200 m 0
 10 216.56 23.4404 230 40 230 c 0
 56.5596 230 70 216.56 70 200 c 0
 70 183.44 56.5596 170 40 170 c 0
 23.4404 170 10 183.44 10 200 c 0
330 120 m 0
 330 136.56 343.44 150 360 150 c 0
 376.56 150 390 136.56 390 120 c 0
 390 103.44 376.56 90 360 90 c 0
 343.44 90 330 103.44 330 120 c 0
250 120 m 0
 250 136.56 263.44 150 280 150 c 0
 296.56 150 310 136.56 310 120 c 0
 310 103.44 296.56 90 280 90 c 0
 263.44 90 250 103.44 250 120 c 0
10 120 m 0
 10 136.56 23.4404 150 40 150 c 0
 56.5596 150 70 136.56 70 120 c 0
 70 103.44 56.5596 90 40 90 c 0
 23.4404 90 10 103.44 10 120 c 0
330 40 m 0
 330 56.5596 343.44 70 360 70 c 0
 376.56 70 390 56.5596 390 40 c 0
 390 23.4404 376.56 10 360 10 c 0
 343.44 10 330 23.4404 330 40 c 0
170 40 m 0
 170 56.5596 183.44 70 200 70 c 0
 216.56 70 230 56.5596 230 40 c 0
 230 23.4404 216.56 10 200 10 c 0
 183.44 10 170 23.4404 170 40 c 0
90 40 m 0
 90 56.5596 103.44 70 120 70 c 0
 136.56 70 150 56.5596 150 40 c 0
 150 23.4404 136.56 10 120 10 c 0
 103.44 10 90 23.4404 90 40 c 0
EndSplineSet
Validated: 1
EndChar

StartChar: b
Encoding: 98 98 41
Width: 480
Flags: HW
LayerCount: 2
Fore
SplineSet
10 520 m 0
 10 536.56 23.4404 550 40 550 c 0
 56.5596 550 70 536.56 70 520 c 0
 70 503.44 56.5596 490 40 490 c 0
 23.4404 490 10 503.44 10 520 c 0
10 440 m 0
 10 456.56 23.4404 470 40 470 c 0
 56.5596 470 70 456.56 70 440 c 0
 70 423.44 56.5596 410 40 410 c 0
 23.4404 410 10 423.44 10 440 c 0
330 280 m 0
 330 296.56 343.44 310 360 310 c 0
 376.56 310 390 296.56 390 280 c 0
 390 263.44 376.56 250 360 250 c 0
 343.44 250 330 263.44 330 280 c 0
10 280 m 0
 10 296.56 23.4404 310 40 310 c 0
 56.5596 310 70 296.56 70 280 c 0
 70 263.44 56.5596 250 40 250 c 0
 23.4404 250 10 263.44 10 280 c 0
250 360 m 0
 250 376.56 263.44 390 280 390 c 0
 296.56 390 310 376.56 310 360 c 0
 310 343.44 296.56 330 280 330 c 0
 263.44 330 250 343.44 250 360 c 0
170 360 m 0
 170 376.56 183.44 390 200 390 c 0
 216.56 390 230 376.56 230 360 c 0
 230 343.44 216.56 330 200 330 c 0
 183.44 330 170 343.44 170 360 c 0
90 360 m 0
 90 376.56 103.44 390 120 390 c 0
 136.56 390 150 376.56 150 360 c 0
 150 343.44 136.56 330 120 330 c 0
 103.44 330 90 343.44 90 360 c 0
10 360 m 0
 10 376.56 23.4404 390 40 390 c 0
 56.5596 390 70 376.56 70 360 c 0
 70 343.44 56.5596 330 40 330 c 0
 23.4404 330 10 343.44 10 360 c 0
330 200 m 0
 330 216.56 343.44 230 360 230 c 0
 376.56 230 390 216.56 390 200 c 0
 390 183.44 376.56 170 360 170 c 0
 343.44 170 330 183.44 330 200 c 0
10 200 m 0
 10 216.56 23.4404 230 40 230 c 0
 56.5596 230 70 216.56 70 200 c 0
 70 183.44 56.5596 170 40 170 c 0
 23.4404 170 10 183.44 10 200 c 0
330 120 m 0
 330 136.56 343.44 150 360 150 c 0
 376.56 150 390 136.56 390 120 c 0
 390 103.44 376.56 90 360 90 c 0
 343.44 90 330 103.44 330 120 c 0
10 120 m 0
 10 136.56 23.4404 150 40 150 c 0
 56.5596 150 70 136.56 70 120 c 0
 70 103.44 56.5596 90 40 90 c 0
 23.4404 90 10 103.44 10 120 c 0
250 40 m 0
 250 56.5596 263.44 70 280 70 c 0
 296.56 70 310 56.5596 310 40 c 0
 310 23.4404 296.56 10 280 10 c 0
 263.44 10 250 23.4404 250 40 c 0
170 40 m 0
 170 56.5596 183.44 70 200 70 c 0
 216.56 70 230 56.5596 230 40 c 0
 230 23.4404 216.56 10 200 10 c 0
 183.44 10 170 23.4404 170 40 c 0
90 40 m 0
 90 56.5596 103.44 70 120 70 c 0
 136.56 70 150 56.5596 150 40 c 0
 150 23.4404 136.56 10 120 10 c 0
 103.44 10 90 23.4404 90 40 c 0
10 40 m 0
 10 56.5596 23.4404 70 40 70 c 0
 56.5596 70 70 56.5596 70 40 c 0
 70 23.4404 56.5596 10 40 10 c 0
 23.4404 10 10 23.4404 10 40 c 0
EndSplineSet
Validated: 1
EndChar

StartChar: c
Encoding: 99 99 42
Width: 480
Flags: HW
LayerCount: 2
Fore
SplineSet
10 280 m 0
 10 296.56 23.4404 310 40 310 c 0
 56.5596 310 70 296.56 70 280 c 0
 70 263.44 56.5596 250 40 250 c 0
 23.4404 250 10 263.44 10 280 c 0
330 360 m 0
 330 376.56 343.44 390 360 390 c 0
 376.56 390 390 376.56 390 360 c 0
 390 343.44 376.56 330 360 330 c 0
 343.44 330 330 343.44 330 360 c 0
250 360 m 0
 250 376.56 263.44 390 280 390 c 0
 296.56 390 310 376.56 310 360 c 0
 310 343.44 296.56 330 280 330 c 0
 263.44 330 250 343.44 250 360 c 0
170 360 m 0
 170 376.56 183.44 390 200 390 c 0
 216.56 390 230 376.56 230 360 c 0
 230 343.44 216.56 330 200 330 c 0
 183.44 330 170 343.44 170 360 c 0
90 360 m 0
 90 376.56 103.44 390 120 390 c 0
 136.56 390 150 376.56 150 360 c 0
 150 343.44 136.56 330 120 330 c 0
 103.44 330 90 343.44 90 360 c 0
10 200 m 0
 10 216.56 23.4404 230 40 230 c 0
 56.5596 230 70 216.56 70 200 c 0
 70 183.44 56.5596 170 40 170 c 0
 23.4404 170 10 183.44 10 200 c 0
10 120 m 0
 10 136.56 23.4404 150 40 150 c 0
 56.5596 150 70 136.56 70 120 c 0
 70 103.44 56.5596 90 40 90 c 0
 23.4404 90 10 103.44 10 120 c 0
330 40 m 0
 330 56.5596 343.44 70 360 70 c 0
 376.56 70 390 56.5596 390 40 c 0
 390 23.4404 376.56 10 360 10 c 0
 343.44 10 330 23.4404 330 40 c 0
250 40 m 0
 250 56.5596 263.44 70 280 70 c 0
 296.56 70 310 56.5596 310 40 c 0
 310 23.4404 296.56 10 280 10 c 0
 263.44 10 250 23.4404 250 40 c 0
170 40 m 0
 170 56.5596 183.44 70 200 70 c 0
 216.56 70 230 56.5596 230 40 c 0
 230 23.4404 216.56 10 200 10 c 0
 183.44 10 170 23.4404 170 40 c 0
90 40 m 0
 90 56.5596 103.44 70 120 70 c 0
 136.56 70 150 56.5596 150 40 c 0
 150 23.4404 136.56 10 120 10 c 0
 103.44 10 90 23.4404 90 40 c 0
EndSplineSet
Validated: 1
EndChar

StartChar: d
Encoding: 100 100 43
Width: 480
Flags: HW
LayerCount: 2
Fore
SplineSet
330 120 m 4
 330 136.56 343.44 150 360 150 c 4
 376.56 150 390 136.56 390 120 c 4
 390 103.44 376.56 90 360 90 c 4
 343.44 90 330 103.44 330 120 c 4
330 520 m 0
 330 536.56 343.44 550 360 550 c 0
 376.56 550 390 536.56 390 520 c 0
 390 503.44 376.56 490 360 490 c 0
 343.44 490 330 503.44 330 520 c 0
330 440 m 0
 330 456.56 343.44 470 360 470 c 0
 376.56 470 390 456.56 390 440 c 0
 390 423.44 376.56 410 360 410 c 0
 343.44 410 330 423.44 330 440 c 0
330 280 m 0
 330 296.56 343.44 310 360 310 c 0
 376.56 310 390 296.56 390 280 c 0
 390 263.44 376.56 250 360 250 c 0
 343.44 250 330 263.44 330 280 c 0
10 280 m 0
 10 296.56 23.4404 310 40 310 c 0
 56.5596 310 70 296.56 70 280 c 0
 70 263.44 56.5596 250 40 250 c 0
 23.4404 250 10 263.44 10 280 c 0
330 360 m 0
 330 376.56 343.44 390 360 390 c 0
 376.56 390 390 376.56 390 360 c 0
 390 343.44 376.56 330 360 330 c 0
 343.44 330 330 343.44 330 360 c 0
250 360 m 0
 250 376.56 263.44 390 280 390 c 0
 296.56 390 310 376.56 310 360 c 0
 310 343.44 296.56 330 280 330 c 0
 263.44 330 250 343.44 250 360 c 0
170 360 m 0
 170 376.56 183.44 390 200 390 c 0
 216.56 390 230 376.56 230 360 c 0
 230 343.44 216.56 330 200 330 c 0
 183.44 330 170 343.44 170 360 c 0
90 360 m 0
 90 376.56 103.44 390 120 390 c 0
 136.56 390 150 376.56 150 360 c 0
 150 343.44 136.56 330 120 330 c 0
 103.44 330 90 343.44 90 360 c 0
250 120 m 0
 250 136.56 263.44 150 280 150 c 0
 296.56 150 310 136.56 310 120 c 0
 310 103.44 296.56 90 280 90 c 0
 263.44 90 250 103.44 250 120 c 0
330 200 m 0
 330 216.56 343.44 230 360 230 c 0
 376.56 230 390 216.56 390 200 c 0
 390 183.44 376.56 170 360 170 c 0
 343.44 170 330 183.44 330 200 c 0
10 200 m 0
 10 216.56 23.4404 230 40 230 c 0
 56.5596 230 70 216.56 70 200 c 0
 70 183.44 56.5596 170 40 170 c 0
 23.4404 170 10 183.44 10 200 c 0
10 120 m 0
 10 136.56 23.4404 150 40 150 c 0
 56.5596 150 70 136.56 70 120 c 0
 70 103.44 56.5596 90 40 90 c 0
 23.4404 90 10 103.44 10 120 c 0
330 40 m 0
 330 56.5596 343.44 70 360 70 c 0
 376.56 70 390 56.5596 390 40 c 0
 390 23.4404 376.56 10 360 10 c 0
 343.44 10 330 23.4404 330 40 c 0
170 40 m 0
 170 56.5596 183.44 70 200 70 c 0
 216.56 70 230 56.5596 230 40 c 0
 230 23.4404 216.56 10 200 10 c 0
 183.44 10 170 23.4404 170 40 c 0
90 40 m 0
 90 56.5596 103.44 70 120 70 c 0
 136.56 70 150 56.5596 150 40 c 0
 150 23.4404 136.56 10 120 10 c 0
 103.44 10 90 23.4404 90 40 c 0
EndSplineSet
Validated: 1
EndChar

StartChar: e
Encoding: 101 101 44
Width: 480
Flags: HW
LayerCount: 2
Fore
SplineSet
330 280 m 0
 330 296.56 343.44 310 360 310 c 0
 376.56 310 390 296.56 390 280 c 0
 390 263.44 376.56 250 360 250 c 0
 343.44 250 330 263.44 330 280 c 0
10 280 m 0
 10 296.56 23.4404 310 40 310 c 0
 56.5596 310 70 296.56 70 280 c 0
 70 263.44 56.5596 250 40 250 c 0
 23.4404 250 10 263.44 10 280 c 0
250 360 m 0
 250 376.56 263.44 390 280 390 c 0
 296.56 390 310 376.56 310 360 c 0
 310 343.44 296.56 330 280 330 c 0
 263.44 330 250 343.44 250 360 c 0
170 360 m 0
 170 376.56 183.44 390 200 390 c 0
 216.56 390 230 376.56 230 360 c 0
 230 343.44 216.56 330 200 330 c 0
 183.44 330 170 343.44 170 360 c 0
90 360 m 0
 90 376.56 103.44 390 120 390 c 0
 136.56 390 150 376.56 150 360 c 0
 150 343.44 136.56 330 120 330 c 0
 103.44 330 90 343.44 90 360 c 0
330 200 m 4
 330 216.56 343.44 230 360 230 c 4
 376.56 230 390 216.56 390 200 c 4
 390 183.44 376.56 170 360 170 c 4
 343.44 170 330 183.44 330 200 c 4
250 200 m 0
 250 216.56 263.44 230 280 230 c 0
 296.56 230 310 216.56 310 200 c 0
 310 183.44 296.56 170 280 170 c 0
 263.44 170 250 183.44 250 200 c 0
170 200 m 0
 170 216.56 183.44 230 200 230 c 0
 216.56 230 230 216.56 230 200 c 0
 230 183.44 216.56 170 200 170 c 0
 183.44 170 170 183.44 170 200 c 0
90 200 m 0
 90 216.56 103.44 230 120 230 c 0
 136.56 230 150 216.56 150 200 c 0
 150 183.44 136.56 170 120 170 c 0
 103.44 170 90 183.44 90 200 c 0
10 200 m 0
 10 216.56 23.4404 230 40 230 c 0
 56.5596 230 70 216.56 70 200 c 0
 70 183.44 56.5596 170 40 170 c 0
 23.4404 170 10 183.44 10 200 c 0
10 120 m 0
 10 136.56 23.4404 150 40 150 c 0
 56.5596 150 70 136.56 70 120 c 0
 70 103.44 56.5596 90 40 90 c 0
 23.4404 90 10 103.44 10 120 c 0
330 40 m 0
 330 56.5596 343.44 70 360 70 c 0
 376.56 70 390 56.5596 390 40 c 0
 390 23.4404 376.56 10 360 10 c 0
 343.44 10 330 23.4404 330 40 c 0
250 40 m 0
 250 56.5596 263.44 70 280 70 c 0
 296.56 70 310 56.5596 310 40 c 0
 310 23.4404 296.56 10 280 10 c 0
 263.44 10 250 23.4404 250 40 c 0
170 40 m 0
 170 56.5596 183.44 70 200 70 c 0
 216.56 70 230 56.5596 230 40 c 0
 230 23.4404 216.56 10 200 10 c 0
 183.44 10 170 23.4404 170 40 c 0
90 40 m 0
 90 56.5596 103.44 70 120 70 c 0
 136.56 70 150 56.5596 150 40 c 0
 150 23.4404 136.56 10 120 10 c 0
 103.44 10 90 23.4404 90 40 c 0
EndSplineSet
Validated: 1
EndChar

StartChar: f
Encoding: 102 102 45
Width: 480
Flags: HW
LayerCount: 2
Fore
SplineSet
250 520 m 0
 250 536.56 263.44 550 280 550 c 0
 296.56 550 310 536.56 310 520 c 0
 310 503.44 296.56 490 280 490 c 0
 263.44 490 250 503.44 250 520 c 0
170 520 m 0
 170 536.56 183.44 550 200 550 c 0
 216.56 550 230 536.56 230 520 c 0
 230 503.44 216.56 490 200 490 c 0
 183.44 490 170 503.44 170 520 c 0
330 440 m 0
 330 456.56 343.44 470 360 470 c 0
 376.56 470 390 456.56 390 440 c 0
 390 423.44 376.56 410 360 410 c 0
 343.44 410 330 423.44 330 440 c 0
90 440 m 0
 90 456.56 103.44 470 120 470 c 0
 136.56 470 150 456.56 150 440 c 0
 150 423.44 136.56 410 120 410 c 0
 103.44 410 90 423.44 90 440 c 0
90 280 m 0
 90 296.56 103.44 310 120 310 c 0
 136.56 310 150 296.56 150 280 c 0
 150 263.44 136.56 250 120 250 c 0
 103.44 250 90 263.44 90 280 c 0
90 360 m 0
 90 376.56 103.44 390 120 390 c 0
 136.56 390 150 376.56 150 360 c 0
 150 343.44 136.56 330 120 330 c 0
 103.44 330 90 343.44 90 360 c 0
250 200 m 0
 250 216.56 263.44 230 280 230 c 0
 296.56 230 310 216.56 310 200 c 0
 310 183.44 296.56 170 280 170 c 0
 263.44 170 250 183.44 250 200 c 0
170 200 m 0
 170 216.56 183.44 230 200 230 c 0
 216.56 230 230 216.56 230 200 c 0
 230 183.44 216.56 170 200 170 c 0
 183.44 170 170 183.44 170 200 c 0
90 200 m 0
 90 216.56 103.44 230 120 230 c 0
 136.56 230 150 216.56 150 200 c 0
 150 183.44 136.56 170 120 170 c 0
 103.44 170 90 183.44 90 200 c 0
10 200 m 0
 10 216.56 23.4404 230 40 230 c 0
 56.5596 230 70 216.56 70 200 c 0
 70 183.44 56.5596 170 40 170 c 0
 23.4404 170 10 183.44 10 200 c 0
90 120 m 0
 90 136.56 103.44 150 120 150 c 0
 136.56 150 150 136.56 150 120 c 0
 150 103.44 136.56 90 120 90 c 0
 103.44 90 90 103.44 90 120 c 0
90 40 m 0
 90 56.5596 103.44 70 120 70 c 0
 136.56 70 150 56.5596 150 40 c 0
 150 23.4404 136.56 10 120 10 c 0
 103.44 10 90 23.4404 90 40 c 0
EndSplineSet
Validated: 1
EndChar

StartChar: g
Encoding: 103 103 46
Width: 480
Flags: HW
LayerCount: 2
Fore
SplineSet
330 280 m 0
 330 296.56 343.44 310 360 310 c 0
 376.56 310 390 296.56 390 280 c 0
 390 263.44 376.56 250 360 250 c 0
 343.44 250 330 263.44 330 280 c 0
10 280 m 0
 10 296.56 23.4404 310 40 310 c 0
 56.5596 310 70 296.56 70 280 c 0
 70 263.44 56.5596 250 40 250 c 0
 23.4404 250 10 263.44 10 280 c 0
330 360 m 4
 330 376.56 343.44 390 360 390 c 4
 376.56 390 390 376.56 390 360 c 4
 390 343.44 376.56 330 360 330 c 4
 343.44 330 330 343.44 330 360 c 4
250 360 m 0
 250 376.56 263.44 390 280 390 c 0
 296.56 390 310 376.56 310 360 c 0
 310 343.44 296.56 330 280 330 c 0
 263.44 330 250 343.44 250 360 c 0
170 360 m 0
 170 376.56 183.44 390 200 390 c 0
 216.56 390 230 376.56 230 360 c 0
 230 343.44 216.56 330 200 330 c 0
 183.44 330 170 343.44 170 360 c 0
90 360 m 0
 90 376.56 103.44 390 120 390 c 0
 136.56 390 150 376.56 150 360 c 0
 150 343.44 136.56 330 120 330 c 0
 103.44 330 90 343.44 90 360 c 0
330 200 m 0
 330 216.56 343.44 230 360 230 c 0
 376.56 230 390 216.56 390 200 c 0
 390 183.44 376.56 170 360 170 c 0
 343.44 170 330 183.44 330 200 c 0
250 200 m 0
 250 216.56 263.44 230 280 230 c 0
 296.56 230 310 216.56 310 200 c 0
 310 183.44 296.56 170 280 170 c 0
 263.44 170 250 183.44 250 200 c 0
170 200 m 0
 170 216.56 183.44 230 200 230 c 0
 216.56 230 230 216.56 230 200 c 0
 230 183.44 216.56 170 200 170 c 0
 183.44 170 170 183.44 170 200 c 0
90 200 m 0
 90 216.56 103.44 230 120 230 c 0
 136.56 230 150 216.56 150 200 c 0
 150 183.44 136.56 170 120 170 c 0
 103.44 170 90 183.44 90 200 c 0
330 120 m 0
 330 136.56 343.44 150 360 150 c 0
 376.56 150 390 136.56 390 120 c 0
 390 103.44 376.56 90 360 90 c 0
 343.44 90 330 103.44 330 120 c 0
250 40 m 0
 250 56.5596 263.44 70 280 70 c 0
 296.56 70 310 56.5596 310 40 c 0
 310 23.4404 296.56 10 280 10 c 0
 263.44 10 250 23.4404 250 40 c 0
170 40 m 0
 170 56.5596 183.44 70 200 70 c 0
 216.56 70 230 56.5596 230 40 c 0
 230 23.4404 216.56 10 200 10 c 0
 183.44 10 170 23.4404 170 40 c 0
90 40 m 0
 90 56.5596 103.44 70 120 70 c 0
 136.56 70 150 56.5596 150 40 c 0
 150 23.4404 136.56 10 120 10 c 0
 103.44 10 90 23.4404 90 40 c 0
EndSplineSet
Validated: 1
EndChar

StartChar: h
Encoding: 104 104 47
Width: 480
Flags: HW
LayerCount: 2
Fore
SplineSet
10 520 m 0
 10 536.56 23.4404 550 40 550 c 0
 56.5596 550 70 536.56 70 520 c 0
 70 503.44 56.5596 490 40 490 c 0
 23.4404 490 10 503.44 10 520 c 0
10 440 m 0
 10 456.56 23.4404 470 40 470 c 0
 56.5596 470 70 456.56 70 440 c 0
 70 423.44 56.5596 410 40 410 c 0
 23.4404 410 10 423.44 10 440 c 0
250 280 m 0
 250 296.56 263.44 310 280 310 c 0
 296.56 310 310 296.56 310 280 c 0
 310 263.44 296.56 250 280 250 c 0
 263.44 250 250 263.44 250 280 c 0
170 280 m 0
 170 296.56 183.44 310 200 310 c 0
 216.56 310 230 296.56 230 280 c 0
 230 263.44 216.56 250 200 250 c 0
 183.44 250 170 263.44 170 280 c 0
10 280 m 0
 10 296.56 23.4404 310 40 310 c 0
 56.5596 310 70 296.56 70 280 c 0
 70 263.44 56.5596 250 40 250 c 0
 23.4404 250 10 263.44 10 280 c 0
10 360 m 0
 10 376.56 23.4404 390 40 390 c 0
 56.5596 390 70 376.56 70 360 c 0
 70 343.44 56.5596 330 40 330 c 0
 23.4404 330 10 343.44 10 360 c 0
330 200 m 0
 330 216.56 343.44 230 360 230 c 0
 376.56 230 390 216.56 390 200 c 0
 390 183.44 376.56 170 360 170 c 0
 343.44 170 330 183.44 330 200 c 0
90 200 m 0
 90 216.56 103.44 230 120 230 c 0
 136.56 230 150 216.56 150 200 c 0
 150 183.44 136.56 170 120 170 c 0
 103.44 170 90 183.44 90 200 c 0
10 200 m 0
 10 216.56 23.4404 230 40 230 c 0
 56.5596 230 70 216.56 70 200 c 0
 70 183.44 56.5596 170 40 170 c 0
 23.4404 170 10 183.44 10 200 c 0
330 120 m 0
 330 136.56 343.44 150 360 150 c 0
 376.56 150 390 136.56 390 120 c 0
 390 103.44 376.56 90 360 90 c 0
 343.44 90 330 103.44 330 120 c 0
10 120 m 0
 10 136.56 23.4404 150 40 150 c 0
 56.5596 150 70 136.56 70 120 c 0
 70 103.44 56.5596 90 40 90 c 0
 23.4404 90 10 103.44 10 120 c 0
330 40 m 0
 330 56.5596 343.44 70 360 70 c 0
 376.56 70 390 56.5596 390 40 c 0
 390 23.4404 376.56 10 360 10 c 0
 343.44 10 330 23.4404 330 40 c 0
10 40 m 0
 10 56.5596 23.4404 70 40 70 c 0
 56.5596 70 70 56.5596 70 40 c 0
 70 23.4404 56.5596 10 40 10 c 0
 23.4404 10 10 23.4404 10 40 c 0
EndSplineSet
Validated: 1
EndChar

StartChar: i
Encoding: 105 105 48
Width: 480
Flags: HW
LayerCount: 2
Fore
SplineSet
90 520 m 0
 90 536.56 103.44 550 120 550 c 0
 136.56 550 150 536.56 150 520 c 0
 150 503.44 136.56 490 120 490 c 0
 103.44 490 90 503.44 90 520 c 0
90 280 m 0
 90 296.56 103.44 310 120 310 c 0
 136.56 310 150 296.56 150 280 c 0
 150 263.44 136.56 250 120 250 c 0
 103.44 250 90 263.44 90 280 c 0
90 360 m 0
 90 376.56 103.44 390 120 390 c 0
 136.56 390 150 376.56 150 360 c 0
 150 343.44 136.56 330 120 330 c 0
 103.44 330 90 343.44 90 360 c 0
90 200 m 0
 90 216.56 103.44 230 120 230 c 0
 136.56 230 150 216.56 150 200 c 0
 150 183.44 136.56 170 120 170 c 0
 103.44 170 90 183.44 90 200 c 0
90 120 m 0
 90 136.56 103.44 150 120 150 c 0
 136.56 150 150 136.56 150 120 c 0
 150 103.44 136.56 90 120 90 c 0
 103.44 90 90 103.44 90 120 c 0
250 40 m 0
 250 56.5596 263.44 70 280 70 c 0
 296.56 70 310 56.5596 310 40 c 0
 310 23.4404 296.56 10 280 10 c 0
 263.44 10 250 23.4404 250 40 c 0
170 40 m 0
 170 56.5596 183.44 70 200 70 c 0
 216.56 70 230 56.5596 230 40 c 0
 230 23.4404 216.56 10 200 10 c 0
 183.44 10 170 23.4404 170 40 c 0
EndSplineSet
Validated: 1
EndChar

StartChar: j
Encoding: 106 106 49
Width: 480
Flags: HW
LayerCount: 2
Fore
SplineSet
170 520 m 0
 170 536.56 183.44 550 200 550 c 0
 216.56 550 230 536.56 230 520 c 0
 230 503.44 216.56 490 200 490 c 0
 183.44 490 170 503.44 170 520 c 0
170 280 m 0
 170 296.56 183.44 310 200 310 c 0
 216.56 310 230 296.56 230 280 c 0
 230 263.44 216.56 250 200 250 c 0
 183.44 250 170 263.44 170 280 c 0
170 360 m 0
 170 376.56 183.44 390 200 390 c 0
 216.56 390 230 376.56 230 360 c 0
 230 343.44 216.56 330 200 330 c 0
 183.44 330 170 343.44 170 360 c 0
170 200 m 0
 170 216.56 183.44 230 200 230 c 0
 216.56 230 230 216.56 230 200 c 0
 230 183.44 216.56 170 200 170 c 0
 183.44 170 170 183.44 170 200 c 0
170 120 m 0
 170 136.56 183.44 150 200 150 c 0
 216.56 150 230 136.56 230 120 c 0
 230 103.44 216.56 90 200 90 c 0
 183.44 90 170 103.44 170 120 c 0
10 120 m 0
 10 136.56 23.4404 150 40 150 c 0
 56.5596 150 70 136.56 70 120 c 0
 70 103.44 56.5596 90 40 90 c 0
 23.4404 90 10 103.44 10 120 c 0
90 40 m 0
 90 56.5596 103.44 70 120 70 c 0
 136.56 70 150 56.5596 150 40 c 0
 150 23.4404 136.56 10 120 10 c 0
 103.44 10 90 23.4404 90 40 c 0
EndSplineSet
Validated: 1
EndChar

StartChar: k
Encoding: 107 107 50
Width: 480
Flags: HW
LayerCount: 2
Fore
SplineSet
10 520 m 0
 10 536.56 23.4404 550 40 550 c 0
 56.5596 550 70 536.56 70 520 c 0
 70 503.44 56.5596 490 40 490 c 0
 23.4404 490 10 503.44 10 520 c 0
10 440 m 0
 10 456.56 23.4404 470 40 470 c 0
 56.5596 470 70 456.56 70 440 c 0
 70 423.44 56.5596 410 40 410 c 0
 23.4404 410 10 423.44 10 440 c 0
170 280 m 0
 170 296.56 183.44 310 200 310 c 0
 216.56 310 230 296.56 230 280 c 0
 230 263.44 216.56 250 200 250 c 0
 183.44 250 170 263.44 170 280 c 0
10 280 m 0
 10 296.56 23.4404 310 40 310 c 0
 56.5596 310 70 296.56 70 280 c 0
 70 263.44 56.5596 250 40 250 c 0
 23.4404 250 10 263.44 10 280 c 0
250 360 m 0
 250 376.56 263.44 390 280 390 c 0
 296.56 390 310 376.56 310 360 c 0
 310 343.44 296.56 330 280 330 c 0
 263.44 330 250 343.44 250 360 c 0
10 360 m 0
 10 376.56 23.4404 390 40 390 c 0
 56.5596 390 70 376.56 70 360 c 0
 70 343.44 56.5596 330 40 330 c 0
 23.4404 330 10 343.44 10 360 c 0
170 200 m 0
 170 216.56 183.44 230 200 230 c 0
 216.56 230 230 216.56 230 200 c 0
 230 183.44 216.56 170 200 170 c 0
 183.44 170 170 183.44 170 200 c 0
90 200 m 0
 90 216.56 103.44 230 120 230 c 0
 136.56 230 150 216.56 150 200 c 0
 150 183.44 136.56 170 120 170 c 0
 103.44 170 90 183.44 90 200 c 0
10 200 m 0
 10 216.56 23.4404 230 40 230 c 0
 56.5596 230 70 216.56 70 200 c 0
 70 183.44 56.5596 170 40 170 c 0
 23.4404 170 10 183.44 10 200 c 0
250 120 m 0
 250 136.56 263.44 150 280 150 c 0
 296.56 150 310 136.56 310 120 c 0
 310 103.44 296.56 90 280 90 c 0
 263.44 90 250 103.44 250 120 c 0
10 120 m 0
 10 136.56 23.4404 150 40 150 c 0
 56.5596 150 70 136.56 70 120 c 0
 70 103.44 56.5596 90 40 90 c 0
 23.4404 90 10 103.44 10 120 c 0
330 40 m 0
 330 56.5596 343.44 70 360 70 c 0
 376.56 70 390 56.5596 390 40 c 0
 390 23.4404 376.56 10 360 10 c 0
 343.44 10 330 23.4404 330 40 c 0
10 40 m 0
 10 56.5596 23.4404 70 40 70 c 0
 56.5596 70 70 56.5596 70 40 c 0
 70 23.4404 56.5596 10 40 10 c 0
 23.4404 10 10 23.4404 10 40 c 0
EndSplineSet
Validated: 1
EndChar

StartChar: l
Encoding: 108 108 51
Width: 480
Flags: HW
LayerCount: 2
Fore
SplineSet
90 520 m 0
 90 536.56 103.44 550 120 550 c 0
 136.56 550 150 536.56 150 520 c 0
 150 503.44 136.56 490 120 490 c 0
 103.44 490 90 503.44 90 520 c 0
90 440 m 0
 90 456.56 103.44 470 120 470 c 0
 136.56 470 150 456.56 150 440 c 0
 150 423.44 136.56 410 120 410 c 0
 103.44 410 90 423.44 90 440 c 0
90 280 m 0
 90 296.56 103.44 310 120 310 c 0
 136.56 310 150 296.56 150 280 c 0
 150 263.44 136.56 250 120 250 c 0
 103.44 250 90 263.44 90 280 c 0
90 360 m 0
 90 376.56 103.44 390 120 390 c 0
 136.56 390 150 376.56 150 360 c 0
 150 343.44 136.56 330 120 330 c 0
 103.44 330 90 343.44 90 360 c 0
90 200 m 0
 90 216.56 103.44 230 120 230 c 0
 136.56 230 150 216.56 150 200 c 0
 150 183.44 136.56 170 120 170 c 0
 103.44 170 90 183.44 90 200 c 0
90 120 m 0
 90 136.56 103.44 150 120 150 c 0
 136.56 150 150 136.56 150 120 c 0
 150 103.44 136.56 90 120 90 c 0
 103.44 90 90 103.44 90 120 c 0
250 40 m 0
 250 56.5596 263.44 70 280 70 c 0
 296.56 70 310 56.5596 310 40 c 0
 310 23.4404 296.56 10 280 10 c 0
 263.44 10 250 23.4404 250 40 c 0
170 40 m 0
 170 56.5596 183.44 70 200 70 c 0
 216.56 70 230 56.5596 230 40 c 0
 230 23.4404 216.56 10 200 10 c 0
 183.44 10 170 23.4404 170 40 c 0
EndSplineSet
Validated: 1
EndChar

StartChar: m
Encoding: 109 109 52
Width: 480
Flags: HW
LayerCount: 2
Fore
SplineSet
330 280 m 0
 330 296.56 343.44 310 360 310 c 0
 376.56 310 390 296.56 390 280 c 0
 390 263.44 376.56 250 360 250 c 0
 343.44 250 330 263.44 330 280 c 0
170 280 m 0
 170 296.56 183.44 310 200 310 c 0
 216.56 310 230 296.56 230 280 c 0
 230 263.44 216.56 250 200 250 c 0
 183.44 250 170 263.44 170 280 c 0
10 280 m 0
 10 296.56 23.4404 310 40 310 c 0
 56.5596 310 70 296.56 70 280 c 0
 70 263.44 56.5596 250 40 250 c 0
 23.4404 250 10 263.44 10 280 c 0
250 360 m 0
 250 376.56 263.44 390 280 390 c 0
 296.56 390 310 376.56 310 360 c 0
 310 343.44 296.56 330 280 330 c 0
 263.44 330 250 343.44 250 360 c 0
90 360 m 0
 90 376.56 103.44 390 120 390 c 0
 136.56 390 150 376.56 150 360 c 0
 150 343.44 136.56 330 120 330 c 0
 103.44 330 90 343.44 90 360 c 0
10 360 m 0
 10 376.56 23.4404 390 40 390 c 0
 56.5596 390 70 376.56 70 360 c 0
 70 343.44 56.5596 330 40 330 c 0
 23.4404 330 10 343.44 10 360 c 0
330 200 m 0
 330 216.56 343.44 230 360 230 c 0
 376.56 230 390 216.56 390 200 c 0
 390 183.44 376.56 170 360 170 c 0
 343.44 170 330 183.44 330 200 c 0
170 200 m 0
 170 216.56 183.44 230 200 230 c 0
 216.56 230 230 216.56 230 200 c 0
 230 183.44 216.56 170 200 170 c 0
 183.44 170 170 183.44 170 200 c 0
10 200 m 0
 10 216.56 23.4404 230 40 230 c 0
 56.5596 230 70 216.56 70 200 c 0
 70 183.44 56.5596 170 40 170 c 0
 23.4404 170 10 183.44 10 200 c 0
330 120 m 0
 330 136.56 343.44 150 360 150 c 0
 376.56 150 390 136.56 390 120 c 0
 390 103.44 376.56 90 360 90 c 0
 343.44 90 330 103.44 330 120 c 0
170 120 m 0
 170 136.56 183.44 150 200 150 c 0
 216.56 150 230 136.56 230 120 c 0
 230 103.44 216.56 90 200 90 c 0
 183.44 90 170 103.44 170 120 c 0
10 120 m 0
 10 136.56 23.4404 150 40 150 c 0
 56.5596 150 70 136.56 70 120 c 0
 70 103.44 56.5596 90 40 90 c 0
 23.4404 90 10 103.44 10 120 c 0
330 40 m 0
 330 56.5596 343.44 70 360 70 c 0
 376.56 70 390 56.5596 390 40 c 0
 390 23.4404 376.56 10 360 10 c 0
 343.44 10 330 23.4404 330 40 c 0
170 40 m 0
 170 56.5596 183.44 70 200 70 c 0
 216.56 70 230 56.5596 230 40 c 0
 230 23.4404 216.56 10 200 10 c 0
 183.44 10 170 23.4404 170 40 c 0
10 40 m 0
 10 56.5596 23.4404 70 40 70 c 0
 56.5596 70 70 56.5596 70 40 c 0
 70 23.4404 56.5596 10 40 10 c 0
 23.4404 10 10 23.4404 10 40 c 0
EndSplineSet
Validated: 1
EndChar

StartChar: n
Encoding: 110 110 53
Width: 480
Flags: HW
LayerCount: 2
Fore
SplineSet
330 280 m 0
 330 296.56 343.44 310 360 310 c 0
 376.56 310 390 296.56 390 280 c 0
 390 263.44 376.56 250 360 250 c 0
 343.44 250 330 263.44 330 280 c 0
10 280 m 0
 10 296.56 23.4404 310 40 310 c 0
 56.5596 310 70 296.56 70 280 c 0
 70 263.44 56.5596 250 40 250 c 0
 23.4404 250 10 263.44 10 280 c 0
250 360 m 0
 250 376.56 263.44 390 280 390 c 0
 296.56 390 310 376.56 310 360 c 0
 310 343.44 296.56 330 280 330 c 0
 263.44 330 250 343.44 250 360 c 0
170 360 m 0
 170 376.56 183.44 390 200 390 c 0
 216.56 390 230 376.56 230 360 c 0
 230 343.44 216.56 330 200 330 c 0
 183.44 330 170 343.44 170 360 c 0
90 360 m 0
 90 376.56 103.44 390 120 390 c 0
 136.56 390 150 376.56 150 360 c 0
 150 343.44 136.56 330 120 330 c 0
 103.44 330 90 343.44 90 360 c 0
10 360 m 0
 10 376.56 23.4404 390 40 390 c 0
 56.5596 390 70 376.56 70 360 c 0
 70 343.44 56.5596 330 40 330 c 0
 23.4404 330 10 343.44 10 360 c 0
330 200 m 0
 330 216.56 343.44 230 360 230 c 0
 376.56 230 390 216.56 390 200 c 0
 390 183.44 376.56 170 360 170 c 0
 343.44 170 330 183.44 330 200 c 0
10 200 m 0
 10 216.56 23.4404 230 40 230 c 0
 56.5596 230 70 216.56 70 200 c 0
 70 183.44 56.5596 170 40 170 c 0
 23.4404 170 10 183.44 10 200 c 0
330 120 m 0
 330 136.56 343.44 150 360 150 c 0
 376.56 150 390 136.56 390 120 c 0
 390 103.44 376.56 90 360 90 c 0
 343.44 90 330 103.44 330 120 c 0
10 120 m 0
 10 136.56 23.4404 150 40 150 c 0
 56.5596 150 70 136.56 70 120 c 0
 70 103.44 56.5596 90 40 90 c 0
 23.4404 90 10 103.44 10 120 c 0
330 40 m 0
 330 56.5596 343.44 70 360 70 c 0
 376.56 70 390 56.5596 390 40 c 0
 390 23.4404 376.56 10 360 10 c 0
 343.44 10 330 23.4404 330 40 c 0
10 40 m 0
 10 56.5596 23.4404 70 40 70 c 0
 56.5596 70 70 56.5596 70 40 c 0
 70 23.4404 56.5596 10 40 10 c 0
 23.4404 10 10 23.4404 10 40 c 0
EndSplineSet
Validated: 1
EndChar

StartChar: o
Encoding: 111 111 54
Width: 480
Flags: HW
LayerCount: 2
Fore
SplineSet
330 280 m 0
 330 296.56 343.44 310 360 310 c 0
 376.56 310 390 296.56 390 280 c 0
 390 263.44 376.56 250 360 250 c 0
 343.44 250 330 263.44 330 280 c 0
10 280 m 0
 10 296.56 23.4404 310 40 310 c 0
 56.5596 310 70 296.56 70 280 c 0
 70 263.44 56.5596 250 40 250 c 0
 23.4404 250 10 263.44 10 280 c 0
250 360 m 0
 250 376.56 263.44 390 280 390 c 0
 296.56 390 310 376.56 310 360 c 0
 310 343.44 296.56 330 280 330 c 0
 263.44 330 250 343.44 250 360 c 0
170 360 m 0
 170 376.56 183.44 390 200 390 c 0
 216.56 390 230 376.56 230 360 c 0
 230 343.44 216.56 330 200 330 c 0
 183.44 330 170 343.44 170 360 c 0
90 360 m 0
 90 376.56 103.44 390 120 390 c 0
 136.56 390 150 376.56 150 360 c 0
 150 343.44 136.56 330 120 330 c 0
 103.44 330 90 343.44 90 360 c 0
330 200 m 0
 330 216.56 343.44 230 360 230 c 0
 376.56 230 390 216.56 390 200 c 0
 390 183.44 376.56 170 360 170 c 0
 343.44 170 330 183.44 330 200 c 0
10 200 m 0
 10 216.56 23.4404 230 40 230 c 0
 56.5596 230 70 216.56 70 200 c 0
 70 183.44 56.5596 170 40 170 c 0
 23.4404 170 10 183.44 10 200 c 0
330 120 m 0
 330 136.56 343.44 150 360 150 c 0
 376.56 150 390 136.56 390 120 c 0
 390 103.44 376.56 90 360 90 c 0
 343.44 90 330 103.44 330 120 c 0
10 120 m 0
 10 136.56 23.4404 150 40 150 c 0
 56.5596 150 70 136.56 70 120 c 0
 70 103.44 56.5596 90 40 90 c 0
 23.4404 90 10 103.44 10 120 c 0
250 40 m 0
 250 56.5596 263.44 70 280 70 c 0
 296.56 70 310 56.5596 310 40 c 0
 310 23.4404 296.56 10 280 10 c 0
 263.44 10 250 23.4404 250 40 c 0
170 40 m 0
 170 56.5596 183.44 70 200 70 c 0
 216.56 70 230 56.5596 230 40 c 0
 230 23.4404 216.56 10 200 10 c 0
 183.44 10 170 23.4404 170 40 c 0
90 40 m 0
 90 56.5596 103.44 70 120 70 c 0
 136.56 70 150 56.5596 150 40 c 0
 150 23.4404 136.56 10 120 10 c 0
 103.44 10 90 23.4404 90 40 c 0
EndSplineSet
Validated: 1
EndChar

StartChar: p
Encoding: 112 112 55
Width: 480
Flags: HW
LayerCount: 2
Fore
SplineSet
330 280 m 0
 330 296.56 343.44 310 360 310 c 0
 376.56 310 390 296.56 390 280 c 0
 390 263.44 376.56 250 360 250 c 0
 343.44 250 330 263.44 330 280 c 0
10 280 m 0
 10 296.56 23.4404 310 40 310 c 0
 56.5596 310 70 296.56 70 280 c 0
 70 263.44 56.5596 250 40 250 c 0
 23.4404 250 10 263.44 10 280 c 0
250 360 m 0
 250 376.56 263.44 390 280 390 c 0
 296.56 390 310 376.56 310 360 c 0
 310 343.44 296.56 330 280 330 c 0
 263.44 330 250 343.44 250 360 c 0
170 360 m 0
 170 376.56 183.44 390 200 390 c 0
 216.56 390 230 376.56 230 360 c 0
 230 343.44 216.56 330 200 330 c 0
 183.44 330 170 343.44 170 360 c 0
90 360 m 0
 90 376.56 103.44 390 120 390 c 0
 136.56 390 150 376.56 150 360 c 0
 150 343.44 136.56 330 120 330 c 0
 103.44 330 90 343.44 90 360 c 0
10 360 m 0
 10 376.56 23.4404 390 40 390 c 0
 56.5596 390 70 376.56 70 360 c 0
 70 343.44 56.5596 330 40 330 c 0
 23.4404 330 10 343.44 10 360 c 0
250 200 m 0
 250 216.56 263.44 230 280 230 c 0
 296.56 230 310 216.56 310 200 c 0
 310 183.44 296.56 170 280 170 c 0
 263.44 170 250 183.44 250 200 c 0
170 200 m 0
 170 216.56 183.44 230 200 230 c 0
 216.56 230 230 216.56 230 200 c 0
 230 183.44 216.56 170 200 170 c 0
 183.44 170 170 183.44 170 200 c 0
90 200 m 0
 90 216.56 103.44 230 120 230 c 0
 136.56 230 150 216.56 150 200 c 0
 150 183.44 136.56 170 120 170 c 0
 103.44 170 90 183.44 90 200 c 0
10 200 m 0
 10 216.56 23.4404 230 40 230 c 0
 56.5596 230 70 216.56 70 200 c 0
 70 183.44 56.5596 170 40 170 c 0
 23.4404 170 10 183.44 10 200 c 0
10 120 m 0
 10 136.56 23.4404 150 40 150 c 0
 56.5596 150 70 136.56 70 120 c 0
 70 103.44 56.5596 90 40 90 c 0
 23.4404 90 10 103.44 10 120 c 0
10 40 m 0
 10 56.5596 23.4404 70 40 70 c 0
 56.5596 70 70 56.5596 70 40 c 0
 70 23.4404 56.5596 10 40 10 c 0
 23.4404 10 10 23.4404 10 40 c 0
EndSplineSet
Validated: 1
EndChar

StartChar: q
Encoding: 113 113 56
Width: 480
Flags: HW
LayerCount: 2
Fore
SplineSet
330 280 m 0
 330 296.56 343.44 310 360 310 c 0
 376.56 310 390 296.56 390 280 c 0
 390 263.44 376.56 250 360 250 c 0
 343.44 250 330 263.44 330 280 c 0
10 280 m 0
 10 296.56 23.4404 310 40 310 c 0
 56.5596 310 70 296.56 70 280 c 0
 70 263.44 56.5596 250 40 250 c 0
 23.4404 250 10 263.44 10 280 c 0
330 360 m 0
 330 376.56 343.44 390 360 390 c 0
 376.56 390 390 376.56 390 360 c 0
 390 343.44 376.56 330 360 330 c 0
 343.44 330 330 343.44 330 360 c 0
250 360 m 0
 250 376.56 263.44 390 280 390 c 0
 296.56 390 310 376.56 310 360 c 0
 310 343.44 296.56 330 280 330 c 0
 263.44 330 250 343.44 250 360 c 0
170 360 m 0
 170 376.56 183.44 390 200 390 c 0
 216.56 390 230 376.56 230 360 c 0
 230 343.44 216.56 330 200 330 c 0
 183.44 330 170 343.44 170 360 c 0
90 360 m 0
 90 376.56 103.44 390 120 390 c 0
 136.56 390 150 376.56 150 360 c 0
 150 343.44 136.56 330 120 330 c 0
 103.44 330 90 343.44 90 360 c 0
330 200 m 0
 330 216.56 343.44 230 360 230 c 0
 376.56 230 390 216.56 390 200 c 0
 390 183.44 376.56 170 360 170 c 0
 343.44 170 330 183.44 330 200 c 0
250 200 m 0
 250 216.56 263.44 230 280 230 c 0
 296.56 230 310 216.56 310 200 c 0
 310 183.44 296.56 170 280 170 c 0
 263.44 170 250 183.44 250 200 c 0
170 200 m 0
 170 216.56 183.44 230 200 230 c 0
 216.56 230 230 216.56 230 200 c 0
 230 183.44 216.56 170 200 170 c 0
 183.44 170 170 183.44 170 200 c 0
90 200 m 0
 90 216.56 103.44 230 120 230 c 0
 136.56 230 150 216.56 150 200 c 0
 150 183.44 136.56 170 120 170 c 0
 103.44 170 90 183.44 90 200 c 0
330 120 m 0
 330 136.56 343.44 150 360 150 c 0
 376.56 150 390 136.56 390 120 c 0
 390 103.44 376.56 90 360 90 c 0
 343.44 90 330 103.44 330 120 c 0
330 40 m 0
 330 56.5596 343.44 70 360 70 c 0
 376.56 70 390 56.5596 390 40 c 0
 390 23.4404 376.56 10 360 10 c 0
 343.44 10 330 23.4404 330 40 c 0
EndSplineSet
Validated: 1
EndChar

StartChar: r
Encoding: 114 114 57
Width: 480
Flags: HW
LayerCount: 2
Fore
SplineSet
90 280 m 0
 90 296.56 103.44 310 120 310 c 0
 136.56 310 150 296.56 150 280 c 0
 150 263.44 136.56 250 120 250 c 0
 103.44 250 90 263.44 90 280 c 0
10 280 m 0
 10 296.56 23.4404 310 40 310 c 0
 56.5596 310 70 296.56 70 280 c 0
 70 263.44 56.5596 250 40 250 c 0
 23.4404 250 10 263.44 10 280 c 0
330 360 m 0
 330 376.56 343.44 390 360 390 c 0
 376.56 390 390 376.56 390 360 c 0
 390 343.44 376.56 330 360 330 c 0
 343.44 330 330 343.44 330 360 c 0
250 360 m 0
 250 376.56 263.44 390 280 390 c 0
 296.56 390 310 376.56 310 360 c 0
 310 343.44 296.56 330 280 330 c 0
 263.44 330 250 343.44 250 360 c 0
170 360 m 0
 170 376.56 183.44 390 200 390 c 0
 216.56 390 230 376.56 230 360 c 0
 230 343.44 216.56 330 200 330 c 0
 183.44 330 170 343.44 170 360 c 0
10 360 m 0
 10 376.56 23.4404 390 40 390 c 0
 56.5596 390 70 376.56 70 360 c 0
 70 343.44 56.5596 330 40 330 c 0
 23.4404 330 10 343.44 10 360 c 0
10 200 m 0
 10 216.56 23.4404 230 40 230 c 0
 56.5596 230 70 216.56 70 200 c 0
 70 183.44 56.5596 170 40 170 c 0
 23.4404 170 10 183.44 10 200 c 0
10 120 m 0
 10 136.56 23.4404 150 40 150 c 0
 56.5596 150 70 136.56 70 120 c 0
 70 103.44 56.5596 90 40 90 c 0
 23.4404 90 10 103.44 10 120 c 0
10 40 m 0
 10 56.5596 23.4404 70 40 70 c 0
 56.5596 70 70 56.5596 70 40 c 0
 70 23.4404 56.5596 10 40 10 c 0
 23.4404 10 10 23.4404 10 40 c 0
EndSplineSet
Validated: 1
EndChar

StartChar: s
Encoding: 115 115 58
Width: 480
Flags: HW
LayerCount: 2
Fore
SplineSet
10 280 m 0
 10 296.56 23.4404 310 40 310 c 0
 56.5596 310 70 296.56 70 280 c 0
 70 263.44 56.5596 250 40 250 c 0
 23.4404 250 10 263.44 10 280 c 0
330 360 m 0
 330 376.56 343.44 390 360 390 c 0
 376.56 390 390 376.56 390 360 c 0
 390 343.44 376.56 330 360 330 c 0
 343.44 330 330 343.44 330 360 c 0
250 360 m 0
 250 376.56 263.44 390 280 390 c 0
 296.56 390 310 376.56 310 360 c 0
 310 343.44 296.56 330 280 330 c 0
 263.44 330 250 343.44 250 360 c 0
170 360 m 0
 170 376.56 183.44 390 200 390 c 0
 216.56 390 230 376.56 230 360 c 0
 230 343.44 216.56 330 200 330 c 0
 183.44 330 170 343.44 170 360 c 0
90 360 m 0
 90 376.56 103.44 390 120 390 c 0
 136.56 390 150 376.56 150 360 c 0
 150 343.44 136.56 330 120 330 c 0
 103.44 330 90 343.44 90 360 c 0
250 200 m 0
 250 216.56 263.44 230 280 230 c 0
 296.56 230 310 216.56 310 200 c 0
 310 183.44 296.56 170 280 170 c 0
 263.44 170 250 183.44 250 200 c 0
170 200 m 0
 170 216.56 183.44 230 200 230 c 0
 216.56 230 230 216.56 230 200 c 0
 230 183.44 216.56 170 200 170 c 0
 183.44 170 170 183.44 170 200 c 0
90 200 m 0
 90 216.56 103.44 230 120 230 c 0
 136.56 230 150 216.56 150 200 c 0
 150 183.44 136.56 170 120 170 c 0
 103.44 170 90 183.44 90 200 c 0
330 120 m 0
 330 136.56 343.44 150 360 150 c 0
 376.56 150 390 136.56 390 120 c 0
 390 103.44 376.56 90 360 90 c 0
 343.44 90 330 103.44 330 120 c 0
250 40 m 0
 250 56.5596 263.44 70 280 70 c 0
 296.56 70 310 56.5596 310 40 c 0
 310 23.4404 296.56 10 280 10 c 0
 263.44 10 250 23.4404 250 40 c 0
170 40 m 0
 170 56.5596 183.44 70 200 70 c 0
 216.56 70 230 56.5596 230 40 c 0
 230 23.4404 216.56 10 200 10 c 0
 183.44 10 170 23.4404 170 40 c 0
90 40 m 0
 90 56.5596 103.44 70 120 70 c 0
 136.56 70 150 56.5596 150 40 c 0
 150 23.4404 136.56 10 120 10 c 0
 103.44 10 90 23.4404 90 40 c 0
10 40 m 0
 10 56.5596 23.4404 70 40 70 c 0
 56.5596 70 70 56.5596 70 40 c 0
 70 23.4404 56.5596 10 40 10 c 0
 23.4404 10 10 23.4404 10 40 c 0
EndSplineSet
Validated: 1
EndChar

StartChar: t
Encoding: 116 116 59
Width: 480
Flags: HW
LayerCount: 2
Fore
SplineSet
90 520 m 0
 90 536.56 103.44 550 120 550 c 0
 136.56 550 150 536.56 150 520 c 0
 150 503.44 136.56 490 120 490 c 0
 103.44 490 90 503.44 90 520 c 0
250 440 m 0
 250 456.56 263.44 470 280 470 c 0
 296.56 470 310 456.56 310 440 c 0
 310 423.44 296.56 410 280 410 c 0
 263.44 410 250 423.44 250 440 c 0
170 440 m 0
 170 456.56 183.44 470 200 470 c 0
 216.56 470 230 456.56 230 440 c 0
 230 423.44 216.56 410 200 410 c 0
 183.44 410 170 423.44 170 440 c 0
90 440 m 0
 90 456.56 103.44 470 120 470 c 0
 136.56 470 150 456.56 150 440 c 0
 150 423.44 136.56 410 120 410 c 0
 103.44 410 90 423.44 90 440 c 0
10 440 m 0
 10 456.56 23.4404 470 40 470 c 0
 56.5596 470 70 456.56 70 440 c 0
 70 423.44 56.5596 410 40 410 c 0
 23.4404 410 10 423.44 10 440 c 0
90 280 m 0
 90 296.56 103.44 310 120 310 c 0
 136.56 310 150 296.56 150 280 c 0
 150 263.44 136.56 250 120 250 c 0
 103.44 250 90 263.44 90 280 c 0
90 360 m 0
 90 376.56 103.44 390 120 390 c 0
 136.56 390 150 376.56 150 360 c 0
 150 343.44 136.56 330 120 330 c 0
 103.44 330 90 343.44 90 360 c 0
90 200 m 0
 90 216.56 103.44 230 120 230 c 0
 136.56 230 150 216.56 150 200 c 0
 150 183.44 136.56 170 120 170 c 0
 103.44 170 90 183.44 90 200 c 0
90 120 m 0
 90 136.56 103.44 150 120 150 c 0
 136.56 150 150 136.56 150 120 c 0
 150 103.44 136.56 90 120 90 c 0
 103.44 90 90 103.44 90 120 c 0
330 40 m 0
 330 56.5596 343.44 70 360 70 c 0
 376.56 70 390 56.5596 390 40 c 0
 390 23.4404 376.56 10 360 10 c 0
 343.44 10 330 23.4404 330 40 c 0
250 40 m 0
 250 56.5596 263.44 70 280 70 c 0
 296.56 70 310 56.5596 310 40 c 0
 310 23.4404 296.56 10 280 10 c 0
 263.44 10 250 23.4404 250 40 c 0
170 40 m 0
 170 56.5596 183.44 70 200 70 c 0
 216.56 70 230 56.5596 230 40 c 0
 230 23.4404 216.56 10 200 10 c 0
 183.44 10 170 23.4404 170 40 c 0
EndSplineSet
Validated: 1
EndChar

StartChar: u
Encoding: 117 117 60
Width: 480
Flags: HW
LayerCount: 2
Fore
SplineSet
330 280 m 0
 330 296.56 343.44 310 360 310 c 0
 376.56 310 390 296.56 390 280 c 0
 390 263.44 376.56 250 360 250 c 0
 343.44 250 330 263.44 330 280 c 0
10 280 m 0
 10 296.56 23.4404 310 40 310 c 0
 56.5596 310 70 296.56 70 280 c 0
 70 263.44 56.5596 250 40 250 c 0
 23.4404 250 10 263.44 10 280 c 0
330 360 m 0
 330 376.56 343.44 390 360 390 c 0
 376.56 390 390 376.56 390 360 c 0
 390 343.44 376.56 330 360 330 c 0
 343.44 330 330 343.44 330 360 c 0
10 360 m 0
 10 376.56 23.4404 390 40 390 c 0
 56.5596 390 70 376.56 70 360 c 0
 70 343.44 56.5596 330 40 330 c 0
 23.4404 330 10 343.44 10 360 c 0
330 200 m 0
 330 216.56 343.44 230 360 230 c 0
 376.56 230 390 216.56 390 200 c 0
 390 183.44 376.56 170 360 170 c 0
 343.44 170 330 183.44 330 200 c 0
10 200 m 0
 10 216.56 23.4404 230 40 230 c 0
 56.5596 230 70 216.56 70 200 c 0
 70 183.44 56.5596 170 40 170 c 0
 23.4404 170 10 183.44 10 200 c 0
330 120 m 0
 330 136.56 343.44 150 360 150 c 0
 376.56 150 390 136.56 390 120 c 0
 390 103.44 376.56 90 360 90 c 0
 343.44 90 330 103.44 330 120 c 0
10 120 m 0
 10 136.56 23.4404 150 40 150 c 0
 56.5596 150 70 136.56 70 120 c 0
 70 103.44 56.5596 90 40 90 c 0
 23.4404 90 10 103.44 10 120 c 0
330 40 m 0
 330 56.5596 343.44 70 360 70 c 0
 376.56 70 390 56.5596 390 40 c 0
 390 23.4404 376.56 10 360 10 c 0
 343.44 10 330 23.4404 330 40 c 0
250 40 m 0
 250 56.5596 263.44 70 280 70 c 0
 296.56 70 310 56.5596 310 40 c 0
 310 23.4404 296.56 10 280 10 c 0
 263.44 10 250 23.4404 250 40 c 0
170 40 m 0
 170 56.5596 183.44 70 200 70 c 0
 216.56 70 230 56.5596 230 40 c 0
 230 23.4404 216.56 10 200 10 c 0
 183.44 10 170 23.4404 170 40 c 0
90 40 m 0
 90 56.5596 103.44 70 120 70 c 0
 136.56 70 150 56.5596 150 40 c 0
 150 23.4404 136.56 10 120 10 c 0
 103.44 10 90 23.4404 90 40 c 0
EndSplineSet
Validated: 1
EndChar

StartChar: v
Encoding: 118 118 61
Width: 480
Flags: HW
LayerCount: 2
Fore
SplineSet
330 280 m 0
 330 296.56 343.44 310 360 310 c 0
 376.56 310 390 296.56 390 280 c 0
 390 263.44 376.56 250 360 250 c 0
 343.44 250 330 263.44 330 280 c 0
10 280 m 0
 10 296.56 23.4404 310 40 310 c 0
 56.5596 310 70 296.56 70 280 c 0
 70 263.44 56.5596 250 40 250 c 0
 23.4404 250 10 263.44 10 280 c 0
330 360 m 0
 330 376.56 343.44 390 360 390 c 0
 376.56 390 390 376.56 390 360 c 0
 390 343.44 376.56 330 360 330 c 0
 343.44 330 330 343.44 330 360 c 0
10 360 m 0
 10 376.56 23.4404 390 40 390 c 0
 56.5596 390 70 376.56 70 360 c 0
 70 343.44 56.5596 330 40 330 c 0
 23.4404 330 10 343.44 10 360 c 0
330 200 m 0
 330 216.56 343.44 230 360 230 c 0
 376.56 230 390 216.56 390 200 c 0
 390 183.44 376.56 170 360 170 c 0
 343.44 170 330 183.44 330 200 c 0
10 200 m 0
 10 216.56 23.4404 230 40 230 c 0
 56.5596 230 70 216.56 70 200 c 0
 70 183.44 56.5596 170 40 170 c 0
 23.4404 170 10 183.44 10 200 c 0
250 120 m 0
 250 136.56 263.44 150 280 150 c 0
 296.56 150 310 136.56 310 120 c 0
 310 103.44 296.56 90 280 90 c 0
 263.44 90 250 103.44 250 120 c 0
90 120 m 0
 90 136.56 103.44 150 120 150 c 0
 136.56 150 150 136.56 150 120 c 0
 150 103.44 136.56 90 120 90 c 0
 103.44 90 90 103.44 90 120 c 0
170 40 m 0
 170 56.5596 183.44 70 200 70 c 0
 216.56 70 230 56.5596 230 40 c 0
 230 23.4404 216.56 10 200 10 c 0
 183.44 10 170 23.4404 170 40 c 0
EndSplineSet
Validated: 1
EndChar

StartChar: w
Encoding: 119 119 62
Width: 480
Flags: HW
LayerCount: 2
Fore
SplineSet
330 280 m 0
 330 296.56 343.44 310 360 310 c 0
 376.56 310 390 296.56 390 280 c 0
 390 263.44 376.56 250 360 250 c 0
 343.44 250 330 263.44 330 280 c 0
10 280 m 0
 10 296.56 23.4404 310 40 310 c 0
 56.5596 310 70 296.56 70 280 c 0
 70 263.44 56.5596 250 40 250 c 0
 23.4404 250 10 263.44 10 280 c 0
330 360 m 0
 330 376.56 343.44 390 360 390 c 0
 376.56 390 390 376.56 390 360 c 0
 390 343.44 376.56 330 360 330 c 0
 343.44 330 330 343.44 330 360 c 0
10 360 m 0
 10 376.56 23.4404 390 40 390 c 0
 56.5596 390 70 376.56 70 360 c 0
 70 343.44 56.5596 330 40 330 c 0
 23.4404 330 10 343.44 10 360 c 0
330 200 m 0
 330 216.56 343.44 230 360 230 c 0
 376.56 230 390 216.56 390 200 c 0
 390 183.44 376.56 170 360 170 c 0
 343.44 170 330 183.44 330 200 c 0
170 200 m 0
 170 216.56 183.44 230 200 230 c 0
 216.56 230 230 216.56 230 200 c 0
 230 183.44 216.56 170 200 170 c 0
 183.44 170 170 183.44 170 200 c 0
10 200 m 0
 10 216.56 23.4404 230 40 230 c 0
 56.5596 230 70 216.56 70 200 c 0
 70 183.44 56.5596 170 40 170 c 0
 23.4404 170 10 183.44 10 200 c 0
330 120 m 0
 330 136.56 343.44 150 360 150 c 0
 376.56 150 390 136.56 390 120 c 0
 390 103.44 376.56 90 360 90 c 0
 343.44 90 330 103.44 330 120 c 0
170 120 m 0
 170 136.56 183.44 150 200 150 c 0
 216.56 150 230 136.56 230 120 c 0
 230 103.44 216.56 90 200 90 c 0
 183.44 90 170 103.44 170 120 c 0
10 120 m 0
 10 136.56 23.4404 150 40 150 c 0
 56.5596 150 70 136.56 70 120 c 0
 70 103.44 56.5596 90 40 90 c 0
 23.4404 90 10 103.44 10 120 c 0
250 40 m 0
 250 56.5596 263.44 70 280 70 c 0
 296.56 70 310 56.5596 310 40 c 0
 310 23.4404 296.56 10 280 10 c 0
 263.44 10 250 23.4404 250 40 c 0
90 40 m 0
 90 56.5596 103.44 70 120 70 c 0
 136.56 70 150 56.5596 150 40 c 0
 150 23.4404 136.56 10 120 10 c 0
 103.44 10 90 23.4404 90 40 c 0
EndSplineSet
Validated: 1
EndChar

StartChar: x
Encoding: 120 120 63
Width: 480
Flags: HW
LayerCount: 2
Fore
SplineSet
250 280 m 0
 250 296.56 263.44 310 280 310 c 0
 296.56 310 310 296.56 310 280 c 0
 310 263.44 296.56 250 280 250 c 0
 263.44 250 250 263.44 250 280 c 0
90 280 m 0
 90 296.56 103.44 310 120 310 c 0
 136.56 310 150 296.56 150 280 c 0
 150 263.44 136.56 250 120 250 c 0
 103.44 250 90 263.44 90 280 c 0
330 360 m 0
 330 376.56 343.44 390 360 390 c 0
 376.56 390 390 376.56 390 360 c 0
 390 343.44 376.56 330 360 330 c 0
 343.44 330 330 343.44 330 360 c 0
10 360 m 0
 10 376.56 23.4404 390 40 390 c 0
 56.5596 390 70 376.56 70 360 c 0
 70 343.44 56.5596 330 40 330 c 0
 23.4404 330 10 343.44 10 360 c 0
170 200 m 0
 170 216.56 183.44 230 200 230 c 0
 216.56 230 230 216.56 230 200 c 0
 230 183.44 216.56 170 200 170 c 0
 183.44 170 170 183.44 170 200 c 0
250 120 m 0
 250 136.56 263.44 150 280 150 c 0
 296.56 150 310 136.56 310 120 c 0
 310 103.44 296.56 90 280 90 c 0
 263.44 90 250 103.44 250 120 c 0
90 120 m 0
 90 136.56 103.44 150 120 150 c 0
 136.56 150 150 136.56 150 120 c 0
 150 103.44 136.56 90 120 90 c 0
 103.44 90 90 103.44 90 120 c 0
330 40 m 0
 330 56.5596 343.44 70 360 70 c 0
 376.56 70 390 56.5596 390 40 c 0
 390 23.4404 376.56 10 360 10 c 0
 343.44 10 330 23.4404 330 40 c 0
10 40 m 0
 10 56.5596 23.4404 70 40 70 c 0
 56.5596 70 70 56.5596 70 40 c 0
 70 23.4404 56.5596 10 40 10 c 0
 23.4404 10 10 23.4404 10 40 c 0
EndSplineSet
Validated: 1
EndChar

StartChar: y
Encoding: 121 121 64
Width: 480
Flags: HW
LayerCount: 2
Fore
SplineSet
330 280 m 0
 330 296.56 343.44 310 360 310 c 0
 376.56 310 390 296.56 390 280 c 0
 390 263.44 376.56 250 360 250 c 0
 343.44 250 330 263.44 330 280 c 0
10 280 m 0
 10 296.56 23.4404 310 40 310 c 0
 56.5596 310 70 296.56 70 280 c 0
 70 263.44 56.5596 250 40 250 c 0
 23.4404 250 10 263.44 10 280 c 0
330 360 m 0
 330 376.56 343.44 390 360 390 c 0
 376.56 390 390 376.56 390 360 c 0
 390 343.44 376.56 330 360 330 c 0
 343.44 330 330 343.44 330 360 c 0
10 360 m 0
 10 376.56 23.4404 390 40 390 c 0
 56.5596 390 70 376.56 70 360 c 0
 70 343.44 56.5596 330 40 330 c 0
 23.4404 330 10 343.44 10 360 c 0
330 200 m 0
 330 216.56 343.44 230 360 230 c 0
 376.56 230 390 216.56 390 200 c 0
 390 183.44 376.56 170 360 170 c 0
 343.44 170 330 183.44 330 200 c 0
250 200 m 0
 250 216.56 263.44 230 280 230 c 0
 296.56 230 310 216.56 310 200 c 0
 310 183.44 296.56 170 280 170 c 0
 263.44 170 250 183.44 250 200 c 0
170 200 m 0
 170 216.56 183.44 230 200 230 c 0
 216.56 230 230 216.56 230 200 c 0
 230 183.44 216.56 170 200 170 c 0
 183.44 170 170 183.44 170 200 c 0
90 200 m 0
 90 216.56 103.44 230 120 230 c 0
 136.56 230 150 216.56 150 200 c 0
 150 183.44 136.56 170 120 170 c 0
 103.44 170 90 183.44 90 200 c 0
330 120 m 0
 330 136.56 343.44 150 360 150 c 0
 376.56 150 390 136.56 390 120 c 0
 390 103.44 376.56 90 360 90 c 0
 343.44 90 330 103.44 330 120 c 0
250 40 m 0
 250 56.5596 263.44 70 280 70 c 0
 296.56 70 310 56.5596 310 40 c 0
 310 23.4404 296.56 10 280 10 c 0
 263.44 10 250 23.4404 250 40 c 0
170 40 m 0
 170 56.5596 183.44 70 200 70 c 0
 216.56 70 230 56.5596 230 40 c 0
 230 23.4404 216.56 10 200 10 c 0
 183.44 10 170 23.4404 170 40 c 0
90 40 m 0
 90 56.5596 103.44 70 120 70 c 0
 136.56 70 150 56.5596 150 40 c 0
 150 23.4404 136.56 10 120 10 c 0
 103.44 10 90 23.4404 90 40 c 0
EndSplineSet
Validated: 1
EndChar

StartChar: z
Encoding: 122 122 65
Width: 480
Flags: HW
LayerCount: 2
Fore
SplineSet
250 280 m 0
 250 296.56 263.44 310 280 310 c 0
 296.56 310 310 296.56 310 280 c 0
 310 263.44 296.56 250 280 250 c 0
 263.44 250 250 263.44 250 280 c 0
330 360 m 0
 330 376.56 343.44 390 360 390 c 0
 376.56 390 390 376.56 390 360 c 0
 390 343.44 376.56 330 360 330 c 0
 343.44 330 330 343.44 330 360 c 0
250 360 m 0
 250 376.56 263.44 390 280 390 c 0
 296.56 390 310 376.56 310 360 c 0
 310 343.44 296.56 330 280 330 c 0
 263.44 330 250 343.44 250 360 c 0
170 360 m 0
 170 376.56 183.44 390 200 390 c 0
 216.56 390 230 376.56 230 360 c 0
 230 343.44 216.56 330 200 330 c 0
 183.44 330 170 343.44 170 360 c 0
90 360 m 0
 90 376.56 103.44 390 120 390 c 0
 136.56 390 150 376.56 150 360 c 0
 150 343.44 136.56 330 120 330 c 0
 103.44 330 90 343.44 90 360 c 0
10 360 m 0
 10 376.56 23.4404 390 40 390 c 0
 56.5596 390 70 376.56 70 360 c 0
 70 343.44 56.5596 330 40 330 c 0
 23.4404 330 10 343.44 10 360 c 0
170 200 m 0
 170 216.56 183.44 230 200 230 c 0
 216.56 230 230 216.56 230 200 c 0
 230 183.44 216.56 170 200 170 c 0
 183.44 170 170 183.44 170 200 c 0
90 120 m 0
 90 136.56 103.44 150 120 150 c 0
 136.56 150 150 136.56 150 120 c 0
 150 103.44 136.56 90 120 90 c 0
 103.44 90 90 103.44 90 120 c 0
330 40 m 0
 330 56.5596 343.44 70 360 70 c 0
 376.56 70 390 56.5596 390 40 c 0
 390 23.4404 376.56 10 360 10 c 0
 343.44 10 330 23.4404 330 40 c 0
250 40 m 0
 250 56.5596 263.44 70 280 70 c 0
 296.56 70 310 56.5596 310 40 c 0
 310 23.4404 296.56 10 280 10 c 0
 263.44 10 250 23.4404 250 40 c 0
170 40 m 0
 170 56.5596 183.44 70 200 70 c 0
 216.56 70 230 56.5596 230 40 c 0
 230 23.4404 216.56 10 200 10 c 0
 183.44 10 170 23.4404 170 40 c 0
90 40 m 0
 90 56.5596 103.44 70 120 70 c 0
 136.56 70 150 56.5596 150 40 c 0
 150 23.4404 136.56 10 120 10 c 0
 103.44 10 90 23.4404 90 40 c 0
10 40 m 0
 10 56.5596 23.4404 70 40 70 c 0
 56.5596 70 70 56.5596 70 40 c 0
 70 23.4404 56.5596 10 40 10 c 0
 23.4404 10 10 23.4404 10 40 c 0
EndSplineSet
Validated: 1
EndChar

StartChar: ntilde
Encoding: 241 241 66
Width: 480
Flags: HW
LayerCount: 2
Fore
SplineSet
330 520 m 0
 330 536.56 343.44 550 360 550 c 0
 376.56 550 390 536.56 390 520 c 0
 390 503.44 376.56 490 360 490 c 0
 343.44 490 330 503.44 330 520 c 0
250 520 m 0
 250 536.56 263.44 550 280 550 c 0
 296.56 550 310 536.56 310 520 c 0
 310 503.44 296.56 490 280 490 c 0
 263.44 490 250 503.44 250 520 c 0
170 520 m 0
 170 536.56 183.44 550 200 550 c 0
 216.56 550 230 536.56 230 520 c 0
 230 503.44 216.56 490 200 490 c 0
 183.44 490 170 503.44 170 520 c 0
90 520 m 0
 90 536.56 103.44 550 120 550 c 0
 136.56 550 150 536.56 150 520 c 0
 150 503.44 136.56 490 120 490 c 0
 103.44 490 90 503.44 90 520 c 0
10 520 m 0
 10 536.56 23.4404 550 40 550 c 0
 56.5596 550 70 536.56 70 520 c 0
 70 503.44 56.5596 490 40 490 c 0
 23.4404 490 10 503.44 10 520 c 0
330 280 m 0
 330 296.56 343.44 310 360 310 c 0
 376.56 310 390 296.56 390 280 c 0
 390 263.44 376.56 250 360 250 c 0
 343.44 250 330 263.44 330 280 c 0
10 280 m 0
 10 296.56 23.4404 310 40 310 c 0
 56.5596 310 70 296.56 70 280 c 0
 70 263.44 56.5596 250 40 250 c 0
 23.4404 250 10 263.44 10 280 c 0
250 360 m 0
 250 376.56 263.44 390 280 390 c 0
 296.56 390 310 376.56 310 360 c 0
 310 343.44 296.56 330 280 330 c 0
 263.44 330 250 343.44 250 360 c 0
170 360 m 0
 170 376.56 183.44 390 200 390 c 0
 216.56 390 230 376.56 230 360 c 0
 230 343.44 216.56 330 200 330 c 0
 183.44 330 170 343.44 170 360 c 0
90 360 m 0
 90 376.56 103.44 390 120 390 c 0
 136.56 390 150 376.56 150 360 c 0
 150 343.44 136.56 330 120 330 c 0
 103.44 330 90 343.44 90 360 c 0
10 360 m 0
 10 376.56 23.4404 390 40 390 c 0
 56.5596 390 70 376.56 70 360 c 0
 70 343.44 56.5596 330 40 330 c 0
 23.4404 330 10 343.44 10 360 c 0
330 200 m 0
 330 216.56 343.44 230 360 230 c 0
 376.56 230 390 216.56 390 200 c 0
 390 183.44 376.56 170 360 170 c 0
 343.44 170 330 183.44 330 200 c 0
10 200 m 0
 10 216.56 23.4404 230 40 230 c 0
 56.5596 230 70 216.56 70 200 c 0
 70 183.44 56.5596 170 40 170 c 0
 23.4404 170 10 183.44 10 200 c 0
330 120 m 0
 330 136.56 343.44 150 360 150 c 0
 376.56 150 390 136.56 390 120 c 0
 390 103.44 376.56 90 360 90 c 0
 343.44 90 330 103.44 330 120 c 0
10 120 m 0
 10 136.56 23.4404 150 40 150 c 0
 56.5596 150 70 136.56 70 120 c 0
 70 103.44 56.5596 90 40 90 c 0
 23.4404 90 10 103.44 10 120 c 0
330 40 m 0
 330 56.5596 343.44 70 360 70 c 0
 376.56 70 390 56.5596 390 40 c 0
 390 23.4404 376.56 10 360 10 c 0
 343.44 10 330 23.4404 330 40 c 0
10 40 m 0
 10 56.5596 23.4404 70 40 70 c 0
 56.5596 70 70 56.5596 70 40 c 0
 70 23.4404 56.5596 10 40 10 c 0
 23.4404 10 10 23.4404 10 40 c 0
EndSplineSet
Validated: 1
EndChar

StartChar: Ccedilla
Encoding: 199 199 67
Width: 480
Flags: HW
LayerCount: 2
Fore
SplineSet
250 520 m 0
 250 536.56 263.44 550 280 550 c 0
 296.56 550 310 536.56 310 520 c 0
 310 503.44 296.56 490 280 490 c 0
 263.44 490 250 503.44 250 520 c 0
170 520 m 0
 170 536.56 183.44 550 200 550 c 0
 216.56 550 230 536.56 230 520 c 0
 230 503.44 216.56 490 200 490 c 0
 183.44 490 170 503.44 170 520 c 0
90 520 m 0
 90 536.56 103.44 550 120 550 c 0
 136.56 550 150 536.56 150 520 c 0
 150 503.44 136.56 490 120 490 c 0
 103.44 490 90 503.44 90 520 c 0
330 440 m 0
 330 456.56 343.44 470 360 470 c 0
 376.56 470 390 456.56 390 440 c 0
 390 423.44 376.56 410 360 410 c 0
 343.44 410 330 423.44 330 440 c 0
10 440 m 0
 10 456.56 23.4404 470 40 470 c 0
 56.5596 470 70 456.56 70 440 c 0
 70 423.44 56.5596 410 40 410 c 0
 23.4404 410 10 423.44 10 440 c 0
10 280 m 0
 10 296.56 23.4404 310 40 310 c 0
 56.5596 310 70 296.56 70 280 c 0
 70 263.44 56.5596 250 40 250 c 0
 23.4404 250 10 263.44 10 280 c 0
10 360 m 0
 10 376.56 23.4404 390 40 390 c 0
 56.5596 390 70 376.56 70 360 c 0
 70 343.44 56.5596 330 40 330 c 0
 23.4404 330 10 343.44 10 360 c 0
330 200 m 0
 330 216.56 343.44 230 360 230 c 0
 376.56 230 390 216.56 390 200 c 0
 390 183.44 376.56 170 360 170 c 0
 343.44 170 330 183.44 330 200 c 0
10 200 m 0
 10 216.56 23.4404 230 40 230 c 0
 56.5596 230 70 216.56 70 200 c 0
 70 183.44 56.5596 170 40 170 c 0
 23.4404 170 10 183.44 10 200 c 0
250 120 m 0
 250 136.56 263.44 150 280 150 c 0
 296.56 150 310 136.56 310 120 c 0
 310 103.44 296.56 90 280 90 c 0
 263.44 90 250 103.44 250 120 c 0
170 120 m 0
 170 136.56 183.44 150 200 150 c 0
 216.56 150 230 136.56 230 120 c 0
 230 103.44 216.56 90 200 90 c 0
 183.44 90 170 103.44 170 120 c 0
90 120 m 0
 90 136.56 103.44 150 120 150 c 0
 136.56 150 150 136.56 150 120 c 0
 150 103.44 136.56 90 120 90 c 0
 103.44 90 90 103.44 90 120 c 0
170 40 m 0
 170 56.5596 183.44 70 200 70 c 0
 216.56 70 230 56.5596 230 40 c 0
 230 23.4404 216.56 10 200 10 c 0
 183.44 10 170 23.4404 170 40 c 0
EndSplineSet
Validated: 1
EndChar

StartChar: ccedilla
Encoding: 231 231 68
Width: 480
Flags: HW
LayerCount: 2
Fore
SplineSet
10 280 m 0
 10 296.56 23.4404 310 40 310 c 0
 56.5596 310 70 296.56 70 280 c 0
 70 263.44 56.5596 250 40 250 c 0
 23.4404 250 10 263.44 10 280 c 0
250 360 m 0
 250 376.56 263.44 390 280 390 c 0
 296.56 390 310 376.56 310 360 c 0
 310 343.44 296.56 330 280 330 c 0
 263.44 330 250 343.44 250 360 c 0
170 360 m 0
 170 376.56 183.44 390 200 390 c 0
 216.56 390 230 376.56 230 360 c 0
 230 343.44 216.56 330 200 330 c 0
 183.44 330 170 343.44 170 360 c 0
90 360 m 0
 90 376.56 103.44 390 120 390 c 0
 136.56 390 150 376.56 150 360 c 0
 150 343.44 136.56 330 120 330 c 0
 103.44 330 90 343.44 90 360 c 0
330 200 m 0
 330 216.56 343.44 230 360 230 c 0
 376.56 230 390 216.56 390 200 c 0
 390 183.44 376.56 170 360 170 c 0
 343.44 170 330 183.44 330 200 c 0
10 200 m 0
 10 216.56 23.4404 230 40 230 c 0
 56.5596 230 70 216.56 70 200 c 0
 70 183.44 56.5596 170 40 170 c 0
 23.4404 170 10 183.44 10 200 c 0
250 120 m 0
 250 136.56 263.44 150 280 150 c 0
 296.56 150 310 136.56 310 120 c 0
 310 103.44 296.56 90 280 90 c 0
 263.44 90 250 103.44 250 120 c 0
170 120 m 0
 170 136.56 183.44 150 200 150 c 0
 216.56 150 230 136.56 230 120 c 0
 230 103.44 216.56 90 200 90 c 0
 183.44 90 170 103.44 170 120 c 0
90 120 m 0
 90 136.56 103.44 150 120 150 c 0
 136.56 150 150 136.56 150 120 c 0
 150 103.44 136.56 90 120 90 c 0
 103.44 90 90 103.44 90 120 c 0
170 40 m 0
 170 56.5596 183.44 70 200 70 c 0
 216.56 70 230 56.5596 230 40 c 0
 230 23.4404 216.56 10 200 10 c 0
 183.44 10 170 23.4404 170 40 c 0
EndSplineSet
Validated: 1
EndChar

StartChar: egrave
Encoding: 232 232 69
Width: 480
Flags: HW
LayerCount: 2
Fore
SplineSet
90 520 m 4
 90 536.56 103.44 550 120 550 c 4
 136.56 550 150 536.56 150 520 c 4
 150 503.44 136.56 490 120 490 c 4
 103.44 490 90 503.44 90 520 c 4
170 440 m 0
 170 456.56 183.44 470 200 470 c 0
 216.56 470 230 456.56 230 440 c 0
 230 423.44 216.56 410 200 410 c 0
 183.44 410 170 423.44 170 440 c 0
330 280 m 0
 330 296.56 343.44 310 360 310 c 0
 376.56 310 390 296.56 390 280 c 0
 390 263.44 376.56 250 360 250 c 0
 343.44 250 330 263.44 330 280 c 0
10 280 m 0
 10 296.56 23.4404 310 40 310 c 0
 56.5596 310 70 296.56 70 280 c 0
 70 263.44 56.5596 250 40 250 c 0
 23.4404 250 10 263.44 10 280 c 0
250 360 m 0
 250 376.56 263.44 390 280 390 c 0
 296.56 390 310 376.56 310 360 c 0
 310 343.44 296.56 330 280 330 c 0
 263.44 330 250 343.44 250 360 c 0
170 360 m 0
 170 376.56 183.44 390 200 390 c 0
 216.56 390 230 376.56 230 360 c 0
 230 343.44 216.56 330 200 330 c 0
 183.44 330 170 343.44 170 360 c 0
90 360 m 0
 90 376.56 103.44 390 120 390 c 0
 136.56 390 150 376.56 150 360 c 0
 150 343.44 136.56 330 120 330 c 0
 103.44 330 90 343.44 90 360 c 0
330 200 m 0
 330 216.56 343.44 230 360 230 c 0
 376.56 230 390 216.56 390 200 c 0
 390 183.44 376.56 170 360 170 c 0
 343.44 170 330 183.44 330 200 c 0
250 200 m 0
 250 216.56 263.44 230 280 230 c 0
 296.56 230 310 216.56 310 200 c 0
 310 183.44 296.56 170 280 170 c 0
 263.44 170 250 183.44 250 200 c 0
170 200 m 0
 170 216.56 183.44 230 200 230 c 0
 216.56 230 230 216.56 230 200 c 0
 230 183.44 216.56 170 200 170 c 0
 183.44 170 170 183.44 170 200 c 0
90 200 m 0
 90 216.56 103.44 230 120 230 c 0
 136.56 230 150 216.56 150 200 c 0
 150 183.44 136.56 170 120 170 c 0
 103.44 170 90 183.44 90 200 c 0
10 200 m 0
 10 216.56 23.4404 230 40 230 c 0
 56.5596 230 70 216.56 70 200 c 0
 70 183.44 56.5596 170 40 170 c 0
 23.4404 170 10 183.44 10 200 c 0
10 120 m 0
 10 136.56 23.4404 150 40 150 c 0
 56.5596 150 70 136.56 70 120 c 0
 70 103.44 56.5596 90 40 90 c 0
 23.4404 90 10 103.44 10 120 c 0
330 40 m 0
 330 56.5596 343.44 70 360 70 c 0
 376.56 70 390 56.5596 390 40 c 0
 390 23.4404 376.56 10 360 10 c 0
 343.44 10 330 23.4404 330 40 c 0
250 40 m 0
 250 56.5596 263.44 70 280 70 c 0
 296.56 70 310 56.5596 310 40 c 0
 310 23.4404 296.56 10 280 10 c 0
 263.44 10 250 23.4404 250 40 c 0
170 40 m 0
 170 56.5596 183.44 70 200 70 c 0
 216.56 70 230 56.5596 230 40 c 0
 230 23.4404 216.56 10 200 10 c 0
 183.44 10 170 23.4404 170 40 c 0
90 40 m 0
 90 56.5596 103.44 70 120 70 c 0
 136.56 70 150 56.5596 150 40 c 0
 150 23.4404 136.56 10 120 10 c 0
 103.44 10 90 23.4404 90 40 c 0
EndSplineSet
Validated: 1
EndChar

StartChar: eacute
Encoding: 233 233 70
Width: 480
Flags: HW
LayerCount: 2
Fore
SplineSet
250 520 m 0
 250 536.56 263.44 550 280 550 c 0
 296.56 550 310 536.56 310 520 c 0
 310 503.44 296.56 490 280 490 c 0
 263.44 490 250 503.44 250 520 c 0
170 440 m 0
 170 456.56 183.44 470 200 470 c 0
 216.56 470 230 456.56 230 440 c 0
 230 423.44 216.56 410 200 410 c 0
 183.44 410 170 423.44 170 440 c 0
330 280 m 0
 330 296.56 343.44 310 360 310 c 0
 376.56 310 390 296.56 390 280 c 0
 390 263.44 376.56 250 360 250 c 0
 343.44 250 330 263.44 330 280 c 0
10 280 m 0
 10 296.56 23.4404 310 40 310 c 0
 56.5596 310 70 296.56 70 280 c 0
 70 263.44 56.5596 250 40 250 c 0
 23.4404 250 10 263.44 10 280 c 0
250 360 m 0
 250 376.56 263.44 390 280 390 c 0
 296.56 390 310 376.56 310 360 c 0
 310 343.44 296.56 330 280 330 c 0
 263.44 330 250 343.44 250 360 c 0
170 360 m 0
 170 376.56 183.44 390 200 390 c 0
 216.56 390 230 376.56 230 360 c 0
 230 343.44 216.56 330 200 330 c 0
 183.44 330 170 343.44 170 360 c 0
90 360 m 0
 90 376.56 103.44 390 120 390 c 0
 136.56 390 150 376.56 150 360 c 0
 150 343.44 136.56 330 120 330 c 0
 103.44 330 90 343.44 90 360 c 0
330 200 m 0
 330 216.56 343.44 230 360 230 c 0
 376.56 230 390 216.56 390 200 c 0
 390 183.44 376.56 170 360 170 c 0
 343.44 170 330 183.44 330 200 c 0
250 200 m 0
 250 216.56 263.44 230 280 230 c 0
 296.56 230 310 216.56 310 200 c 0
 310 183.44 296.56 170 280 170 c 0
 263.44 170 250 183.44 250 200 c 0
170 200 m 0
 170 216.56 183.44 230 200 230 c 0
 216.56 230 230 216.56 230 200 c 0
 230 183.44 216.56 170 200 170 c 0
 183.44 170 170 183.44 170 200 c 0
90 200 m 0
 90 216.56 103.44 230 120 230 c 0
 136.56 230 150 216.56 150 200 c 0
 150 183.44 136.56 170 120 170 c 0
 103.44 170 90 183.44 90 200 c 0
10 200 m 0
 10 216.56 23.4404 230 40 230 c 0
 56.5596 230 70 216.56 70 200 c 0
 70 183.44 56.5596 170 40 170 c 0
 23.4404 170 10 183.44 10 200 c 0
10 120 m 0
 10 136.56 23.4404 150 40 150 c 0
 56.5596 150 70 136.56 70 120 c 0
 70 103.44 56.5596 90 40 90 c 0
 23.4404 90 10 103.44 10 120 c 0
330 40 m 0
 330 56.5596 343.44 70 360 70 c 0
 376.56 70 390 56.5596 390 40 c 0
 390 23.4404 376.56 10 360 10 c 0
 343.44 10 330 23.4404 330 40 c 0
250 40 m 0
 250 56.5596 263.44 70 280 70 c 0
 296.56 70 310 56.5596 310 40 c 0
 310 23.4404 296.56 10 280 10 c 0
 263.44 10 250 23.4404 250 40 c 0
170 40 m 0
 170 56.5596 183.44 70 200 70 c 0
 216.56 70 230 56.5596 230 40 c 0
 230 23.4404 216.56 10 200 10 c 0
 183.44 10 170 23.4404 170 40 c 0
90 40 m 0
 90 56.5596 103.44 70 120 70 c 0
 136.56 70 150 56.5596 150 40 c 0
 150 23.4404 136.56 10 120 10 c 0
 103.44 10 90 23.4404 90 40 c 0
EndSplineSet
Validated: 1
EndChar

StartChar: ecircumflex
Encoding: 234 234 71
Width: 480
Flags: HW
LayerCount: 2
Fore
SplineSet
170 520 m 0
 170 536.56 183.44 550 200 550 c 0
 216.56 550 230 536.56 230 520 c 0
 230 503.44 216.56 490 200 490 c 0
 183.44 490 170 503.44 170 520 c 0
250 440 m 0
 250 456.56 263.44 470 280 470 c 0
 296.56 470 310 456.56 310 440 c 0
 310 423.44 296.56 410 280 410 c 0
 263.44 410 250 423.44 250 440 c 0
90 440 m 0
 90 456.56 103.44 470 120 470 c 0
 136.56 470 150 456.56 150 440 c 0
 150 423.44 136.56 410 120 410 c 0
 103.44 410 90 423.44 90 440 c 0
330 280 m 0
 330 296.56 343.44 310 360 310 c 0
 376.56 310 390 296.56 390 280 c 0
 390 263.44 376.56 250 360 250 c 0
 343.44 250 330 263.44 330 280 c 0
10 280 m 0
 10 296.56 23.4404 310 40 310 c 0
 56.5596 310 70 296.56 70 280 c 0
 70 263.44 56.5596 250 40 250 c 0
 23.4404 250 10 263.44 10 280 c 0
250 360 m 0
 250 376.56 263.44 390 280 390 c 0
 296.56 390 310 376.56 310 360 c 0
 310 343.44 296.56 330 280 330 c 0
 263.44 330 250 343.44 250 360 c 0
170 360 m 0
 170 376.56 183.44 390 200 390 c 0
 216.56 390 230 376.56 230 360 c 0
 230 343.44 216.56 330 200 330 c 0
 183.44 330 170 343.44 170 360 c 0
90 360 m 0
 90 376.56 103.44 390 120 390 c 0
 136.56 390 150 376.56 150 360 c 0
 150 343.44 136.56 330 120 330 c 0
 103.44 330 90 343.44 90 360 c 0
330 200 m 0
 330 216.56 343.44 230 360 230 c 0
 376.56 230 390 216.56 390 200 c 0
 390 183.44 376.56 170 360 170 c 0
 343.44 170 330 183.44 330 200 c 0
250 200 m 0
 250 216.56 263.44 230 280 230 c 0
 296.56 230 310 216.56 310 200 c 0
 310 183.44 296.56 170 280 170 c 0
 263.44 170 250 183.44 250 200 c 0
170 200 m 0
 170 216.56 183.44 230 200 230 c 0
 216.56 230 230 216.56 230 200 c 0
 230 183.44 216.56 170 200 170 c 0
 183.44 170 170 183.44 170 200 c 0
90 200 m 0
 90 216.56 103.44 230 120 230 c 0
 136.56 230 150 216.56 150 200 c 0
 150 183.44 136.56 170 120 170 c 0
 103.44 170 90 183.44 90 200 c 0
10 200 m 0
 10 216.56 23.4404 230 40 230 c 0
 56.5596 230 70 216.56 70 200 c 0
 70 183.44 56.5596 170 40 170 c 0
 23.4404 170 10 183.44 10 200 c 0
10 120 m 0
 10 136.56 23.4404 150 40 150 c 0
 56.5596 150 70 136.56 70 120 c 0
 70 103.44 56.5596 90 40 90 c 0
 23.4404 90 10 103.44 10 120 c 0
330 40 m 0
 330 56.5596 343.44 70 360 70 c 0
 376.56 70 390 56.5596 390 40 c 0
 390 23.4404 376.56 10 360 10 c 0
 343.44 10 330 23.4404 330 40 c 0
250 40 m 0
 250 56.5596 263.44 70 280 70 c 0
 296.56 70 310 56.5596 310 40 c 0
 310 23.4404 296.56 10 280 10 c 0
 263.44 10 250 23.4404 250 40 c 0
170 40 m 0
 170 56.5596 183.44 70 200 70 c 0
 216.56 70 230 56.5596 230 40 c 0
 230 23.4404 216.56 10 200 10 c 0
 183.44 10 170 23.4404 170 40 c 0
90 40 m 0
 90 56.5596 103.44 70 120 70 c 0
 136.56 70 150 56.5596 150 40 c 0
 150 23.4404 136.56 10 120 10 c 0
 103.44 10 90 23.4404 90 40 c 0
EndSplineSet
Validated: 1
EndChar

StartChar: edieresis
Encoding: 235 235 72
Width: 480
Flags: HW
LayerCount: 2
Fore
SplineSet
250 520 m 0
 250 536.56 263.44 550 280 550 c 0
 296.56 550 310 536.56 310 520 c 0
 310 503.44 296.56 490 280 490 c 0
 263.44 490 250 503.44 250 520 c 0
90 520 m 0
 90 536.56 103.44 550 120 550 c 0
 136.56 550 150 536.56 150 520 c 0
 150 503.44 136.56 490 120 490 c 0
 103.44 490 90 503.44 90 520 c 0
330 280 m 0
 330 296.56 343.44 310 360 310 c 0
 376.56 310 390 296.56 390 280 c 0
 390 263.44 376.56 250 360 250 c 0
 343.44 250 330 263.44 330 280 c 0
10 280 m 0
 10 296.56 23.4404 310 40 310 c 0
 56.5596 310 70 296.56 70 280 c 0
 70 263.44 56.5596 250 40 250 c 0
 23.4404 250 10 263.44 10 280 c 0
250 360 m 0
 250 376.56 263.44 390 280 390 c 0
 296.56 390 310 376.56 310 360 c 0
 310 343.44 296.56 330 280 330 c 0
 263.44 330 250 343.44 250 360 c 0
170 360 m 0
 170 376.56 183.44 390 200 390 c 0
 216.56 390 230 376.56 230 360 c 0
 230 343.44 216.56 330 200 330 c 0
 183.44 330 170 343.44 170 360 c 0
90 360 m 0
 90 376.56 103.44 390 120 390 c 0
 136.56 390 150 376.56 150 360 c 0
 150 343.44 136.56 330 120 330 c 0
 103.44 330 90 343.44 90 360 c 0
330 200 m 0
 330 216.56 343.44 230 360 230 c 0
 376.56 230 390 216.56 390 200 c 0
 390 183.44 376.56 170 360 170 c 0
 343.44 170 330 183.44 330 200 c 0
250 200 m 0
 250 216.56 263.44 230 280 230 c 0
 296.56 230 310 216.56 310 200 c 0
 310 183.44 296.56 170 280 170 c 0
 263.44 170 250 183.44 250 200 c 0
170 200 m 0
 170 216.56 183.44 230 200 230 c 0
 216.56 230 230 216.56 230 200 c 0
 230 183.44 216.56 170 200 170 c 0
 183.44 170 170 183.44 170 200 c 0
90 200 m 0
 90 216.56 103.44 230 120 230 c 0
 136.56 230 150 216.56 150 200 c 0
 150 183.44 136.56 170 120 170 c 0
 103.44 170 90 183.44 90 200 c 0
10 200 m 0
 10 216.56 23.4404 230 40 230 c 0
 56.5596 230 70 216.56 70 200 c 0
 70 183.44 56.5596 170 40 170 c 0
 23.4404 170 10 183.44 10 200 c 0
10 120 m 0
 10 136.56 23.4404 150 40 150 c 0
 56.5596 150 70 136.56 70 120 c 0
 70 103.44 56.5596 90 40 90 c 0
 23.4404 90 10 103.44 10 120 c 0
330 40 m 0
 330 56.5596 343.44 70 360 70 c 0
 376.56 70 390 56.5596 390 40 c 0
 390 23.4404 376.56 10 360 10 c 0
 343.44 10 330 23.4404 330 40 c 0
250 40 m 0
 250 56.5596 263.44 70 280 70 c 0
 296.56 70 310 56.5596 310 40 c 0
 310 23.4404 296.56 10 280 10 c 0
 263.44 10 250 23.4404 250 40 c 0
170 40 m 0
 170 56.5596 183.44 70 200 70 c 0
 216.56 70 230 56.5596 230 40 c 0
 230 23.4404 216.56 10 200 10 c 0
 183.44 10 170 23.4404 170 40 c 0
90 40 m 0
 90 56.5596 103.44 70 120 70 c 0
 136.56 70 150 56.5596 150 40 c 0
 150 23.4404 136.56 10 120 10 c 0
 103.44 10 90 23.4404 90 40 c 0
EndSplineSet
Validated: 1
EndChar

StartChar: igrave
Encoding: 236 236 73
Width: 480
Flags: HW
LayerCount: 2
Fore
SplineSet
90 440 m 0
 90 456.56 103.44 470 120 470 c 0
 136.56 470 150 456.56 150 440 c 0
 150 423.44 136.56 410 120 410 c 0
 103.44 410 90 423.44 90 440 c 0
10 520 m 4
 10 536.56 23.4404 550 40 550 c 4
 56.5596 550 70 536.56 70 520 c 4
 70 503.44 56.5596 490 40 490 c 4
 23.4404 490 10 503.44 10 520 c 4
90 280 m 0
 90 296.56 103.44 310 120 310 c 0
 136.56 310 150 296.56 150 280 c 0
 150 263.44 136.56 250 120 250 c 0
 103.44 250 90 263.44 90 280 c 0
90 200 m 0
 90 216.56 103.44 230 120 230 c 0
 136.56 230 150 216.56 150 200 c 0
 150 183.44 136.56 170 120 170 c 0
 103.44 170 90 183.44 90 200 c 0
90 120 m 0
 90 136.56 103.44 150 120 150 c 0
 136.56 150 150 136.56 150 120 c 0
 150 103.44 136.56 90 120 90 c 0
 103.44 90 90 103.44 90 120 c 0
250 40 m 0
 250 56.5596 263.44 70 280 70 c 0
 296.56 70 310 56.5596 310 40 c 0
 310 23.4404 296.56 10 280 10 c 0
 263.44 10 250 23.4404 250 40 c 0
170 40 m 0
 170 56.5596 183.44 70 200 70 c 0
 216.56 70 230 56.5596 230 40 c 0
 230 23.4404 216.56 10 200 10 c 0
 183.44 10 170 23.4404 170 40 c 0
EndSplineSet
Validated: 1
EndChar

StartChar: iacute
Encoding: 237 237 74
Width: 480
Flags: HW
LayerCount: 2
Fore
SplineSet
90 440 m 0
 90 456.56 103.44 470 120 470 c 0
 136.56 470 150 456.56 150 440 c 0
 150 423.44 136.56 410 120 410 c 0
 103.44 410 90 423.44 90 440 c 0
170 520 m 4
 170 536.56 183.44 550 200 550 c 4
 216.56 550 230 536.56 230 520 c 4
 230 503.44 216.56 490 200 490 c 4
 183.44 490 170 503.44 170 520 c 4
90 280 m 0
 90 296.56 103.44 310 120 310 c 0
 136.56 310 150 296.56 150 280 c 0
 150 263.44 136.56 250 120 250 c 0
 103.44 250 90 263.44 90 280 c 0
90 200 m 0
 90 216.56 103.44 230 120 230 c 0
 136.56 230 150 216.56 150 200 c 0
 150 183.44 136.56 170 120 170 c 0
 103.44 170 90 183.44 90 200 c 0
90 120 m 0
 90 136.56 103.44 150 120 150 c 0
 136.56 150 150 136.56 150 120 c 0
 150 103.44 136.56 90 120 90 c 0
 103.44 90 90 103.44 90 120 c 0
250 40 m 0
 250 56.5596 263.44 70 280 70 c 0
 296.56 70 310 56.5596 310 40 c 0
 310 23.4404 296.56 10 280 10 c 0
 263.44 10 250 23.4404 250 40 c 0
170 40 m 0
 170 56.5596 183.44 70 200 70 c 0
 216.56 70 230 56.5596 230 40 c 0
 230 23.4404 216.56 10 200 10 c 0
 183.44 10 170 23.4404 170 40 c 0
EndSplineSet
Validated: 1
EndChar

StartChar: eth
Encoding: 240 240 75
Width: 480
Flags: HW
LayerCount: 2
Fore
SplineSet
170 520 m 4
 170 536.56 183.44 550 200 550 c 4
 216.56 550 230 536.56 230 520 c 4
 230 503.44 216.56 490 200 490 c 4
 183.44 490 170 503.44 170 520 c 4
90 520 m 0
 90 536.56 103.44 550 120 550 c 0
 136.56 550 150 536.56 150 520 c 0
 150 503.44 136.56 490 120 490 c 0
 103.44 490 90 503.44 90 520 c 0
170 440 m 0
 170 456.56 183.44 470 200 470 c 0
 216.56 470 230 456.56 230 440 c 0
 230 423.44 216.56 410 200 410 c 0
 183.44 410 170 423.44 170 440 c 0
330 280 m 0
 330 296.56 343.44 310 360 310 c 0
 376.56 310 390 296.56 390 280 c 0
 390 263.44 376.56 250 360 250 c 0
 343.44 250 330 263.44 330 280 c 0
10 280 m 0
 10 296.56 23.4404 310 40 310 c 0
 56.5596 310 70 296.56 70 280 c 0
 70 263.44 56.5596 250 40 250 c 0
 23.4404 250 10 263.44 10 280 c 0
250 360 m 0
 250 376.56 263.44 390 280 390 c 0
 296.56 390 310 376.56 310 360 c 0
 310 343.44 296.56 330 280 330 c 0
 263.44 330 250 343.44 250 360 c 0
170 360 m 0
 170 376.56 183.44 390 200 390 c 0
 216.56 390 230 376.56 230 360 c 0
 230 343.44 216.56 330 200 330 c 0
 183.44 330 170 343.44 170 360 c 0
90 360 m 0
 90 376.56 103.44 390 120 390 c 0
 136.56 390 150 376.56 150 360 c 0
 150 343.44 136.56 330 120 330 c 0
 103.44 330 90 343.44 90 360 c 0
330 200 m 0
 330 216.56 343.44 230 360 230 c 0
 376.56 230 390 216.56 390 200 c 0
 390 183.44 376.56 170 360 170 c 0
 343.44 170 330 183.44 330 200 c 0
10 200 m 0
 10 216.56 23.4404 230 40 230 c 0
 56.5596 230 70 216.56 70 200 c 0
 70 183.44 56.5596 170 40 170 c 0
 23.4404 170 10 183.44 10 200 c 0
330 120 m 0
 330 136.56 343.44 150 360 150 c 0
 376.56 150 390 136.56 390 120 c 0
 390 103.44 376.56 90 360 90 c 0
 343.44 90 330 103.44 330 120 c 0
10 120 m 0
 10 136.56 23.4404 150 40 150 c 0
 56.5596 150 70 136.56 70 120 c 0
 70 103.44 56.5596 90 40 90 c 0
 23.4404 90 10 103.44 10 120 c 0
250 40 m 0
 250 56.5596 263.44 70 280 70 c 0
 296.56 70 310 56.5596 310 40 c 0
 310 23.4404 296.56 10 280 10 c 0
 263.44 10 250 23.4404 250 40 c 0
170 40 m 0
 170 56.5596 183.44 70 200 70 c 0
 216.56 70 230 56.5596 230 40 c 0
 230 23.4404 216.56 10 200 10 c 0
 183.44 10 170 23.4404 170 40 c 0
90 40 m 0
 90 56.5596 103.44 70 120 70 c 0
 136.56 70 150 56.5596 150 40 c 0
 150 23.4404 136.56 10 120 10 c 0
 103.44 10 90 23.4404 90 40 c 0
EndSplineSet
Validated: 1
EndChar

StartChar: idieresis
Encoding: 239 239 76
Width: 480
Flags: HW
LayerCount: 2
Fore
SplineSet
10 520 m 4
 10 536.56 23.4404 550 40 550 c 4
 56.5596 550 70 536.56 70 520 c 4
 70 503.44 56.5596 490 40 490 c 4
 23.4404 490 10 503.44 10 520 c 4
170 520 m 4
 170 536.56 183.44 550 200 550 c 4
 216.56 550 230 536.56 230 520 c 4
 230 503.44 216.56 490 200 490 c 4
 183.44 490 170 503.44 170 520 c 4
90 360 m 0
 90 376.56 103.44 390 120 390 c 0
 136.56 390 150 376.56 150 360 c 0
 150 343.44 136.56 330 120 330 c 0
 103.44 330 90 343.44 90 360 c 0
90 280 m 0
 90 296.56 103.44 310 120 310 c 0
 136.56 310 150 296.56 150 280 c 0
 150 263.44 136.56 250 120 250 c 0
 103.44 250 90 263.44 90 280 c 0
90 200 m 0
 90 216.56 103.44 230 120 230 c 0
 136.56 230 150 216.56 150 200 c 0
 150 183.44 136.56 170 120 170 c 0
 103.44 170 90 183.44 90 200 c 0
90 120 m 0
 90 136.56 103.44 150 120 150 c 0
 136.56 150 150 136.56 150 120 c 0
 150 103.44 136.56 90 120 90 c 0
 103.44 90 90 103.44 90 120 c 0
250 40 m 0
 250 56.5596 263.44 70 280 70 c 0
 296.56 70 310 56.5596 310 40 c 0
 310 23.4404 296.56 10 280 10 c 0
 263.44 10 250 23.4404 250 40 c 0
170 40 m 0
 170 56.5596 183.44 70 200 70 c 0
 216.56 70 230 56.5596 230 40 c 0
 230 23.4404 216.56 10 200 10 c 0
 183.44 10 170 23.4404 170 40 c 0
EndSplineSet
Validated: 1
EndChar

StartChar: icircumflex
Encoding: 238 238 77
Width: 480
Flags: HW
LayerCount: 2
Fore
SplineSet
10 440 m 4
 10 456.56 23.4404 470 40 470 c 4
 56.5596 470 70 456.56 70 440 c 4
 70 423.44 56.5596 410 40 410 c 4
 23.4404 410 10 423.44 10 440 c 4
170 440 m 0
 170 456.56 183.44 470 200 470 c 0
 216.56 470 230 456.56 230 440 c 0
 230 423.44 216.56 410 200 410 c 0
 183.44 410 170 423.44 170 440 c 0
90 520 m 0
 90 536.56 103.44 550 120 550 c 0
 136.56 550 150 536.56 150 520 c 0
 150 503.44 136.56 490 120 490 c 0
 103.44 490 90 503.44 90 520 c 0
90 280 m 0
 90 296.56 103.44 310 120 310 c 0
 136.56 310 150 296.56 150 280 c 0
 150 263.44 136.56 250 120 250 c 0
 103.44 250 90 263.44 90 280 c 0
90 200 m 0
 90 216.56 103.44 230 120 230 c 0
 136.56 230 150 216.56 150 200 c 0
 150 183.44 136.56 170 120 170 c 0
 103.44 170 90 183.44 90 200 c 0
90 120 m 0
 90 136.56 103.44 150 120 150 c 0
 136.56 150 150 136.56 150 120 c 0
 150 103.44 136.56 90 120 90 c 0
 103.44 90 90 103.44 90 120 c 0
250 40 m 0
 250 56.5596 263.44 70 280 70 c 0
 296.56 70 310 56.5596 310 40 c 0
 310 23.4404 296.56 10 280 10 c 0
 263.44 10 250 23.4404 250 40 c 0
170 40 m 0
 170 56.5596 183.44 70 200 70 c 0
 216.56 70 230 56.5596 230 40 c 0
 230 23.4404 216.56 10 200 10 c 0
 183.44 10 170 23.4404 170 40 c 0
EndSplineSet
Validated: 1
EndChar

StartChar: ograve
Encoding: 242 242 78
Width: 480
Flags: HW
LayerCount: 2
Fore
SplineSet
90 520 m 4
 90 536.56 103.44 550 120 550 c 4
 136.56 550 150 536.56 150 520 c 4
 150 503.44 136.56 490 120 490 c 4
 103.44 490 90 503.44 90 520 c 4
170 440 m 4
 170 456.56 183.44 470 200 470 c 4
 216.56 470 230 456.56 230 440 c 4
 230 423.44 216.56 410 200 410 c 4
 183.44 410 170 423.44 170 440 c 4
330 280 m 0
 330 296.56 343.44 310 360 310 c 0
 376.56 310 390 296.56 390 280 c 0
 390 263.44 376.56 250 360 250 c 0
 343.44 250 330 263.44 330 280 c 0
10 280 m 0
 10 296.56 23.4404 310 40 310 c 0
 56.5596 310 70 296.56 70 280 c 0
 70 263.44 56.5596 250 40 250 c 0
 23.4404 250 10 263.44 10 280 c 0
250 360 m 0
 250 376.56 263.44 390 280 390 c 0
 296.56 390 310 376.56 310 360 c 0
 310 343.44 296.56 330 280 330 c 0
 263.44 330 250 343.44 250 360 c 0
170 360 m 0
 170 376.56 183.44 390 200 390 c 0
 216.56 390 230 376.56 230 360 c 0
 230 343.44 216.56 330 200 330 c 0
 183.44 330 170 343.44 170 360 c 0
90 360 m 0
 90 376.56 103.44 390 120 390 c 0
 136.56 390 150 376.56 150 360 c 0
 150 343.44 136.56 330 120 330 c 0
 103.44 330 90 343.44 90 360 c 0
330 200 m 0
 330 216.56 343.44 230 360 230 c 0
 376.56 230 390 216.56 390 200 c 0
 390 183.44 376.56 170 360 170 c 0
 343.44 170 330 183.44 330 200 c 0
10 200 m 0
 10 216.56 23.4404 230 40 230 c 0
 56.5596 230 70 216.56 70 200 c 0
 70 183.44 56.5596 170 40 170 c 0
 23.4404 170 10 183.44 10 200 c 0
330 120 m 0
 330 136.56 343.44 150 360 150 c 0
 376.56 150 390 136.56 390 120 c 0
 390 103.44 376.56 90 360 90 c 0
 343.44 90 330 103.44 330 120 c 0
10 120 m 0
 10 136.56 23.4404 150 40 150 c 0
 56.5596 150 70 136.56 70 120 c 0
 70 103.44 56.5596 90 40 90 c 0
 23.4404 90 10 103.44 10 120 c 0
250 40 m 0
 250 56.5596 263.44 70 280 70 c 0
 296.56 70 310 56.5596 310 40 c 0
 310 23.4404 296.56 10 280 10 c 0
 263.44 10 250 23.4404 250 40 c 0
170 40 m 0
 170 56.5596 183.44 70 200 70 c 0
 216.56 70 230 56.5596 230 40 c 0
 230 23.4404 216.56 10 200 10 c 0
 183.44 10 170 23.4404 170 40 c 0
90 40 m 0
 90 56.5596 103.44 70 120 70 c 0
 136.56 70 150 56.5596 150 40 c 0
 150 23.4404 136.56 10 120 10 c 0
 103.44 10 90 23.4404 90 40 c 0
EndSplineSet
Validated: 1
EndChar

StartChar: oacute
Encoding: 243 243 79
Width: 480
Flags: HW
LayerCount: 2
Fore
SplineSet
250 520 m 4
 250 536.56 263.44 550 280 550 c 4
 296.56 550 310 536.56 310 520 c 4
 310 503.44 296.56 490 280 490 c 4
 263.44 490 250 503.44 250 520 c 4
170 440 m 4
 170 456.56 183.44 470 200 470 c 4
 216.56 470 230 456.56 230 440 c 4
 230 423.44 216.56 410 200 410 c 4
 183.44 410 170 423.44 170 440 c 4
330 280 m 0
 330 296.56 343.44 310 360 310 c 0
 376.56 310 390 296.56 390 280 c 0
 390 263.44 376.56 250 360 250 c 0
 343.44 250 330 263.44 330 280 c 0
10 280 m 0
 10 296.56 23.4404 310 40 310 c 0
 56.5596 310 70 296.56 70 280 c 0
 70 263.44 56.5596 250 40 250 c 0
 23.4404 250 10 263.44 10 280 c 0
250 360 m 0
 250 376.56 263.44 390 280 390 c 0
 296.56 390 310 376.56 310 360 c 0
 310 343.44 296.56 330 280 330 c 0
 263.44 330 250 343.44 250 360 c 0
170 360 m 0
 170 376.56 183.44 390 200 390 c 0
 216.56 390 230 376.56 230 360 c 0
 230 343.44 216.56 330 200 330 c 0
 183.44 330 170 343.44 170 360 c 0
90 360 m 0
 90 376.56 103.44 390 120 390 c 0
 136.56 390 150 376.56 150 360 c 0
 150 343.44 136.56 330 120 330 c 0
 103.44 330 90 343.44 90 360 c 0
330 200 m 0
 330 216.56 343.44 230 360 230 c 0
 376.56 230 390 216.56 390 200 c 0
 390 183.44 376.56 170 360 170 c 0
 343.44 170 330 183.44 330 200 c 0
10 200 m 0
 10 216.56 23.4404 230 40 230 c 0
 56.5596 230 70 216.56 70 200 c 0
 70 183.44 56.5596 170 40 170 c 0
 23.4404 170 10 183.44 10 200 c 0
330 120 m 0
 330 136.56 343.44 150 360 150 c 0
 376.56 150 390 136.56 390 120 c 0
 390 103.44 376.56 90 360 90 c 0
 343.44 90 330 103.44 330 120 c 0
10 120 m 0
 10 136.56 23.4404 150 40 150 c 0
 56.5596 150 70 136.56 70 120 c 0
 70 103.44 56.5596 90 40 90 c 0
 23.4404 90 10 103.44 10 120 c 0
250 40 m 0
 250 56.5596 263.44 70 280 70 c 0
 296.56 70 310 56.5596 310 40 c 0
 310 23.4404 296.56 10 280 10 c 0
 263.44 10 250 23.4404 250 40 c 0
170 40 m 0
 170 56.5596 183.44 70 200 70 c 0
 216.56 70 230 56.5596 230 40 c 0
 230 23.4404 216.56 10 200 10 c 0
 183.44 10 170 23.4404 170 40 c 0
90 40 m 0
 90 56.5596 103.44 70 120 70 c 0
 136.56 70 150 56.5596 150 40 c 0
 150 23.4404 136.56 10 120 10 c 0
 103.44 10 90 23.4404 90 40 c 0
EndSplineSet
Validated: 1
EndChar

StartChar: ocircumflex
Encoding: 244 244 80
Width: 480
Flags: HW
LayerCount: 2
Fore
SplineSet
170 520 m 0
 170 536.56 183.44 550 200 550 c 0
 216.56 550 230 536.56 230 520 c 0
 230 503.44 216.56 490 200 490 c 0
 183.44 490 170 503.44 170 520 c 0
250 440 m 4
 250 456.56 263.44 470 280 470 c 4
 296.56 470 310 456.56 310 440 c 4
 310 423.44 296.56 410 280 410 c 4
 263.44 410 250 423.44 250 440 c 4
90 440 m 4
 90 456.56 103.44 470 120 470 c 4
 136.56 470 150 456.56 150 440 c 4
 150 423.44 136.56 410 120 410 c 4
 103.44 410 90 423.44 90 440 c 4
330 280 m 0
 330 296.56 343.44 310 360 310 c 0
 376.56 310 390 296.56 390 280 c 0
 390 263.44 376.56 250 360 250 c 0
 343.44 250 330 263.44 330 280 c 0
10 280 m 0
 10 296.56 23.4404 310 40 310 c 0
 56.5596 310 70 296.56 70 280 c 0
 70 263.44 56.5596 250 40 250 c 0
 23.4404 250 10 263.44 10 280 c 0
250 360 m 0
 250 376.56 263.44 390 280 390 c 0
 296.56 390 310 376.56 310 360 c 0
 310 343.44 296.56 330 280 330 c 0
 263.44 330 250 343.44 250 360 c 0
170 360 m 0
 170 376.56 183.44 390 200 390 c 0
 216.56 390 230 376.56 230 360 c 0
 230 343.44 216.56 330 200 330 c 0
 183.44 330 170 343.44 170 360 c 0
90 360 m 0
 90 376.56 103.44 390 120 390 c 0
 136.56 390 150 376.56 150 360 c 0
 150 343.44 136.56 330 120 330 c 0
 103.44 330 90 343.44 90 360 c 0
330 200 m 0
 330 216.56 343.44 230 360 230 c 0
 376.56 230 390 216.56 390 200 c 0
 390 183.44 376.56 170 360 170 c 0
 343.44 170 330 183.44 330 200 c 0
10 200 m 0
 10 216.56 23.4404 230 40 230 c 0
 56.5596 230 70 216.56 70 200 c 0
 70 183.44 56.5596 170 40 170 c 0
 23.4404 170 10 183.44 10 200 c 0
330 120 m 0
 330 136.56 343.44 150 360 150 c 0
 376.56 150 390 136.56 390 120 c 0
 390 103.44 376.56 90 360 90 c 0
 343.44 90 330 103.44 330 120 c 0
10 120 m 0
 10 136.56 23.4404 150 40 150 c 0
 56.5596 150 70 136.56 70 120 c 0
 70 103.44 56.5596 90 40 90 c 0
 23.4404 90 10 103.44 10 120 c 0
250 40 m 0
 250 56.5596 263.44 70 280 70 c 0
 296.56 70 310 56.5596 310 40 c 0
 310 23.4404 296.56 10 280 10 c 0
 263.44 10 250 23.4404 250 40 c 0
170 40 m 0
 170 56.5596 183.44 70 200 70 c 0
 216.56 70 230 56.5596 230 40 c 0
 230 23.4404 216.56 10 200 10 c 0
 183.44 10 170 23.4404 170 40 c 0
90 40 m 0
 90 56.5596 103.44 70 120 70 c 0
 136.56 70 150 56.5596 150 40 c 0
 150 23.4404 136.56 10 120 10 c 0
 103.44 10 90 23.4404 90 40 c 0
EndSplineSet
Validated: 1
EndChar

StartChar: otilde
Encoding: 245 245 81
Width: 480
Flags: HW
LayerCount: 2
Fore
SplineSet
170 520 m 4
 170 536.56 183.44 550 200 550 c 4
 216.56 550 230 536.56 230 520 c 4
 230 503.44 216.56 490 200 490 c 4
 183.44 490 170 503.44 170 520 c 4
250 520 m 0
 250 536.56 263.44 550 280 550 c 0
 296.56 550 310 536.56 310 520 c 0
 310 503.44 296.56 490 280 490 c 0
 263.44 490 250 503.44 250 520 c 0
90 520 m 0
 90 536.56 103.44 550 120 550 c 0
 136.56 550 150 536.56 150 520 c 0
 150 503.44 136.56 490 120 490 c 0
 103.44 490 90 503.44 90 520 c 0
330 280 m 0
 330 296.56 343.44 310 360 310 c 0
 376.56 310 390 296.56 390 280 c 0
 390 263.44 376.56 250 360 250 c 0
 343.44 250 330 263.44 330 280 c 0
10 280 m 0
 10 296.56 23.4404 310 40 310 c 0
 56.5596 310 70 296.56 70 280 c 0
 70 263.44 56.5596 250 40 250 c 0
 23.4404 250 10 263.44 10 280 c 0
250 360 m 0
 250 376.56 263.44 390 280 390 c 0
 296.56 390 310 376.56 310 360 c 0
 310 343.44 296.56 330 280 330 c 0
 263.44 330 250 343.44 250 360 c 0
170 360 m 0
 170 376.56 183.44 390 200 390 c 0
 216.56 390 230 376.56 230 360 c 0
 230 343.44 216.56 330 200 330 c 0
 183.44 330 170 343.44 170 360 c 0
90 360 m 0
 90 376.56 103.44 390 120 390 c 0
 136.56 390 150 376.56 150 360 c 0
 150 343.44 136.56 330 120 330 c 0
 103.44 330 90 343.44 90 360 c 0
330 200 m 0
 330 216.56 343.44 230 360 230 c 0
 376.56 230 390 216.56 390 200 c 0
 390 183.44 376.56 170 360 170 c 0
 343.44 170 330 183.44 330 200 c 0
10 200 m 0
 10 216.56 23.4404 230 40 230 c 0
 56.5596 230 70 216.56 70 200 c 0
 70 183.44 56.5596 170 40 170 c 0
 23.4404 170 10 183.44 10 200 c 0
330 120 m 0
 330 136.56 343.44 150 360 150 c 0
 376.56 150 390 136.56 390 120 c 0
 390 103.44 376.56 90 360 90 c 0
 343.44 90 330 103.44 330 120 c 0
10 120 m 0
 10 136.56 23.4404 150 40 150 c 0
 56.5596 150 70 136.56 70 120 c 0
 70 103.44 56.5596 90 40 90 c 0
 23.4404 90 10 103.44 10 120 c 0
250 40 m 0
 250 56.5596 263.44 70 280 70 c 0
 296.56 70 310 56.5596 310 40 c 0
 310 23.4404 296.56 10 280 10 c 0
 263.44 10 250 23.4404 250 40 c 0
170 40 m 0
 170 56.5596 183.44 70 200 70 c 0
 216.56 70 230 56.5596 230 40 c 0
 230 23.4404 216.56 10 200 10 c 0
 183.44 10 170 23.4404 170 40 c 0
90 40 m 0
 90 56.5596 103.44 70 120 70 c 0
 136.56 70 150 56.5596 150 40 c 0
 150 23.4404 136.56 10 120 10 c 0
 103.44 10 90 23.4404 90 40 c 0
EndSplineSet
Validated: 1
EndChar

StartChar: odieresis
Encoding: 246 246 82
Width: 480
Flags: HW
LayerCount: 2
Fore
SplineSet
250 520 m 4
 250 536.56 263.44 550 280 550 c 4
 296.56 550 310 536.56 310 520 c 4
 310 503.44 296.56 490 280 490 c 4
 263.44 490 250 503.44 250 520 c 4
90 520 m 4
 90 536.56 103.44 550 120 550 c 4
 136.56 550 150 536.56 150 520 c 4
 150 503.44 136.56 490 120 490 c 4
 103.44 490 90 503.44 90 520 c 4
330 280 m 0
 330 296.56 343.44 310 360 310 c 0
 376.56 310 390 296.56 390 280 c 0
 390 263.44 376.56 250 360 250 c 0
 343.44 250 330 263.44 330 280 c 0
10 280 m 0
 10 296.56 23.4404 310 40 310 c 0
 56.5596 310 70 296.56 70 280 c 0
 70 263.44 56.5596 250 40 250 c 0
 23.4404 250 10 263.44 10 280 c 0
250 360 m 0
 250 376.56 263.44 390 280 390 c 0
 296.56 390 310 376.56 310 360 c 0
 310 343.44 296.56 330 280 330 c 0
 263.44 330 250 343.44 250 360 c 0
170 360 m 0
 170 376.56 183.44 390 200 390 c 0
 216.56 390 230 376.56 230 360 c 0
 230 343.44 216.56 330 200 330 c 0
 183.44 330 170 343.44 170 360 c 0
90 360 m 0
 90 376.56 103.44 390 120 390 c 0
 136.56 390 150 376.56 150 360 c 0
 150 343.44 136.56 330 120 330 c 0
 103.44 330 90 343.44 90 360 c 0
330 200 m 0
 330 216.56 343.44 230 360 230 c 0
 376.56 230 390 216.56 390 200 c 0
 390 183.44 376.56 170 360 170 c 0
 343.44 170 330 183.44 330 200 c 0
10 200 m 0
 10 216.56 23.4404 230 40 230 c 0
 56.5596 230 70 216.56 70 200 c 0
 70 183.44 56.5596 170 40 170 c 0
 23.4404 170 10 183.44 10 200 c 0
330 120 m 0
 330 136.56 343.44 150 360 150 c 0
 376.56 150 390 136.56 390 120 c 0
 390 103.44 376.56 90 360 90 c 0
 343.44 90 330 103.44 330 120 c 0
10 120 m 0
 10 136.56 23.4404 150 40 150 c 0
 56.5596 150 70 136.56 70 120 c 0
 70 103.44 56.5596 90 40 90 c 0
 23.4404 90 10 103.44 10 120 c 0
250 40 m 0
 250 56.5596 263.44 70 280 70 c 0
 296.56 70 310 56.5596 310 40 c 0
 310 23.4404 296.56 10 280 10 c 0
 263.44 10 250 23.4404 250 40 c 0
170 40 m 0
 170 56.5596 183.44 70 200 70 c 0
 216.56 70 230 56.5596 230 40 c 0
 230 23.4404 216.56 10 200 10 c 0
 183.44 10 170 23.4404 170 40 c 0
90 40 m 0
 90 56.5596 103.44 70 120 70 c 0
 136.56 70 150 56.5596 150 40 c 0
 150 23.4404 136.56 10 120 10 c 0
 103.44 10 90 23.4404 90 40 c 0
EndSplineSet
Validated: 1
EndChar

StartChar: divide
Encoding: 247 247 83
Width: 480
Flags: HW
LayerCount: 2
Fore
SplineSet
170 440 m 0
 170 456.56 183.44 470 200 470 c 0
 216.56 470 230 456.56 230 440 c 0
 230 423.44 216.56 410 200 410 c 0
 183.44 410 170 423.44 170 440 c 0
330 280 m 0
 330 296.56 343.44 310 360 310 c 0
 376.56 310 390 296.56 390 280 c 0
 390 263.44 376.56 250 360 250 c 0
 343.44 250 330 263.44 330 280 c 0
250 280 m 0
 250 296.56 263.44 310 280 310 c 0
 296.56 310 310 296.56 310 280 c 0
 310 263.44 296.56 250 280 250 c 0
 263.44 250 250 263.44 250 280 c 0
170 280 m 0
 170 296.56 183.44 310 200 310 c 0
 216.56 310 230 296.56 230 280 c 0
 230 263.44 216.56 250 200 250 c 0
 183.44 250 170 263.44 170 280 c 0
90 280 m 0
 90 296.56 103.44 310 120 310 c 0
 136.56 310 150 296.56 150 280 c 0
 150 263.44 136.56 250 120 250 c 0
 103.44 250 90 263.44 90 280 c 0
10 280 m 0
 10 296.56 23.4404 310 40 310 c 0
 56.5596 310 70 296.56 70 280 c 0
 70 263.44 56.5596 250 40 250 c 0
 23.4404 250 10 263.44 10 280 c 0
170 120 m 0
 170 136.56 183.44 150 200 150 c 0
 216.56 150 230 136.56 230 120 c 0
 230 103.44 216.56 90 200 90 c 0
 183.44 90 170 103.44 170 120 c 0
EndSplineSet
Validated: 1
EndChar

StartChar: oslash
Encoding: 248 248 84
Width: 480
Flags: HW
LayerCount: 2
Fore
SplineSet
250 520 m 0
 250 536.56 263.44 550 280 550 c 0
 296.56 550 310 536.56 310 520 c 0
 310 503.44 296.56 490 280 490 c 0
 263.44 490 250 503.44 250 520 c 0
250 440 m 0
 250 456.56 263.44 470 280 470 c 0
 296.56 470 310 456.56 310 440 c 0
 310 423.44 296.56 410 280 410 c 0
 263.44 410 250 423.44 250 440 c 0
170 440 m 0
 170 456.56 183.44 470 200 470 c 0
 216.56 470 230 456.56 230 440 c 0
 230 423.44 216.56 410 200 410 c 0
 183.44 410 170 423.44 170 440 c 0
90 440 m 0
 90 456.56 103.44 470 120 470 c 0
 136.56 470 150 456.56 150 440 c 0
 150 423.44 136.56 410 120 410 c 0
 103.44 410 90 423.44 90 440 c 0
330 280 m 0
 330 296.56 343.44 310 360 310 c 0
 376.56 310 390 296.56 390 280 c 0
 390 263.44 376.56 250 360 250 c 0
 343.44 250 330 263.44 330 280 c 0
170 280 m 0
 170 296.56 183.44 310 200 310 c 0
 216.56 310 230 296.56 230 280 c 0
 230 263.44 216.56 250 200 250 c 0
 183.44 250 170 263.44 170 280 c 0
10 280 m 0
 10 296.56 23.4404 310 40 310 c 0
 56.5596 310 70 296.56 70 280 c 0
 70 263.44 56.5596 250 40 250 c 0
 23.4404 250 10 263.44 10 280 c 0
330 360 m 0
 330 376.56 343.44 390 360 390 c 0
 376.56 390 390 376.56 390 360 c 0
 390 343.44 376.56 330 360 330 c 0
 343.44 330 330 343.44 330 360 c 0
170 360 m 0
 170 376.56 183.44 390 200 390 c 0
 216.56 390 230 376.56 230 360 c 0
 230 343.44 216.56 330 200 330 c 0
 183.44 330 170 343.44 170 360 c 0
10 360 m 0
 10 376.56 23.4404 390 40 390 c 0
 56.5596 390 70 376.56 70 360 c 0
 70 343.44 56.5596 330 40 330 c 0
 23.4404 330 10 343.44 10 360 c 0
330 200 m 0
 330 216.56 343.44 230 360 230 c 0
 376.56 230 390 216.56 390 200 c 0
 390 183.44 376.56 170 360 170 c 0
 343.44 170 330 183.44 330 200 c 0
170 200 m 0
 170 216.56 183.44 230 200 230 c 0
 216.56 230 230 216.56 230 200 c 0
 230 183.44 216.56 170 200 170 c 0
 183.44 170 170 183.44 170 200 c 0
10 200 m 0
 10 216.56 23.4404 230 40 230 c 0
 56.5596 230 70 216.56 70 200 c 0
 70 183.44 56.5596 170 40 170 c 0
 23.4404 170 10 183.44 10 200 c 0
250 120 m 0
 250 136.56 263.44 150 280 150 c 0
 296.56 150 310 136.56 310 120 c 0
 310 103.44 296.56 90 280 90 c 0
 263.44 90 250 103.44 250 120 c 0
170 120 m 0
 170 136.56 183.44 150 200 150 c 0
 216.56 150 230 136.56 230 120 c 0
 230 103.44 216.56 90 200 90 c 0
 183.44 90 170 103.44 170 120 c 0
90 120 m 0
 90 136.56 103.44 150 120 150 c 0
 136.56 150 150 136.56 150 120 c 0
 150 103.44 136.56 90 120 90 c 0
 103.44 90 90 103.44 90 120 c 0
90 40 m 0
 90 56.5596 103.44 70 120 70 c 0
 136.56 70 150 56.5596 150 40 c 0
 150 23.4404 136.56 10 120 10 c 0
 103.44 10 90 23.4404 90 40 c 0
EndSplineSet
Validated: 1
EndChar

StartChar: ugrave
Encoding: 249 249 85
Width: 480
Flags: HW
LayerCount: 2
Fore
SplineSet
90 520 m 4
 90 536.56 103.44 550 120 550 c 4
 136.56 550 150 536.56 150 520 c 4
 150 503.44 136.56 490 120 490 c 4
 103.44 490 90 503.44 90 520 c 4
170 440 m 0
 170 456.56 183.44 470 200 470 c 0
 216.56 470 230 456.56 230 440 c 0
 230 423.44 216.56 410 200 410 c 0
 183.44 410 170 423.44 170 440 c 0
330 280 m 0
 330 296.56 343.44 310 360 310 c 0
 376.56 310 390 296.56 390 280 c 0
 390 263.44 376.56 250 360 250 c 0
 343.44 250 330 263.44 330 280 c 0
10 280 m 0
 10 296.56 23.4404 310 40 310 c 0
 56.5596 310 70 296.56 70 280 c 0
 70 263.44 56.5596 250 40 250 c 0
 23.4404 250 10 263.44 10 280 c 0
330 360 m 0
 330 376.56 343.44 390 360 390 c 0
 376.56 390 390 376.56 390 360 c 0
 390 343.44 376.56 330 360 330 c 0
 343.44 330 330 343.44 330 360 c 0
10 360 m 0
 10 376.56 23.4404 390 40 390 c 0
 56.5596 390 70 376.56 70 360 c 0
 70 343.44 56.5596 330 40 330 c 0
 23.4404 330 10 343.44 10 360 c 0
330 200 m 0
 330 216.56 343.44 230 360 230 c 0
 376.56 230 390 216.56 390 200 c 0
 390 183.44 376.56 170 360 170 c 0
 343.44 170 330 183.44 330 200 c 0
10 200 m 0
 10 216.56 23.4404 230 40 230 c 0
 56.5596 230 70 216.56 70 200 c 0
 70 183.44 56.5596 170 40 170 c 0
 23.4404 170 10 183.44 10 200 c 0
330 120 m 0
 330 136.56 343.44 150 360 150 c 0
 376.56 150 390 136.56 390 120 c 0
 390 103.44 376.56 90 360 90 c 0
 343.44 90 330 103.44 330 120 c 0
10 120 m 0
 10 136.56 23.4404 150 40 150 c 0
 56.5596 150 70 136.56 70 120 c 0
 70 103.44 56.5596 90 40 90 c 0
 23.4404 90 10 103.44 10 120 c 0
330 40 m 0
 330 56.5596 343.44 70 360 70 c 0
 376.56 70 390 56.5596 390 40 c 0
 390 23.4404 376.56 10 360 10 c 0
 343.44 10 330 23.4404 330 40 c 0
250 40 m 0
 250 56.5596 263.44 70 280 70 c 0
 296.56 70 310 56.5596 310 40 c 0
 310 23.4404 296.56 10 280 10 c 0
 263.44 10 250 23.4404 250 40 c 0
170 40 m 0
 170 56.5596 183.44 70 200 70 c 0
 216.56 70 230 56.5596 230 40 c 0
 230 23.4404 216.56 10 200 10 c 0
 183.44 10 170 23.4404 170 40 c 0
90 40 m 0
 90 56.5596 103.44 70 120 70 c 0
 136.56 70 150 56.5596 150 40 c 0
 150 23.4404 136.56 10 120 10 c 0
 103.44 10 90 23.4404 90 40 c 0
EndSplineSet
Validated: 1
EndChar

StartChar: uacute
Encoding: 250 250 86
Width: 480
Flags: HW
LayerCount: 2
Fore
SplineSet
250 520 m 4
 250 536.56 263.44 550 280 550 c 4
 296.56 550 310 536.56 310 520 c 4
 310 503.44 296.56 490 280 490 c 4
 263.44 490 250 503.44 250 520 c 4
170 440 m 4
 170 456.56 183.44 470 200 470 c 4
 216.56 470 230 456.56 230 440 c 4
 230 423.44 216.56 410 200 410 c 4
 183.44 410 170 423.44 170 440 c 4
330 280 m 0
 330 296.56 343.44 310 360 310 c 0
 376.56 310 390 296.56 390 280 c 0
 390 263.44 376.56 250 360 250 c 0
 343.44 250 330 263.44 330 280 c 0
10 280 m 0
 10 296.56 23.4404 310 40 310 c 0
 56.5596 310 70 296.56 70 280 c 0
 70 263.44 56.5596 250 40 250 c 0
 23.4404 250 10 263.44 10 280 c 0
330 360 m 0
 330 376.56 343.44 390 360 390 c 0
 376.56 390 390 376.56 390 360 c 0
 390 343.44 376.56 330 360 330 c 0
 343.44 330 330 343.44 330 360 c 0
10 360 m 0
 10 376.56 23.4404 390 40 390 c 0
 56.5596 390 70 376.56 70 360 c 0
 70 343.44 56.5596 330 40 330 c 0
 23.4404 330 10 343.44 10 360 c 0
330 200 m 0
 330 216.56 343.44 230 360 230 c 0
 376.56 230 390 216.56 390 200 c 0
 390 183.44 376.56 170 360 170 c 0
 343.44 170 330 183.44 330 200 c 0
10 200 m 0
 10 216.56 23.4404 230 40 230 c 0
 56.5596 230 70 216.56 70 200 c 0
 70 183.44 56.5596 170 40 170 c 0
 23.4404 170 10 183.44 10 200 c 0
330 120 m 0
 330 136.56 343.44 150 360 150 c 0
 376.56 150 390 136.56 390 120 c 0
 390 103.44 376.56 90 360 90 c 0
 343.44 90 330 103.44 330 120 c 0
10 120 m 0
 10 136.56 23.4404 150 40 150 c 0
 56.5596 150 70 136.56 70 120 c 0
 70 103.44 56.5596 90 40 90 c 0
 23.4404 90 10 103.44 10 120 c 0
330 40 m 0
 330 56.5596 343.44 70 360 70 c 0
 376.56 70 390 56.5596 390 40 c 0
 390 23.4404 376.56 10 360 10 c 0
 343.44 10 330 23.4404 330 40 c 0
250 40 m 0
 250 56.5596 263.44 70 280 70 c 0
 296.56 70 310 56.5596 310 40 c 0
 310 23.4404 296.56 10 280 10 c 0
 263.44 10 250 23.4404 250 40 c 0
170 40 m 0
 170 56.5596 183.44 70 200 70 c 0
 216.56 70 230 56.5596 230 40 c 0
 230 23.4404 216.56 10 200 10 c 0
 183.44 10 170 23.4404 170 40 c 0
90 40 m 0
 90 56.5596 103.44 70 120 70 c 0
 136.56 70 150 56.5596 150 40 c 0
 150 23.4404 136.56 10 120 10 c 0
 103.44 10 90 23.4404 90 40 c 0
EndSplineSet
Validated: 1
EndChar

StartChar: ucircumflex
Encoding: 251 251 87
Width: 480
Flags: HW
LayerCount: 2
Fore
SplineSet
170 520 m 0
 170 536.56 183.44 550 200 550 c 0
 216.56 550 230 536.56 230 520 c 0
 230 503.44 216.56 490 200 490 c 0
 183.44 490 170 503.44 170 520 c 0
250 440 m 0
 250 456.56 263.44 470 280 470 c 0
 296.56 470 310 456.56 310 440 c 0
 310 423.44 296.56 410 280 410 c 0
 263.44 410 250 423.44 250 440 c 0
90 440 m 0
 90 456.56 103.44 470 120 470 c 0
 136.56 470 150 456.56 150 440 c 0
 150 423.44 136.56 410 120 410 c 0
 103.44 410 90 423.44 90 440 c 0
330 280 m 0
 330 296.56 343.44 310 360 310 c 0
 376.56 310 390 296.56 390 280 c 0
 390 263.44 376.56 250 360 250 c 0
 343.44 250 330 263.44 330 280 c 0
10 280 m 0
 10 296.56 23.4404 310 40 310 c 0
 56.5596 310 70 296.56 70 280 c 0
 70 263.44 56.5596 250 40 250 c 0
 23.4404 250 10 263.44 10 280 c 0
330 200 m 0
 330 216.56 343.44 230 360 230 c 0
 376.56 230 390 216.56 390 200 c 0
 390 183.44 376.56 170 360 170 c 0
 343.44 170 330 183.44 330 200 c 0
10 200 m 0
 10 216.56 23.4404 230 40 230 c 0
 56.5596 230 70 216.56 70 200 c 0
 70 183.44 56.5596 170 40 170 c 0
 23.4404 170 10 183.44 10 200 c 0
330 120 m 0
 330 136.56 343.44 150 360 150 c 0
 376.56 150 390 136.56 390 120 c 0
 390 103.44 376.56 90 360 90 c 0
 343.44 90 330 103.44 330 120 c 0
10 120 m 0
 10 136.56 23.4404 150 40 150 c 0
 56.5596 150 70 136.56 70 120 c 0
 70 103.44 56.5596 90 40 90 c 0
 23.4404 90 10 103.44 10 120 c 0
330 40 m 0
 330 56.5596 343.44 70 360 70 c 0
 376.56 70 390 56.5596 390 40 c 0
 390 23.4404 376.56 10 360 10 c 0
 343.44 10 330 23.4404 330 40 c 0
250 40 m 0
 250 56.5596 263.44 70 280 70 c 0
 296.56 70 310 56.5596 310 40 c 0
 310 23.4404 296.56 10 280 10 c 0
 263.44 10 250 23.4404 250 40 c 0
170 40 m 0
 170 56.5596 183.44 70 200 70 c 0
 216.56 70 230 56.5596 230 40 c 0
 230 23.4404 216.56 10 200 10 c 0
 183.44 10 170 23.4404 170 40 c 0
90 40 m 0
 90 56.5596 103.44 70 120 70 c 0
 136.56 70 150 56.5596 150 40 c 0
 150 23.4404 136.56 10 120 10 c 0
 103.44 10 90 23.4404 90 40 c 0
EndSplineSet
Validated: 1
EndChar

